<?xml version="1.0" encoding="UTF-8"?>
<svg id="Layer_2" data-name="Layer 2" xmlns="http://www.w3.org/2000/svg" viewBox="0 0 151.19 157.14">
  <defs>
    <style>
      .cls-1, .cls-2 {
        fill: #fff;
      }

      .cls-3 {
        fill: none;
        stroke-linejoin: round;
      }

      .cls-3, .cls-2 {
        stroke: #fff;
        stroke-width: 3.06px;
      }

      .cls-2 {
        stroke-miterlimit: 10;
      }
    </style>
  </defs>
  <g id="Empathic_Building" data-name="Empathic Building">
    <g>
      <path class="cls-3" d="m75.59,15.61C90.88.49,105.47,1.55,113.44,1.55c7.97,0,36.22,4.87,36.22,23.04,0,9.3-13.8,17.16-29.68,26.69-20.53,12.32-44.35,23.92-44.35,23.92,0,0-23.88-11.6-44.41-23.92C15.33,41.74,1.53,33.89,1.53,24.58,1.53,6.42,29.77,1.55,37.75,1.55s22.56-1.05,37.85,14.06Z"/>
      <path class="cls-3" d="m75.56,155.6v-80.42s23.85-11.59,44.38-23.91c15.88-9.53,29.68-17.39,29.68-26.69,0,0,.03,62.24.03,80.41,0,9.3-13.8,17.16-29.68,26.69-20.53,12.32-44.41,23.92-44.41,23.92Z"/>
      <path class="cls-3" d="m75.63,155.6v-80.42s-23.85-11.59-44.38-23.91C15.37,41.74,1.57,33.89,1.57,24.58c0,0-.03,62.24-.03,80.41,0,9.3,13.8,17.16,29.68,26.69,20.53,12.32,44.41,23.92,44.41,23.92Z"/>
      <path class="cls-1" d="m110.22,89.4l5.72-3.43c2-1.14,3.43-3.72,3.43-6.01v-10.87c0-2.29-1.43-3.15-3.43-2l-5.72,3.43c-2,1.14-3.43,3.72-3.43,6.01v10.87c0,2.29,1.72,3.15,3.43,2Z"/>
      <path class="cls-1" d="m91.05,100.28l5.72-3.43c2-1.14,3.43-3.72,3.43-6.01v-10.87c0-2.29-1.43-3.15-3.43-2l-5.72,3.43c-2,1.14-3.43,3.72-3.43,6.01v10.87c0,2.29,1.72,3.15,3.43,2Z"/>
      <path class="cls-1" d="m129.39,78.53l5.72-3.43c2-1.14,3.43-3.72,3.43-6.01v-10.87c0-2.29-1.43-3.15-3.43-2l-5.72,3.43c-2,1.14-3.43,3.72-3.43,6.01v10.87c0,2,1.43,3.15,3.43,2Z"/>
      <path class="cls-1" d="m110.22,116.59l5.72-3.43c2-1.14,3.43-3.72,3.43-6.01v-10.87c0-2.29-1.43-3.15-3.43-2l-5.72,3.43c-2,1.14-3.43,3.72-3.43,6.01v10.87c0,2.29,1.72,3.15,3.43,2Z"/>
      <path class="cls-1" d="m91.05,127.46l5.72-3.43c2-1.14,3.43-3.72,3.43-6.01v-10.87c0-2.29-1.43-3.15-3.43-2l-5.72,3.43c-1.72,1.14-3.43,3.72-3.43,6.01v10.87c0,2.29,1.72,3.15,3.43,2Z"/>
      <path class="cls-1" d="m129.39,105.71l5.72-3.43c2-1.14,3.43-3.72,3.43-6.01v-10.87c0-2.29-1.43-3.15-3.43-2l-5.72,3.43c-2,1.14-3.43,3.72-3.43,6.01v10.87c0,2,1.43,3.15,3.43,2Z"/>
      <path class="cls-1" d="m16.64,75.09l5.72,3.43c2,1.14,3.43.29,3.43-2v-10.87c0-2.29-1.43-4.87-3.43-6.01l-5.72-3.43c-1.72-1.14-3.43-.29-3.43,2v10.87c0,2.29,1.72,4.87,3.43,6.01Z"/>
      <path class="cls-1" d="m35.81,86.25l5.72,3.43c2,1.14,3.43.29,3.43-2v-10.87c0-2.29-1.43-4.87-3.43-6.01l-5.72-3.43c-2-1.14-3.43-.29-3.43,2v10.87c0,2,1.43,4.87,3.43,6.01Z"/>
      <path class="cls-1" d="m54.99,97.13l5.72,3.43c2,1.14,3.43.29,3.43-2v-10.87c0-2.29-1.43-4.87-3.43-6.01l-5.72-3.43c-2-1.14-3.43-.29-3.43,2v10.87c0,2,1.43,4.87,3.43,6.01Z"/>
      <path class="cls-1" d="m16.64,102.28l5.72,3.43c2,1.14,3.43.29,3.43-2v-10.87c0-2.29-1.43-4.87-3.43-6.01l-5.72-3.43c-2-1.14-3.43-.29-3.43,2v10.87c0,2.29,1.72,4.87,3.43,6.01Z"/>
      <path class="cls-2" d="m42.29,102.03l10.74,5.9c.86.47,1.39,1.37,1.39,2.35v34.48l-13.88-7.63v-34.07c0-.9.96-1.47,1.75-1.04Z"/>
    </g>
  </g>
</svg>