<?xml version="1.0" encoding="UTF-8"?>
<svg id="Layer_2" data-name="Layer 2" xmlns="http://www.w3.org/2000/svg" viewBox="0 0 186.58 45.52">
  <defs>
    <style>
      .cls-1 {
        fill: #0083d5;
      }
    </style>
  </defs>
  <g id="Empathic_Building" data-name="Empathic Building">
    <g>
      <path class="cls-1" d="m20.82,0c8.76,15.17,17.46,30.23,26.29,45.52h-26.14c1.34-3.11,3.36-5.83,4.93-8.99H0C-.06,35.56,19.29,1.64,20.82,0Zm-7.51,20.85c5.45,3.15,10.84,6.26,16.28,9.41.84-1.45,1.63-2.82,2.42-4.19-3.61-6.25-7.2-12.46-10.87-18.81-2.67,4.63-5.22,9.06-7.83,13.59Zm-7.09,12.27h21.6c-5.57-3.22-10.85-6.26-16.19-9.35-1.82,3.14-3.57,6.17-5.41,9.35Zm35.14,9.15c-2.33-4.03-4.59-7.95-6.95-12.05-2.36,4.08-4.62,8.01-6.95,12.05h13.9Z"/>
      <path class="cls-1" d="m82.03,22.08h-18.79v14.41h-4.1V4.7h4.01v13.92h18.84V4.71h4.1v31.75h-4.06v-14.38Z"/>
      <path class="cls-1" d="m158.9,34.24c-2.82,1.86-5.86,2.43-9.12,2.24-5.37-.31-8.37-4.96-6.32-9.96,1.06-2.6,3.26-3.76,5.82-3.96,3.02-.23,6.08-.05,9.17-.05,0-.92.11-1.97-.03-2.98-.19-1.4-1.7-2.5-3.59-2.83-3-.52-5.93-.1-8.84.6-.33.08-.66.16-1.1.26v-3.34c4.42-1.21,8.88-1.66,13.33-.21,2.99.98,4.42,3.18,4.43,6.35,0,5.34,0,10.69,0,16.11h-2.31c-.43-.66-.89-1.37-1.44-2.22Zm-.45-3.22v-5.07c-2.1-.11-4.13-.3-6.17-.3-1.02,0-2.08.2-3.04.54-1.65.57-2.32,1.89-2.16,3.78.14,1.62,1.03,2.71,2.69,3.03,3.16.61,6.03-.21,8.69-1.98Z"/>
      <path class="cls-1" d="m91.37,17.55v-3.33c4.5-1.21,8.99-1.68,13.47-.16,2.85.97,4.32,3.18,4.33,6.19.01,5.27,0,10.53,0,15.8,0,.11-.04.23-.07.42h-2.26c-.44-.7-.91-1.43-1.43-2.24-2.85,1.92-5.95,2.52-9.23,2.22-2.52-.23-4.86-.97-6-3.48-1.16-2.57-1.13-5.19.44-7.64.93-1.45,2.4-2.15,4-2.56,3.25-.83,6.53-.48,9.81-.14.15.02.31.03.56.06,0-.99.1-1.96-.02-2.9-.21-1.62-1.37-2.44-2.83-2.87-2.88-.83-5.75-.42-8.61.13-.67.13-1.34.31-2.16.5Zm13.58,13.43v-5.21c-2.69,0-5.31-.13-7.92.04-2.26.14-3.45,1.61-3.43,3.74.02,2.16,1.09,3.4,3.41,3.6,2.9.25,5.59-.43,7.94-2.18Z"/>
      <path class="cls-1" d="m186.54,36.49h-4.12c0-2.07,0-4.08,0-6.08,0-2.71-.09-5.43.02-8.13.22-5.18-3.29-6.28-7.14-5.46-1.85.39-3.41,1.4-4.8,2.78v16.89h-4.06V13.21h2.7c.24.87.49,1.79.68,2.49,1.85-.77,3.66-1.87,5.6-2.22,1.91-.35,4.03-.24,5.94.19,3.2.72,5.05,3.31,5.13,7.01.12,5.22.03,10.45.03,15.81Z"/>
      <path class="cls-1" d="m131.41,33.2v3.19c-1.9,0-3.78.2-5.59-.05-2.42-.32-3.91-2.14-4.07-4.66-.12-1.85-.11-3.72-.11-5.57-.01-5.15,0-10.3,0-15.46,0-.42,0-.84,0-1.3h2.56c.31,1.23.6,2.42.93,3.74h6.26v3.34h-5.66c0,.58,0,1.03,0,1.49,0,3.84,0,7.67,0,11.51,0,2.97.82,3.78,3.79,3.77.58,0,1.16,0,1.88,0Z"/>
      <path class="cls-1" d="m117.41,36.48h-4V4.71h4v31.77Z"/>
      <path class="cls-1" d="m135.59,13.2h4.01v23.29h-4.01V13.2Z"/>
      <path class="cls-1" d="m135.59,8.47v-3.76h3.98v3.76h-3.98Z"/>
    </g>
  </g>
</svg>