<svg width="132px" height="32px" viewBox="0 0 132 32" version="1.1" xmlns="http://www.w3.org/2000/svg"
    xmlns:xlink="http://www.w3.org/1999/xlink">
    <path
        d="M14.6988962,-7.81597009e-14 C14.7520962,-7.81597009e-14 14.8043962,0.01435249 14.8500962,0.04154619 C14.8958962,0.06873989 14.9334962,0.10776869 14.9588962,0.15452169 L14.9588962,0.15452169 L33.0948962,31.5545297 L33.0628962,31.5545297 C33.0882962,31.5983297 33.1020962,31.6479297 33.1028962,31.6985297 C33.1028962,31.7791297 33.0708962,31.8564297 33.0138962,31.9135297 C32.9567962,31.9705297 32.8794962,32.0025297 32.7988962,32.0025297 L32.7988962,32.0025297 L15.1988962,32.0025297 C15.1486962,31.9980297 15.1003962,31.9811297 15.0582962,31.9533297 C15.0162962,31.9255297 14.9817962,31.8877297 14.9579962,31.8433297 C14.9341962,31.7988297 14.9217962,31.7492297 14.9219962,31.6988297 C14.9220962,31.6484297 14.9347962,31.5988297 14.9588962,31.5545297 L14.9588962,31.5545297 L18.3988962,25.5465297 L0.294895178,25.5465297 C0.240648178,25.5456297 0.187841178,25.5289297 0.142895178,25.4985297 C0.0768142784,25.4586297 0.0289544784,25.3944297 0.00952527837,25.3197297 C-0.00990400163,25.2449297 0.000635468366,25.1656297 0.0388953784,25.0985297 L0.0388953784,25.0985297 L14.4388962,0.15452169 C14.4642962,0.10776869 14.5018962,0.06873989 14.5476962,0.04154619 C14.5933962,0.01435249 14.6456962,-7.81597009e-14 14.6988962,-7.81597009e-14 Z M24.3508962,21.1145297 L19.4308962,29.6505297 L29.2788962,29.6505297 L24.3508962,21.1145297 Z M119.110596,9.10692969 L119.630596,11.2109297 C121.169596,9.86658969 123.139596,9.11988969 125.182596,9.10692969 C129.278596,9.10692969 131.329596,11.1522297 131.334596,15.2429297 L131.334596,25.6029297 L128.430596,25.6029297 L128.430596,15.2029297 C128.430596,12.7549297 127.214596,11.5309297 124.782596,11.5309297 C122.994596,11.5805297 121.296596,12.3236297 120.046596,13.6029297 L120.046596,25.6029297 L117.150596,25.6029297 L117.150596,9.10692969 L119.110596,9.10692969 Z M107.206596,9.09081969 C112.097596,9.09081969 114.539596,10.7921297 114.534604,14.1948297 L114.534604,25.6028297 L112.934596,25.6028297 L111.926596,24.0028297 C110.341596,25.0640297 108.473596,25.6217297 106.566596,25.6028297 C102.651596,25.6028297 100.694596,23.9468297 100.694596,20.6348297 L100.670596,20.5948297 C100.670596,17.2188297 102.894596,15.5308297 107.342596,15.5308297 C108.780596,15.5306297 110.215596,15.6349297 111.638596,15.8428297 L111.638596,14.2908297 C111.638596,12.4028297 110.161596,11.4588297 107.206596,11.4588297 C105.444596,11.4802297 103.693596,11.7495297 102.006596,12.2588297 L102.006596,9.89081969 C103.693596,9.38027969 105.444596,9.11093969 107.206596,9.09081969 Z M98.3985962,9.10696969 L98.3985962,25.6029297 L95.4945962,25.6029297 L95.4945962,9.10696969 L98.3985962,9.10696969 Z M87.5025962,6.40282969 L88.1345962,9.07482969 L92.5825962,9.07482969 L92.5825962,11.4268297 L88.5825962,11.4268297 L88.5825962,20.9148297 C88.5825962,22.4508297 89.2465962,23.2188297 90.5745962,23.2188297 L92.5825962,23.2188297 L92.5825962,25.6028297 L89.8225962,25.6028297 C87.0598962,25.6028297 85.6812962,24.1255297 85.686581,21.1708297 L85.686581,6.40282969 L87.5025962,6.40282969 Z M69.5825962,9.09081969 C74.4785962,9.09081969 76.9238962,10.7948297 76.9186048,14.2028297 L76.9186048,25.6028297 L75.3185962,25.6028297 L74.3185962,24.0028297 C72.7334962,25.0631297 70.8654962,25.6207297 68.9585962,25.6028297 C65.0385962,25.6028297 63.0785962,23.9468297 63.0785962,20.6348297 L63.0465962,20.5948297 C63.0465962,17.2188297 65.2732962,15.5308297 69.7265962,15.5308297 C71.1642962,15.5306297 72.5999962,15.6349297 74.0225962,15.8428297 L74.0225962,14.2908297 C74.0225962,12.4028297 72.5452962,11.4588297 69.5905962,11.4588297 C67.8256962,11.4802297 66.0725962,11.7495297 64.3825962,12.2588297 L64.3825962,9.89081969 C66.0697962,9.38152969 67.8202962,9.11221969 69.5825962,9.09081969 Z M82.7505962,3.14696969 L82.7505962,25.5629297 L79.8545962,25.5629297 L79.8545962,3.14696969 L82.7505962,3.14696969 Z M44.5985962,3.14696969 L44.5985962,13.0189297 L57.8465962,13.0189297 L57.8465962,3.14696969 L60.7425962,3.14696969 L60.7425962,25.5629297 L57.8465962,25.5629297 L57.8465962,15.3709297 L44.5985962,15.3709297 L44.5985962,25.5629297 L41.7025962,25.5629297 L41.7025962,3.14696969 L44.5985962,3.14696969 Z M107.342596,17.8828294 L107.366596,17.9228297 C104.843596,17.9228297 103.585596,18.8108297 103.590581,20.5868297 C103.595596,22.3628297 104.579596,23.2348297 106.542596,23.2028297 C108.373596,23.2613297 110.169596,22.6972297 111.638596,21.6028297 L111.638596,18.1948297 C110.215596,17.9869297 108.780596,17.8826297 107.342596,17.8828294 Z M69.7345962,17.8828297 L69.7585962,17.9228297 C67.2412962,17.9228297 65.9825962,18.8108297 65.9825962,20.5868297 C65.9825962,22.3628297 66.9638962,23.2348297 68.9265962,23.2028297 C70.7573962,23.2613297 72.5537962,22.6972297 74.0225962,21.6028297 L74.0225962,18.1948297 C72.6026962,17.9872297 71.1695962,17.8829297 69.7345962,17.8828297 Z M8.33489618,16.5785297 L4.50289618,23.2025297 L19.7908962,23.2025297 L8.33489618,16.5785297 Z M15.0228962,4.93851969 L9.51089618,14.5385297 L20.9748962,21.1545297 L22.6708962,18.2025297 L15.0228962,4.93851969 Z M98.3985962,3.14696969 L98.3985962,5.89096969 L95.4945962,5.89096969 L95.4945962,3.14696969 L98.3985962,3.14696969 Z"
        id="Combined-Shape" fill="#000000" fill-rule="nonzero"></path>
</svg>