<?xml version="1.0" encoding="UTF-8"?>
<svg id="Layer_2" data-name="Layer 2" xmlns="http://www.w3.org/2000/svg" viewBox="0 0 54.25 44.28">
  <defs>
    <style>
      .cls-1 {
        fill: #fff;
      }

      .cls-2 {
        opacity: .8;
      }
    </style>
  </defs>
  <g id="Layer_1-2" data-name="Layer 1">
    <g id="yläpalkki">
      <g class="cls-2">
        <path class="cls-1" d="m53.77,16.5c-.04-.06-.11-.1-.18-.09-.07,0-.14.05-.16.11-.04.1-.08.22-.12.34-.17.55-.3.87-.94.68,0,0-.01,0-.02,0-.91-.28-1.68-1.27-1.98-1.88-.03-.07-.11-.11-.18-.11-.08,0-.14.06-.17.13-.28.8-.63,1.8-1.37,2.38-.71.55-1.19.63-1.95.32-.74-.3-1.56-.95-2.37-1.58-.42-.33-.83-.65-1.23-.92l.7-3.5c.42-2.07-.8-4.11-2.82-4.73L16.53.18c-.4-.12-.8-.18-1.2-.18-1.61,0-3.13.96-3.78,2.52l-1.27,3.04h0l-2.68,6.43h0L.32,29.45c-.93,2.24.27,4.79,2.58,5.5l29.93,9.15c.4.12.8.18,1.2.18,1.9,0,3.62-1.33,4.01-3.29l4.42-21.99c.05.06.12.14.2.24.64.78,1.96,2.41,3.71,3.42.33.19.69.34,1.05.45,1.25.38,2.58.3,3.38-.04,1.43-.6,2.69-1.94,3.14-3.34.4-1.25.49-2.14-.17-3.24ZM12.33,2.85c.51-1.21,1.68-2,3-2,.32,0,.64.05.95.14l24.45,7.47c1.6.49,2.57,2.1,2.23,3.75l-.63,3.14L11.1,5.81l1.23-2.96Zm17.56,18.3c-1.31-.4-2.69.34-3.09,1.64-.01.05-.02.1-.03.14-.33-.92-.4-1.94-.14-2.95l.53-2.01,8.32,2.54-.92,3.01c-.59,1.94-2.66,3.04-4.6,2.44-.06-.02-.12-.04-.18-.07.8-.21,1.48-.81,1.74-1.66.4-1.31-.34-2.69-1.64-3.09Zm-13.22-4.04c-1.31-.4-2.69.34-3.09,1.64-.17.54-.13,1.09.06,1.58-.76-.92-1.06-2.19-.69-3.42l.92-3.01,8.32,2.54-.69,1.96c-.7,2.01-2.55,3.27-4.56,3.31.63-.28,1.15-.81,1.37-1.53.4-1.31-.34-2.69-1.64-3.09Zm20.53,23.71c-.3,1.51-1.64,2.61-3.18,2.61-.32,0-.64-.05-.95-.14L3.15,34.14c-.89-.27-1.59-.88-1.99-1.72-.4-.84-.42-1.78-.06-2.63l7.32-17.54,4.65,1.42-.92,3.01c-.73,2.39.62,4.93,3.01,5.66.57.17,1.14.26,1.71.26,2.4,0,4.62-1.5,5.45-3.89l.7-2,3.35,1.03-.54,2.04c-.8,3.02.92,6.1,3.91,7.01.44.13.89.2,1.32.2,1.94,0,3.74-1.26,4.34-3.21l.92-3.01,4.65,1.42-3.75,18.64Z"/>
        <path class="cls-1" d="m13.61,26.37l10.77,3.29-.66,2.17c-.06.2.05.41.25.47l2.22.68c.2.06.41-.05.47-.25l.66-2.17,1.43.44.25-.81-15.15-4.63-.25.81Z"/>
      </g>
    </g>
  </g>
</svg>