<?xml version="1.0" encoding="UTF-8"?>
<svg id="Layer_2" data-name="Layer 2" xmlns="http://www.w3.org/2000/svg" viewBox="0 0 391.38 320.25">
  <defs>
    <style>
      .cls-1 {
        fill: #f9c554;
      }

      .cls-2,
      .cls-3 {
        fill: #fff;
      }

      .cls-4 {
        fill: #1c2021;
      }

      .cls-5 {
        fill: #e03842;
      }

      .cls-5,
      .cls-3,
      .cls-6 {
        fill-rule: evenodd;
      }
    </style>
  </defs>
  <g id="Layer_1-2" data-name="Layer 1">
    <g id="new_age_tech_company" data-name="new age tech company">
      <g id="dead">
        <g>
          <path class="cls-6" d="m84.88,234.32l-7.31-4.22v-35.86l7.31,4.22v35.86Z" />
          <path
            d="m84.88,235.17c-.15,0-.29-.04-.42-.11l-7.31-4.22c-.26-.15-.42-.43-.42-.73v-35.86c0-.3.16-.58.42-.73.26-.15.58-.15.85,0l7.31,4.22c.26.15.42.43.42.73v35.86c0,.3-.16.58-.42.73-.13.08-.28.11-.42.11Zm-6.46-5.55l5.62,3.24v-33.91l-5.62-3.24v33.91Z" />
        </g>
        <g>
          <path class="cls-3"
            d="m84.88,198.47l18.47-10.43s2.21,1.27,4.16,2.4c1.82,1.05,2.94,3,2.94,5.1v18.1c0,3.66-1.95,7.05-5.12,8.88-7.47,4.31-20.45,11.81-20.45,11.81v-35.86Z" />
          <path
            d="m84.88,235.17c-.15,0-.29-.04-.42-.11-.26-.15-.42-.43-.42-.73v-35.86c0-.3.16-.59.43-.74l18.47-10.43c.26-.15.58-.15.84,0l4.16,2.4c2.08,1.2,3.37,3.43,3.37,5.83v18.1c0,3.95-2.13,7.63-5.55,9.61l-20.45,11.81c-.13.08-.28.11-.42.11Zm.85-36.21v33.9l19.18-11.07c2.9-1.68,4.7-4.8,4.7-8.15v-18.1c0-1.8-.97-3.47-2.52-4.37l-3.74-2.16-17.62,9.95Z" />
        </g>
        <g>
          <path class="cls-6"
            d="m96.39,203.68v12.55s2.53-1.46,4.36-2.52c1.15-.66,1.85-1.89,1.85-3.21v-4.48c0-.36-.06-.73-.18-1.07-.04-.12-.09-.26-.14-.41-.3-.88-.98-1.57-1.85-1.89s-1.84-.24-2.64.22c-.78.45-1.4.81-1.4.81Z" />
          <path
            d="m96.39,217.08c-.15,0-.29-.04-.42-.11-.26-.15-.42-.43-.42-.73v-12.55c0-.3.16-.58.42-.73l1.4-.81c1.02-.59,2.25-.69,3.36-.28,1.11.41,1.97,1.29,2.35,2.41l.14.41c.15.43.23.89.23,1.34v4.48c0,1.62-.87,3.13-2.28,3.94l-4.36,2.52c-.13.08-.28.11-.42.11Zm.85-12.91v10.6l3.09-1.78c.88-.51,1.43-1.46,1.43-2.48v-4.48c0-.27-.05-.54-.13-.79l-.14-.4c-.22-.64-.71-1.15-1.35-1.38-.63-.24-1.33-.18-1.92.16l-.98.57Z" />
        </g>
        <g>
          <path class="cls-5"
            d="m106.8,190.03h0c-2.26-1.31-5.05-1.31-7.31,0-5.33,3.08-14.62,8.44-14.62,8.44l-7.31-4.22s10.15-5.86,15.32-8.84c1.83-1.06,4.08-1.06,5.91,0,3.25,1.87,8.01,4.62,8.01,4.62Z" />
          <path
            d="m84.88,199.31c-.15,0-.29-.04-.42-.11l-7.31-4.22c-.26-.15-.42-.43-.42-.73s.16-.58.42-.73l15.32-8.84c2.08-1.2,4.67-1.2,6.75,0l8.01,4.62s0,0,0,0c.4.23.54.75.31,1.15-.23.4-.75.54-1.15.31h0c-1.99-1.15-4.47-1.15-6.46,0l-14.62,8.44c-.13.08-.28.11-.42.11Zm-5.62-5.06l5.62,3.24,14.19-8.19c.94-.54,1.96-.88,3.01-1.02l-3.71-2.14c-1.56-.9-3.5-.9-5.06,0l-14.05,8.11Z" />
        </g>
        <g>
          <path class="cls-6"
            d="m100.66,213.82c.4-.23.65-.66.65-1.12s-.25-.89-.65-1.12c-1.82-1.05-4.27-2.47-4.27-2.47v7.17s2.45-1.41,4.27-2.47Z" />
          <path
            d="m96.39,217.13c-.15,0-.29-.04-.42-.11-.26-.15-.42-.43-.42-.73v-7.17c0-.3.16-.58.42-.73.26-.15.58-.15.85,0l4.27,2.47c.66.38,1.07,1.09,1.07,1.85s-.41,1.47-1.07,1.85t0,0l-4.27,2.47c-.13.08-.28.11-.42.11Zm.85-6.55v4.24l3-1.73c.14-.08.22-.23.22-.39s-.09-.31-.22-.39l-3-1.73Zm3.43,3.24h0,0Z" />
        </g>
        <g>
          <path class="cls-6" d="m8.15,278.62l-7.31-4.22v-35.86l7.31,4.22v35.86Z" />
          <path
            d="m8.15,279.47c-.15,0-.29-.04-.42-.11l-7.31-4.22c-.26-.15-.42-.43-.42-.73v-35.86c0-.3.16-.58.42-.73.26-.15.58-.15.85,0l7.31,4.22c.26.15.42.43.42.73v35.86c0,.3-.16.58-.42.73-.13.08-.28.11-.42.11Zm-6.46-5.55l5.62,3.24v-33.91l-5.62-3.24v33.91Z" />
        </g>
        <g>
          <path class="cls-6" d="m26.42,259.64v-35.86l7.31,4.22v35.86l-7.31-4.22Z" />
          <path
            d="m33.73,264.7c-.15,0-.29-.04-.42-.11l-7.31-4.22c-.26-.15-.42-.43-.42-.73v-35.86c0-.3.16-.58.42-.73.26-.15.58-.15.85,0l7.31,4.22c.26.15.42.43.42.73v35.86c0,.3-.16.58-.42.73-.13.08-.28.11-.42.11Zm-6.46-5.55l5.62,3.24v-33.91l-5.62-3.24v33.91Z" />
        </g>
        <g>
          <path class="cls-3"
            d="m8.15,242.76l18.47-10.43s2.21,1.27,4.16,2.4c1.82,1.05,2.94,3,2.94,5.1v18.1c0,3.66-1.95,7.05-5.12,8.88-7.47,4.31-20.45,11.81-20.45,11.81v-35.86Z" />
          <path
            d="m8.15,279.47c-.15,0-.29-.04-.42-.11-.26-.15-.42-.43-.42-.73v-35.86c0-.3.16-.59.43-.74l18.47-10.43c.26-.15.58-.15.84,0l4.16,2.4c2.08,1.2,3.37,3.43,3.37,5.83v18.1c0,3.95-2.13,7.63-5.55,9.61l-20.45,11.81c-.13.08-.28.11-.42.11Zm.85-36.21v33.9l19.18-11.07c2.9-1.68,4.7-4.8,4.7-8.15v-18.1c0-1.8-.97-3.47-2.52-4.37l-3.74-2.16-17.62,9.95Z" />
        </g>
        <g>
          <path class="cls-6" d="m59.3,213.23v35.86l-7.31-4.22v-35.86l7.31,4.22Z" />
          <path
            d="m59.3,249.94c-.15,0-.29-.04-.42-.11l-7.31-4.22c-.26-.15-.42-.43-.42-.73v-35.86c0-.3.16-.58.42-.73.26-.15.58-.15.85,0l7.31,4.22c.26.15.42.43.42.73v35.86c0,.3-.16.58-.42.73-.13.08-.28.11-.42.11Zm-6.46-5.55l5.62,3.24v-33.91l-5.62-3.24v33.91Z" />
        </g>
        <g>
          <path class="cls-3"
            d="m51.99,209.01l7.31,4.22v10.55l-9.13,5.27v4.22l9.13-5.27v8.44l-9.13,5.27v4.22l9.13-5.27v8.44l-25.57,14.77v-35.86l-7.31-4.22,25.57-14.77Z" />
          <path
            d="m33.73,264.7c-.15,0-.29-.04-.42-.11-.26-.15-.42-.43-.42-.73v-35.37l-6.88-3.97c-.26-.15-.42-.43-.42-.73s.16-.58.42-.73l25.57-14.77c.26-.15.58-.15.85,0l7.31,4.22c.26.15.42.43.42.73v10.55c0,.3-.16.58-.42.73l-8.71,5.03v2.27l7.87-4.54c.26-.15.58-.15.85,0,.26.15.42.43.42.73v8.44c0,.3-.16.58-.42.73l-8.71,5.03v2.27l7.87-4.54c.26-.15.58-.15.85,0,.26.15.42.43.42.73v8.44c0,.3-.16.58-.42.73l-25.57,14.77c-.13.08-.28.11-.42.11Zm-5.62-40.92l6.04,3.49c.26.15.42.43.42.73v34.4l23.88-13.79v-6.49l-7.87,4.54c-.26.15-.58.15-.85,0-.26-.15-.42-.43-.42-.73v-4.22c0-.3.16-.58.42-.73l8.71-5.03v-6.49l-7.87,4.54c-.26.15-.58.15-.85,0-.26-.15-.42-.43-.42-.73v-4.22c0-.3.16-.58.42-.73l8.71-5.03v-9.57l-6.46-3.73-23.88,13.79Z" />
        </g>
        <g>
          <path class="cls-3"
            d="m77.57,194.25l7.31,4.22v35.86l-9.13,5.27v-14.77l-7.31,4.22v14.77l-9.13,5.27v-35.86l-7.31-4.22,25.57-14.77Z" />
          <path
            d="m59.3,249.94c-.15,0-.29-.04-.42-.11-.26-.15-.42-.43-.42-.73v-35.37l-6.88-3.97c-.26-.15-.42-.43-.42-.73s.16-.58.42-.73l25.57-14.77c.26-.15.58-.15.85,0l7.31,4.22c.26.15.42.43.42.73v35.86c0,.3-.16.58-.42.73l-9.13,5.27c-.26.15-.58.15-.85,0-.26-.15-.42-.43-.42-.73v-13.3l-5.62,3.24v14.28c0,.3-.16.58-.42.73l-9.13,5.27c-.13.08-.28.11-.42.11Zm-5.62-40.92l6.04,3.49c.26.15.42.43.42.73v34.4l7.44-4.3v-14.28c0-.3.16-.58.42-.73l7.31-4.22c.26-.15.58-.15.85,0,.26.15.42.43.42.73v13.3l7.44-4.3v-34.88l-6.46-3.73-23.88,13.79Z" />
        </g>
        <g>
          <path class="cls-6"
            d="m19.66,247.98v12.55s2.53-1.46,4.36-2.52c1.15-.66,1.85-1.89,1.85-3.21v-4.48c0-.36-.06-.73-.18-1.07-.04-.12-.09-.26-.14-.41-.3-.88-.98-1.57-1.85-1.89s-1.84-.24-2.64.22c-.78.45-1.4.81-1.4.81Z" />
          <path
            d="m19.66,261.38c-.15,0-.29-.04-.42-.11-.26-.15-.42-.43-.42-.73v-12.55c0-.3.16-.58.42-.73l1.4-.81c1.02-.59,2.25-.69,3.36-.28,1.11.41,1.97,1.29,2.35,2.41l.14.41c.15.43.23.89.23,1.34v4.48c0,1.62-.87,3.13-2.28,3.94l-4.36,2.52c-.13.08-.28.11-.42.11Zm.85-12.91v10.6l3.09-1.78c.88-.51,1.43-1.46,1.43-2.48v-4.48c0-.27-.05-.54-.13-.79l-.14-.41c-.22-.64-.71-1.15-1.35-1.38-.63-.24-1.33-.18-1.92.16l-.98.57Z" />
        </g>
        <g>
          <path class="cls-5"
            d="m30.07,234.32h0c-2.26-1.31-5.05-1.31-7.31,0-5.33,3.08-14.62,8.44-14.62,8.44l-7.31-4.22,18.27-10.55,10.96,6.33Z" />
          <path
            d="m8.15,243.61c-.15,0-.29-.04-.42-.11l-7.31-4.22c-.26-.15-.42-.43-.42-.73s.16-.58.42-.73l18.27-10.55c.26-.15.58-.15.85,0l10.96,6.33s0,0,0,0h0c.4.23.54.75.31,1.15-.23.4-.75.54-1.15.31h0c-1.99-1.15-4.47-1.15-6.46,0l-14.62,8.44c-.13.08-.28.11-.42.11Zm-5.62-5.06l5.62,3.24,14.19-8.19c.94-.54,1.96-.88,3.01-1.02l-6.24-3.6-16.58,9.57Z" />
        </g>
        <g>
          <path class="cls-5" d="m84.88,198.47l-25.58,14.77-7.31-4.22,25.57-14.77,7.31,4.22Z" />
          <path
            d="m59.3,214.08c-.15,0-.29-.04-.42-.11l-7.31-4.22c-.26-.15-.42-.43-.42-.73s.16-.58.42-.73l25.57-14.77c.26-.15.58-.15.85,0l7.31,4.22c.26.15.42.43.42.73s-.16.58-.42.73l-25.58,14.77c-.13.08-.28.11-.42.11Zm-5.62-5.06l5.62,3.24,23.89-13.79-5.62-3.24-23.88,13.79Z" />
        </g>
        <g>
          <path class="cls-6" d="m55.65,225.89l3.65,2.11-9.13,5.27v-4.22l5.48-3.16Z" />
          <path
            d="m50.17,234.11c-.15,0-.29-.04-.42-.11-.26-.15-.42-.43-.42-.73v-4.22c0-.3.16-.58.42-.73l5.48-3.16c.26-.15.58-.15.85,0l3.65,2.11c.26.15.42.43.42.73s-.16.58-.42.73l-9.13,5.27c-.13.08-.28.11-.42.11Zm.85-4.58v2.27l6.6-3.81-1.96-1.13-4.63,2.68Z" />
        </g>
        <g>
          <path class="cls-6" d="m59.3,240.65l-3.65-2.11-5.48,3.16v4.22l9.13-5.27Z" />
          <path
            d="m50.17,246.77c-.15,0-.29-.04-.42-.11-.26-.15-.42-.43-.42-.73v-4.22c0-.3.16-.58.42-.73l5.48-3.16c.26-.15.58-.15.85,0l3.65,2.11c.26.15.42.43.42.73s-.16.58-.42.73l-9.13,5.27c-.13.08-.28.11-.42.11Zm.85-4.58v2.27l6.6-3.81-1.96-1.13-4.63,2.68Z" />
        </g>
        <g>
          <path class="cls-6" d="m75.74,224.83l-7.31,4.22,7.31-4.22Z" />
          <path
            d="m68.44,229.9c-.29,0-.58-.15-.73-.42-.08-.13-.11-.28-.11-.42,0-.29.15-.58.42-.73l7.31-4.22c.4-.23.92-.09,1.15.31.08.13.11.28.11.42,0,.29-.15.58-.42.73l-7.31,4.22c-.13.08-.28.11-.42.11Z" />
        </g>
        <g>
          <path class="cls-6" d="m68.44,229.05v6.33l7.31,4.22v-14.77l-7.31,4.22Z" />
          <path
            d="m75.74,240.44c-.15,0-.29-.04-.42-.11l-7.31-4.22c-.26-.15-.42-.43-.42-.73v-6.33c0-.3.16-.58.42-.73l7.31-4.22c.26-.15.58-.15.85,0,.26.15.42.43.42.73v14.77c0,.3-.16.58-.42.73-.13.08-.28.11-.42.11Zm-6.46-5.55l5.62,3.24v-11.84l-5.62,3.24v5.35Z" />
        </g>
        <g>
          <path class="cls-5" d="m59.3,213.23l-7.31-4.22-25.57,14.77,7.31,4.22,25.57-14.77Z" />
          <path
            d="m33.73,228.84c-.15,0-.29-.04-.42-.11l-7.31-4.22c-.26-.15-.42-.43-.42-.73s.16-.58.42-.73l25.57-14.77c.26-.15.58-.15.85,0l7.31,4.22c.26.15.42.43.42.73s-.16.58-.42.73l-25.57,14.77c-.13.08-.28.11-.42.11Zm-5.62-5.06l5.62,3.24,23.88-13.79-5.62-3.24-23.88,13.79Z" />
        </g>
        <g>
          <path class="cls-6" d="m68.44,220.61l7.31-4.22v-4.22l-7.31,4.22v4.22Z" />
          <path
            d="m68.44,221.46c-.15,0-.29-.04-.42-.11-.26-.15-.42-.43-.42-.73v-4.22c0-.3.16-.58.42-.73l7.31-4.22c.26-.15.58-.15.85,0,.26.15.42.43.42.73v4.22c0,.3-.16.58-.42.73l-7.31,4.22c-.13.08-.28.11-.42.11Zm.85-4.58v2.27l5.62-3.24v-2.27l-5.62,3.24Z" />
        </g>
        <g>
          <path class="cls-6"
            d="m23.93,258.07c.4-.23.65-.66.65-1.12s-.25-.89-.65-1.12c-1.82-1.05-4.27-2.47-4.27-2.47v7.17s2.45-1.41,4.27-2.47Z" />
          <path
            d="m19.66,261.38c-.15,0-.29-.04-.42-.11-.26-.15-.42-.43-.42-.73v-7.17c0-.3.16-.58.42-.73.26-.15.58-.15.85,0l4.27,2.47c.66.38,1.07,1.09,1.07,1.85s-.41,1.47-1.07,1.85t0,0l-4.27,2.47c-.13.08-.28.11-.42.11Zm.85-6.55v4.24l3-1.73c.14-.08.22-.23.22-.39s-.09-.31-.22-.39l-3-1.73Zm3.43,3.24h0,0Z" />
        </g>
        <g>
          <path class="cls-6" d="m68.44,220.61l7.31-4.22-3.65-2.11-3.65,2.11v4.22Z" />
          <path
            d="m68.44,221.46c-.15,0-.29-.04-.42-.11-.26-.15-.42-.43-.42-.73v-4.22c0-.3.16-.58.42-.73l3.65-2.11c.26-.15.58-.15.85,0l3.65,2.11c.26.15.42.43.42.73s-.16.58-.42.73l-7.31,4.22c-.13.08-.28.11-.42.11Zm.85-4.58v2.27l4.77-2.75-1.96-1.13-2.81,1.62Z" />
        </g>
        <g>
          <path class="cls-5"
            d="m106.8,190.03h0c-2.26-1.31-5.05-1.31-7.31,0-5.33,3.08-14.62,8.44-14.62,8.44l-7.31-4.22,18.27-10.55,10.96,6.33Z" />
          <path
            d="m84.88,199.31c-.15,0-.29-.04-.42-.11l-7.31-4.22c-.26-.15-.42-.43-.42-.73s.16-.58.42-.73l18.27-10.55c.26-.15.58-.15.85,0l10.96,6.33s0,0,0,0h0c.4.23.54.75.31,1.15-.23.4-.75.54-1.15.31-1.99-1.15-4.47-1.15-6.46,0l-14.62,8.44c-.13.08-.28.11-.42.11Zm-5.62-5.06l5.62,3.24,14.19-8.19c.94-.54,1.96-.88,3.01-1.02l-6.24-3.6-16.58,9.57Z" />
        </g>
      </g>
      <g id="set">
        <g>
          <path class="cls-6"
            d="m119.17,178.68c0-3.17,1.69-6.09,4.43-7.68,8.97-5.18,28.45-16.43,28.45-16.43l7.31,4.22s-24.15,13.94-31.06,17.93c-.38.22-.61.62-.61,1.05s.23.84.61,1.05h0v10.55s-3.64-2.1-6.32-3.65c-1.74-1.01-2.81-2.86-2.81-4.87v-2.18Z" />
          <path
            d="m128.31,190.22c-.15,0-.29-.04-.42-.11l-6.32-3.65c-2-1.15-3.24-3.3-3.24-5.61v-2.18c0-3.46,1.86-6.68,4.86-8.41l28.45-16.43c.26-.15.58-.15.85,0l7.31,4.22c.26.15.42.43.42.73s-.16.58-.42.73l-31.06,17.93c-.12.07-.19.19-.19.32s.07.26.19.32c.26.15.42.43.42.73v10.55c0,.3-.16.58-.42.73-.13.08-.28.11-.42.11Zm23.75-34.67l-28.03,16.18c-2.47,1.43-4.01,4.09-4.01,6.95v2.18c0,1.7.92,3.29,2.39,4.14l5.05,2.92v-8.67c-.38-.38-.61-.91-.61-1.46,0-.74.4-1.42,1.03-1.79l29.79-17.2-5.62-3.24Z" />
        </g>
        <g>
          <path class="cls-6" d="m199.55,171.45l-7.31-4.22v-16.88l7.31-4.22v25.31Z" />
          <path
            d="m199.55,172.29c-.15,0-.29-.04-.42-.11l-7.31-4.22c-.26-.15-.42-.43-.42-.73v-16.88c0-.3.16-.58.42-.73l7.31-4.22c.26-.15.58-.15.85,0,.26.15.42.43.42.73v25.31c0,.3-.16.58-.42.73-.13.08-.28.11-.42.11Zm-6.46-5.55l5.62,3.24v-22.39l-5.62,3.24v15.9Z" />
        </g>
        <g>
          <path class="cls-3"
            d="m188.59,141.92l32.88-18.98v14.77l-9.13,5.27v21.09l-12.79,7.38v-21.09l-10.96,6.33v-14.77Z" />
          <path
            d="m199.55,172.29c-.15,0-.29-.04-.42-.11-.26-.15-.42-.43-.42-.73v-19.63l-9.69,5.6c-.26.15-.58.15-.85,0-.26-.15-.42-.43-.42-.73v-14.77c0-.3.16-.58.42-.73l32.88-18.98c.26-.15.58-.15.85,0,.26.15.42.43.42.73v14.77c0,.3-.16.58-.42.73l-8.71,5.03v20.61c0,.3-.16.58-.42.73l-12.79,7.38c-.13.08-.28.11-.42.11Zm0-22.78c.15,0,.29.04.42.11.26.15.42.43.42.73v19.63l11.1-6.41v-20.61c0-.3.16-.58.42-.73l8.71-5.03v-12.81l-31.19,18.01v12.81l9.69-5.6c.13-.08.28-.11.42-.11Z" />
        </g>
        <g>
          <path class="cls-5" d="m221.47,122.93l-7.31-4.22-32.88,18.98,7.31,4.22,32.88-18.98Z" />
          <path
            d="m188.59,142.76c-.15,0-.29-.04-.42-.11l-7.31-4.22c-.26-.15-.42-.43-.42-.73s.16-.58.42-.73l32.88-18.98c.26-.15.58-.15.85,0l7.31,4.22c.26.15.42.43.42.73s-.16.58-.42.73l-32.88,18.98c-.13.08-.28.11-.42.11Zm-5.62-5.06l5.62,3.24,31.19-18.01-5.62-3.24-31.19,18.01Z" />
        </g>
        <g>
          <path class="cls-6" d="m188.59,156.68v-14.77l-7.31-4.22v14.77l7.31,4.22Z" />
          <path
            d="m188.59,157.53c-.15,0-.29-.04-.42-.11l-7.31-4.22c-.26-.15-.42-.43-.42-.73v-14.77c0-.3.16-.58.42-.73.26-.15.58-.15.85,0l7.31,4.22c.26.15.42.43.42.73v14.77c0,.3-.16.58-.42.73-.13.08-.28.11-.42.11Zm-6.46-5.55l5.62,3.24v-12.81l-5.62-3.24v12.81Z" />
        </g>
        <g>
          <path class="cls-3"
            d="m181.29,137.7l7.31,4.22v10.55l-10.96,6.33v4.22l8.02-4.63,2.94-1.7v8.44l-10.96,6.33v4.22l10.96-6.33v8.44l-29.23,16.88v-35.86l-7.31-4.22,29.23-16.88Z" />
          <path
            d="m159.36,195.5c-.15,0-.29-.04-.42-.11-.26-.15-.42-.43-.42-.73v-35.37l-6.89-3.97c-.26-.15-.42-.43-.42-.73s.16-.58.42-.73l29.23-16.87c.26-.15.58-.15.85,0l7.31,4.22c.26.15.42.43.42.73v10.55c0,.3-.16.58-.42.73l-10.54,6.08v2.27l9.69-5.6c.26-.15.58-.15.85,0,.26.15.42.43.42.73v8.44c0,.3-.16.58-.42.73l-10.54,6.08v2.27l9.69-5.6c.26-.15.58-.15.85,0,.26.15.42.43.42.73v8.44c0,.3-.16.58-.42.73l-29.23,16.88c-.13.08-.28.11-.42.11Zm-5.62-40.92l6.04,3.49c.26.15.42.43.42.73v34.4l27.54-15.9v-6.49l-9.69,5.6c-.26.15-.58.15-.85,0-.26-.15-.42-.43-.42-.73v-4.22c0-.3.16-.58.42-.73l10.54-6.08v-6.49l-9.69,5.6c-.26.15-.58.15-.85,0-.26-.15-.42-.43-.42-.73v-4.22c0-.3.16-.58.42-.73l10.54-6.08v-9.57l-6.46-3.73-27.54,15.9Z" />
        </g>
        <g>
          <path class="cls-6" d="m184.94,154.57l3.65,2.11-10.96,6.33v-4.22l7.31-4.22Z" />
          <path
            d="m177.63,163.86c-.15,0-.29-.04-.42-.11-.26-.15-.42-.43-.42-.73v-4.22c0-.3.16-.58.42-.73l7.31-4.22c.26-.15.58-.15.85,0l3.65,2.11c.26.15.42.43.42.73s-.16.58-.42.73l-10.96,6.33c-.13.08-.28.11-.42.11Zm.85-4.58v2.27l8.43-4.86-1.96-1.13-6.46,3.73Z" />
        </g>
        <g>
          <path class="cls-6" d="m188.59,169.34l-3.65-2.11-7.31,4.22v4.22l10.96-6.33Z" />
          <path
            d="m177.63,176.51c-.15,0-.29-.04-.42-.11-.26-.15-.42-.43-.42-.73v-4.22c0-.3.16-.58.42-.73l7.31-4.22c.26-.15.58-.15.85,0l3.65,2.11c.26.15.42.43.42.73s-.16.58-.42.73l-10.96,6.33c-.13.08-.28.11-.42.11Zm.85-4.58v2.27l8.43-4.86-1.96-1.13-6.46,3.73Z" />
        </g>
        <g>
          <path class="cls-5" d="m188.59,141.92l-7.31-4.22-29.23,16.88,7.31,4.22,29.23-16.88Z" />
          <path
            d="m159.36,159.64c-.15,0-.29-.04-.42-.11l-7.31-4.22c-.26-.15-.42-.43-.42-.73s.16-.58.42-.73l29.23-16.87c.26-.15.58-.15.85,0l7.31,4.22c.26.15.42.43.42.73s-.16.58-.42.73l-29.23,16.87c-.13.08-.28.11-.42.11Zm-5.62-5.06l5.62,3.24,27.54-15.9-5.62-3.24-27.54,15.9Z" />
        </g>
        <g>
          <path class="cls-6" d="m159.36,194.65l-7.31-4.22v-35.86l7.31,4.22v35.86Z" />
          <path
            d="m159.36,195.5c-.15,0-.29-.04-.42-.11l-7.31-4.22c-.26-.15-.42-.43-.42-.73v-35.86c0-.3.16-.58.42-.73.26-.15.58-.15.85,0l7.31,4.22c.26.15.42.43.42.73v35.86c0,.3-.16.58-.42.73-.13.08-.28.11-.42.11Zm-6.46-5.55l5.62,3.24v-33.91l-5.62-3.24v33.91Z" />
        </g>
        <g>
          <path class="cls-5" d="m130.13,190.43l-10.96,6.33,7.31,4.22,10.96-6.33-7.31-4.22Z" />
          <path
            d="m126.48,201.82c-.15,0-.29-.04-.42-.11l-7.31-4.22c-.26-.15-.42-.43-.42-.73s.16-.58.42-.73l10.96-6.33c.26-.15.58-.15.85,0l7.31,4.22c.26.15.42.43.42.73s-.16.58-.42.73l-10.96,6.33c-.13.08-.28.11-.42.11Zm-5.62-5.06l5.62,3.24,9.27-5.35-5.62-3.24-9.27,5.35Z" />
        </g>
        <g>
          <path class="cls-6" d="m119.17,209.42v-12.66l7.31,4.22v12.66l-7.31-4.22Z" />
          <path
            d="m126.48,214.48c-.15,0-.29-.04-.42-.11l-7.31-4.22c-.26-.15-.42-.43-.42-.73v-12.66c0-.3.16-.58.42-.73.26-.15.58-.15.85,0l7.31,4.22c.26.15.42.43.42.73v12.66c0,.3-.16.58-.42.73-.13.08-.28.11-.42.11Zm-6.46-5.55l5.62,3.24v-10.7l-5.62-3.24v10.7Z" />
        </g>
        <path class="cls-5"
          d="m119.17,178.02c0-2.76,1.47-5.32,3.87-6.7h0l7.19,4.29h0c-2.26,1.3-3.48,3.86-3.07,6.43.52,3.31,1.15,7.33,1.15,7.33,0,0-3.64-2.1-6.32-3.65-1.74-1.01-2.81-2.86-2.81-4.87v-2.83Z" />
        <path
          d="m128.31,190.22c-.15,0-.29-.04-.42-.11l-6.32-3.65c-2-1.15-3.24-3.3-3.24-5.61v-2.18c0-3.46,1.86-6.68,4.86-8.41l28.45-16.43c.26-.15.58-.15.85,0l7.31,4.22c.26.15.42.43.42.73s-.16.58-.42.73l-27.61,15.94c-2.85,1.65-4.42,4.94-3.91,8.19l.88,5.59c.05.32-.09.64-.36.83-.14.1-.31.15-.48.15Zm23.75-34.67l-28.03,16.18c-2.47,1.43-4.01,4.09-4.01,6.95v2.18c0,1.7.92,3.29,2.39,4.14l4.79,2.76-.61-3.84c-.62-3.94,1.28-7.93,4.74-9.92l26.34-15.21-5.62-3.24Z" />
        <g>
          <path class="cls-3"
            d="m126.48,200.98s4.07-2.35,7.25-4.19c.76-.44,1.24-1.26,1.24-2.14s-.47-1.7-1.24-2.14c-1.37-.79-2.9-1.67-4.2-2.43-1.89-1.09-3.05-3.1-3.05-5.28v-1.91c0-3.17,1.69-6.09,4.43-7.68,8.97-5.18,28.45-16.43,28.45-16.43v12.66s-4.07,2.35-7.25,4.19c-.76.44-1.24,1.26-1.24,2.14s.47,1.7,1.24,2.14c1.37.79,2.9,1.67,4.2,2.43,1.89,1.09,3.05,3.1,3.05,5.28v7.03l-32.88,18.98v-12.66Z" />
          <path
            d="m126.48,214.48c-.15,0-.29-.04-.42-.11-.26-.15-.42-.43-.42-.73v-12.66c0-.3.16-.58.42-.73l7.25-4.19c.5-.29.81-.83.81-1.41s-.31-1.12-.81-1.41l-4.2-2.43c-2.14-1.24-3.47-3.54-3.47-6.01v-1.91c0-3.46,1.86-6.68,4.86-8.41l28.45-16.43c.26-.15.58-.15.85,0,.26.15.42.43.42.73v12.66c0,.3-.16.58-.42.73l-7.25,4.19c-.5.29-.81.83-.81,1.41s.31,1.12.81,1.41l4.2,2.43c2.14,1.24,3.47,3.54,3.47,6.01v7.03c0,.3-.16.58-.42.73l-32.88,18.98c-.13.08-.28.11-.42.11Zm.85-13.01v10.7l31.19-18.01v-6.54c0-1.87-1.01-3.62-2.63-4.55l-4.2-2.43c-1.02-.59-1.66-1.69-1.66-2.87s.64-2.28,1.66-2.87l6.83-3.94v-10.7l-27.18,15.69c-2.47,1.43-4.01,4.09-4.01,6.95v1.91c0,1.87,1.01,3.62,2.63,4.55l4.2,2.43c1.02.59,1.66,1.69,1.66,2.87s-.64,2.28-1.66,2.87l-6.83,3.94Z" />
        </g>
      </g>
      <g id="bit">
        <g>
          <path class="cls-3" d="m299.62,115.29v-16.88l-21.01,12.13v16.88l21.01-12.13Z" />
          <path
            d="m278.61,128.27c-.15,0-.29-.04-.42-.11-.26-.15-.42-.43-.42-.73v-16.87c0-.3.16-.58.42-.73l21.01-12.13c.26-.15.58-.15.85,0,.26.15.42.43.42.73v16.88c0,.3-.16.58-.42.73l-21.01,12.13c-.13.08-.28.11-.42.11Zm.85-17.23v14.92l19.32-11.15v-14.92l-19.32,11.15Zm20.16,4.26h0,0Z" />
        </g>
        <g>
          <path class="cls-6" d="m310.58,108.96l-7.31-4.22v-16.88l7.31-4.22v25.31Z" />
          <path
            d="m310.58,109.81c-.15,0-.29-.04-.42-.11l-7.31-4.22c-.26-.15-.42-.43-.42-.73v-16.87c0-.3.16-.58.42-.73l7.31-4.22c.26-.15.58-.15.85,0,.26.15.42.43.42.73v25.31c0,.3-.16.58-.42.73-.13.08-.28.11-.42.11Zm-6.46-5.55l5.62,3.24v-22.39l-5.62,3.24v15.9Z" />
        </g>
        <g>
          <path class="cls-6" d="m299.61,94.2v-14.77l-7.31-4.22v14.77l7.31,4.22Z" />
          <path
            d="m299.61,95.04c-.15,0-.29-.04-.42-.11l-7.31-4.22c-.26-.15-.42-.43-.42-.73v-14.77c0-.3.16-.58.42-.73.26-.15.58-.15.85,0l7.31,4.22c.26.15.42.43.42.73v14.77c0,.3-.16.58-.42.73-.13.08-.28.11-.42.11Zm-6.46-5.55l5.62,3.24v-12.81l-5.62-3.24v12.81Z" />
        </g>
        <g>
          <path class="cls-3"
            d="m299.61,79.43l32.88-18.98v14.77l-9.13,5.27v21.09l-12.79,7.38v-21.09l-10.96,6.33v-14.77Z" />
          <path
            d="m310.58,109.81c-.15,0-.29-.04-.42-.11-.26-.15-.42-.43-.42-.73v-19.63l-9.69,5.6c-.26.15-.58.15-.85,0-.26-.15-.42-.43-.42-.73v-14.77c0-.3.16-.58.42-.73l32.88-18.98c.26-.15.58-.15.85,0,.26.15.42.43.42.73v14.77c0,.3-.16.58-.42.73l-8.71,5.03v20.61c0,.3-.16.58-.42.73l-12.79,7.38c-.13.08-.28.11-.42.11Zm0-22.78c.15,0,.29.04.42.11.26.15.42.43.42.73v19.63l11.1-6.41v-20.61c0-.3.16-.58.42-.73l8.71-5.03v-12.81l-31.19,18.01v12.81l9.69-5.6c.13-.08.28-.11.42-.11Z" />
        </g>
        <g>
          <path class="cls-5" d="m332.5,60.45l-7.31-4.22-32.88,18.98,7.31,4.22,32.88-18.98Z" />
          <path
            d="m299.61,80.28c-.15,0-.29-.04-.42-.11l-7.31-4.22c-.26-.15-.42-.43-.42-.73s.16-.58.42-.73l32.88-18.98c.26-.15.58-.15.85,0l7.31,4.22c.26.15.42.43.42.73s-.16.58-.42.73l-32.88,18.98c-.13.08-.28.11-.42.11Zm-5.62-5.06l5.62,3.24,31.19-18.01-5.62-3.24-31.19,18.01Z" />
        </g>
        <g>
          <path class="cls-6" d="m278.61,127.42l-7.31-4.22v-16.88l7.31,4.22v16.88Z" />
          <path
            d="m278.61,128.27c-.15,0-.29-.04-.42-.11l-7.31-4.22c-.26-.15-.42-.43-.42-.73v-16.88c0-.3.16-.58.42-.73.26-.15.58-.15.85,0l7.31,4.22c.26.15.42.43.42.73v16.87c0,.3-.16.58-.42.73-.13.08-.28.11-.42.11Zm-6.46-5.55l5.62,3.24v-14.92l-5.62-3.24v14.92Z" />
        </g>
        <g>
          <path class="cls-6" d="m299.62,98.42l-21.01,12.13-7.31-4.22,21.01-12.13,7.31,4.22Z" />
          <path
            d="m278.61,111.39c-.15,0-.29-.04-.42-.11l-7.31-4.22c-.26-.15-.42-.43-.42-.73s.16-.58.42-.73l21.01-12.13c.26-.15.58-.15.85,0l7.31,4.22c.26.15.42.43.42.73s-.16.58-.42.73l-21.01,12.13c-.13.08-.28.11-.42.11Zm-5.62-5.06l5.62,3.24,19.32-11.15-5.62-3.24-19.32,11.15Z" />
        </g>
        <g>
          <path class="cls-6" d="m278.61,106.33l-2.91-1.68-4.4-2.54v-14.77l7.31,4.22v14.77Z" />
          <path
            d="m278.61,107.17c-.15,0-.29-.04-.42-.11l-7.31-4.22c-.26-.15-.42-.43-.42-.73v-14.77c0-.3.16-.58.42-.73.26-.15.58-.15.85,0l7.31,4.22c.26.15.42.43.42.73v14.77c0,.3-.16.58-.42.73-.13.08-.28.11-.42.11Zm-6.46-5.55l5.62,3.24v-12.81l-5.62-3.24v12.81Z" />
        </g>
        <g>
          <path class="cls-3" d="m278.61,106.33l21.01-12.13v-14.77l-21.01,12.13v14.77Z" />
          <path
            d="m278.61,107.17c-.15,0-.29-.04-.42-.11-.26-.15-.42-.43-.42-.73v-14.77c0-.3.16-.58.42-.73l21.01-12.13c.26-.15.58-.15.85,0,.26.15.42.43.42.73v14.77c0,.3-.16.58-.42.73l-21.01,12.13c-.13.08-.28.11-.42.11Zm.85-15.12v12.81l19.32-11.15v-12.81l-19.32,11.15Z" />
        </g>
        <g>
          <path class="cls-5" d="m278.61,91.56l-7.31-4.22,21.01-12.13,7.31,4.22-21.01,12.13Z" />
          <path
            d="m278.61,92.41c-.15,0-.29-.04-.42-.11l-7.31-4.22c-.26-.15-.42-.43-.42-.73s.16-.58.42-.73l21.01-12.13c.26-.15.58-.15.85,0l7.31,4.22c.26.15.42.43.42.73s-.16.58-.42.73l-21.01,12.13c-.13.08-.28.11-.42.11Zm-5.62-5.06l5.62,3.24,19.32-11.15-5.62-3.24-19.32,11.15Z" />
        </g>
        <g>
          <path class="cls-6" d="m230.2,146.93l7.31,4.22v-35.86l-7.31-4.22v35.86Z" />
          <path
            d="m237.5,152c-.15,0-.29-.04-.42-.11l-7.31-4.22c-.26-.15-.42-.43-.42-.73v-35.86c0-.3.16-.58.42-.73.26-.15.58-.15.85,0l7.31,4.22c.26.15.42.43.42.73v35.86c0,.3-.16.58-.42.73-.13.08-.28.11-.42.11Zm-6.46-5.55l5.62,3.24v-33.91l-5.62-3.24v33.91Z" />
        </g>
        <g>
          <path class="cls-5" d="m267.65,97.89l-30.14,17.4-7.31-4.22,30.14-17.4,7.31,4.22Z" />
          <path
            d="m237.5,116.14c-.15,0-.29-.04-.42-.11l-7.31-4.22c-.26-.15-.42-.43-.42-.73s.16-.58.42-.73l30.14-17.4c.26-.15.58-.15.85,0l7.31,4.22c.26.15.42.43.42.73s-.16.58-.42.73l-30.14,17.4c-.13.08-.28.11-.42.11Zm-5.62-5.06l5.62,3.24,28.45-16.43-5.62-3.24-28.45,16.43Z" />
        </g>
        <g>
          <path class="cls-3"
            d="m267.65,97.89s.68.39,1.71.99c2.38,1.38,4.08,3.68,4.68,6.37.6,2.68.05,5.5-1.51,7.76-.73,1.05-1.22,1.77-1.22,1.77h0c3.02,1.74,4.87,4.96,4.87,8.44s-1.86,6.7-4.87,8.44c-14.25,8.23-33.8,19.51-33.8,19.51v-35.86l30.14-17.4Z" />
          <path
            d="m237.5,152c-.15,0-.29-.04-.42-.11-.26-.15-.42-.43-.42-.73v-35.86c0-.3.16-.58.42-.73l30.14-17.4c.26-.15.58-.15.84,0,0,0,.68.39,1.71.99,2.58,1.49,4.43,4.01,5.08,6.91.65,2.91.05,5.98-1.64,8.42l-.72,1.04c2.81,1.97,4.52,5.21,4.52,8.68,0,3.77-2.03,7.28-5.29,9.17l-33.8,19.51c-.13.08-.28.11-.42.11Zm.85-36.22v33.91l32.53-18.78c2.74-1.58,4.45-4.54,4.45-7.7s-1.7-6.12-4.45-7.71c-.2-.12-.35-.32-.4-.55-.05-.23,0-.47.13-.67l1.22-1.77c1.43-2.06,1.93-4.64,1.38-7.09-.55-2.45-2.11-4.57-4.28-5.82-.54-.31-.98-.57-1.28-.74l-29.3,16.91Z" />
        </g>
        <g>
          <path class="cls-6"
            d="m261.9,115.03c.39-.45.41-1.08.31-1.66-.1-.59-.45-1.1-.97-1.39h0c-.74-.43-1.66-.43-2.4,0-.94.54-2.09,1.21-2.09,1.21v5.06s2.77-1.6,3.91-2.26c.24-.14.47-.29.68-.46.18-.14.36-.3.56-.49Z" />
          <path
            d="m256.76,119.08c-.15,0-.29-.04-.42-.11-.26-.15-.42-.43-.42-.73v-5.06c0-.3.16-.58.42-.73l2.09-1.2c1-.58,2.25-.58,3.25,0,.73.42,1.24,1.15,1.38,1.98.17.99,0,1.78-.51,2.36-.02.02-.04.04-.05.06-.2.19-.4.37-.61.54-.23.19-.49.36-.79.54l-3.91,2.26c-.13.08-.28.11-.42.11Zm.85-5.42v3.11l2.64-1.53c.22-.13.4-.25.57-.39.16-.13.32-.27.47-.41.17-.23.15-.64.1-.95-.06-.34-.26-.63-.56-.8-.48-.28-1.08-.28-1.56,0l-1.66.96Zm4.3,1.37h0,0Z" />
        </g>
        <g>
          <path class="cls-6"
            d="m263.37,126.12c.52-.65.65-1.39.52-2.16-.13-.77-.59-1.43-1.26-1.82t0,0c-.97-.56-2.17-.56-3.14,0-1.23.71-2.73,1.58-2.73,1.58v6.62s3.82-2.21,5.23-3.02c.94-.65,1.19-.97,1.39-1.2Z" />
          <path
            d="m256.76,131.18c-.15,0-.29-.04-.42-.11-.26-.15-.42-.43-.42-.73v-6.62c0-.3.16-.58.42-.73l2.73-1.58c1.23-.71,2.76-.71,3.99,0,.01,0,.02.01.03.02.88.52,1.47,1.39,1.64,2.39.18,1.06-.06,2.04-.7,2.83,0,.01-.02.02-.03.03l-.05.05c-.22.25-.55.62-1.49,1.28-.02.01-.04.03-.06.04-1.4.81-5.22,3.02-5.22,3.02-.13.08-.28.11-.42.11Zm.85-6.98v4.67c1.23-.71,3.03-1.75,3.93-2.27.75-.53.99-.79,1.16-.99l.04-.04c.33-.41.43-.88.34-1.47-.09-.52-.4-.97-.85-1.23,0,0-.02,0-.02-.01-.7-.4-1.57-.39-2.28.01l-2.31,1.33Zm5.77,1.92h0,0Z" />
        </g>
        <g>
          <path class="cls-6" d="m256.76,113.27l4.36,2.38-4.36,2.58v-4.97Z" />
          <path
            d="m256.76,119.08c-.14,0-.29-.04-.42-.11-.26-.15-.43-.43-.43-.73v-4.97c0-.3.16-.57.41-.73.26-.15.57-.16.84-.01l4.36,2.38c.27.15.43.42.44.73,0,.3-.15.59-.41.74l-4.36,2.58c-.13.08-.28.12-.43.12Zm.85-4.38v2.06l1.8-1.07-1.8-.99Z" />
        </g>
        <g>
          <path class="cls-6" d="m256.76,130.33v-6.62l5.73,3.23-5.73,3.39Z" />
          <path
            d="m256.76,131.18c-.14,0-.29-.04-.42-.11-.26-.15-.43-.43-.43-.73v-6.62c0-.3.16-.58.42-.73.26-.15.58-.15.84,0l5.73,3.23c.26.15.43.43.43.73s-.16.58-.42.74l-5.73,3.39c-.13.08-.28.12-.43.12Zm.85-6.02v3.69l3.2-1.89-3.2-1.8Z" />
        </g>
      </g>
      <g>
        <g>
          <path class="cls-1"
            d="m376.73,116.05c-.41,0-.82-.16-1.12-.47l-2.75-2.75c-.3-.3-.47-.7-.47-1.12v-9.4l-6.4-13.57c-.36-.75-.07-1.65.66-2.06l5.26-2.97c.24-.14.51-.2.78-.2.41,0,.82.16,1.12.47l2.75,2.75c.16.16.29.35.36.57l.02.06,1.83-6.96c.11-.42.38-.77.76-.98l5.14-2.9c.24-.14.51-.2.78-.2.41,0,.82.16,1.12.47l2.75,2.75c.42.42.57,1.03.4,1.59l-6.48,21.06v9.51c0,.57-.31,1.1-.81,1.38l-4.92,2.77c-.24.14-.51.2-.78.2Z" />
          <path class="cls-4"
            d="m385.45,77.9l2.75,2.75-6.55,21.28v9.75l-4.92,2.77-2.75-2.75v-9.75l-6.55-13.89,5.26-2.97,2.75,2.75,1.78,4.76c.39-1.48.77-2.93,1.15-4.44l1.94-7.38,5.14-2.9m0-3.18c-.53,0-1.07.13-1.56.41l-5.14,2.9c-.75.42-1.29,1.13-1.51,1.96l-1.08,4.09-1.23-1.23c-.61-.61-1.42-.93-2.25-.93-.53,0-1.07.13-1.56.41l-5.26,2.97c-1.45.82-2.02,2.62-1.31,4.12l6.25,13.25v9.04c0,.84.33,1.65.93,2.25l2.75,2.75c.61.61,1.43.93,2.25.93.53,0,1.07-.13,1.56-.41l4.92-2.77c1-.56,1.62-1.62,1.62-2.77v-9.27l6.41-20.83c.35-1.12.04-2.35-.79-3.18l-2.75-2.75c-.61-.61-1.42-.93-2.25-.93h0Z" />
        </g>
        <g>
          <path class="cls-1"
            d="m60.26,294.45c-.41,0-.82-.16-1.12-.46l-2.75-2.75c-.24-.24-.39-.54-.45-.87l-4.04-25.06c-.11-.66.21-1.31.79-1.64l5.04-2.84c.24-.14.51-.2.78-.2.41,0,.82.16,1.12.46l2.61,2.61c.26-1.55.54-3.29.86-5.22.08-.47.37-.89.79-1.12l4.17-2.35c.24-.14.51-.2.78-.2.41,0,.82.16,1.12.47l2.75,2.75s.08.09.12.13c.31-2.79.57-5.17.59-5.41.06-.51.35-.96.8-1.21l4.7-2.65c.24-.14.51-.2.78-.2.41,0,.82.16,1.12.47l2.75,2.75c.35.35.52.84.45,1.33l-3.86,29.52c-.07.5-.36.93-.79,1.18l-6.18,3.49c-.24.14-.51.2-.78.2-.41,0-.82-.16-1.12-.46l-2.6-2.6-.78,5.14c-.07.48-.36.91-.79,1.15l-6.07,3.42c-.24.14-.51.2-.78.2Z" />
          <path class="cls-4"
            d="m79.71,250.26l2.75,2.75-3.86,29.52-6.18,3.49-2.75-2.75-1.33-7-2,13.18-6.07,3.42-2.75-2.75-4.04-25.06,5.04-2.84,2.75,2.75,1.03,8.16c.01-.1,2.38-14.39,2.38-14.39l4.17-2.35,2.75,2.75,1.78,8.71c.04-.44,1.63-14.93,1.63-14.93l4.7-2.65m0-3.18c-.53,0-1.07.13-1.56.41l-4.7,2.65c-.89.5-1.49,1.4-1.6,2.42-.03.3-.12,1.07-.23,2.1l-.53-.53c-.61-.61-1.42-.93-2.25-.93-.53,0-1.07.13-1.56.41l-4.17,2.35c-.84.47-1.42,1.3-1.57,2.25-.13.76-.25,1.49-.36,2.17l-.42-.42c-.61-.61-1.42-.93-2.25-.93-.53,0-1.07.13-1.56.41l-5.04,2.84c-1.16.65-1.79,1.96-1.58,3.27l4.04,25.06c.11.66.42,1.27.89,1.74l2.75,2.75c.61.61,1.43.93,2.25.93.53,0,1.07-.13,1.56-.41l6.07-3.42c.85-.48,1.43-1.32,1.58-2.29l.31-2.04.38.38c.61.61,1.43.93,2.25.93.53,0,1.07-.13,1.56-.41l6.18-3.49c.87-.49,1.46-1.36,1.59-2.35l3.86-29.52c.13-.98-.21-1.96-.9-2.66l-2.75-2.75c-.61-.61-1.42-.93-2.25-.93h0Z" />
        </g>
        <g>
          <path class="cls-1"
            d="m133.32,253.27c-.41,0-.82-.16-1.12-.47l-2.75-2.75c-.3-.3-.47-.7-.47-1.12v-27.34c0-.57.31-1.1.81-1.38l13.63-7.69c.24-.14.51-.2.78-.2.41,0,.82.16,1.12.47l2.75,2.75c.3.3.47.7.47,1.12v5.18c0,.57-.31,1.1-.81,1.38l-2.98,1.68,2.03,2.03c.3.3.47.7.47,1.12v5.18c0,.57-.31,1.1-.81,1.38l-.58.32,2.55,2.55c.3.3.47.7.47,1.12v5.18c0,.57-.31,1.1-.81,1.38l-13.96,7.87c-.24.14-.51.2-.78.2Z" />
          <path class="cls-4"
            d="m144.2,213.9l2.75,2.75v5.18l-8.71,4.91v1.19l4.67-2.63,2.75,2.75v5.18l-7.42,4.18v2l6.3-3.55,2.75,2.75v5.18l-13.97,7.87-2.75-2.75v-27.34l13.63-7.68m0-3.18c-.53,0-1.07.13-1.56.41l-13.63,7.68c-1,.56-1.62,1.62-1.62,2.77v27.34c0,.84.33,1.65.93,2.25l2.75,2.75c.61.61,1.42.93,2.25.93.53,0,1.07-.13,1.56-.41l13.97-7.87c1-.56,1.62-1.62,1.62-2.77v-5.18c0-.84-.33-1.65-.93-2.25l-1.29-1.29c.38-.53.59-1.17.59-1.84v-5.18c0-.84-.33-1.65-.93-2.25l-.55-.55,1.16-.65c1-.56,1.62-1.62,1.62-2.77v-5.18c0-.84-.33-1.65-.93-2.25l-2.75-2.75c-.61-.61-1.43-.93-2.25-.93h0Z" />
        </g>
        <g>
          <path class="cls-1"
            d="m215.92,206.7c-.41,0-.82-.16-1.12-.47l-2.75-2.75c-.3-.3-.47-.7-.47-1.12v-27.34c0-.57.31-1.1.81-1.38l4.92-2.77c.24-.14.51-.2.78-.2.41,0,.82.16,1.12.47l2.75,2.75c.3.3.47.7.47,1.12v3.52l1.58-.89v-9.61c0-.57.31-1.1.81-1.38l4.92-2.77c.24-.14.51-.2.78-.2.41,0,.82.16,1.12.46l2.75,2.75c.3.3.47.7.47,1.12v27.34c0,.57-.31,1.1-.81,1.38l-4.92,2.77c-.24.14-.51.2-.78.2-.41,0-.82-.16-1.12-.47l-2.75-2.75c-.3-.3-.47-.7-.47-1.12v-4.4l-1.58.89v10.49c0,.57-.31,1.1-.81,1.38l-4.92,2.77c-.24.14-.51.2-.78.2Z" />
          <path class="cls-4"
            d="m230.51,165.25l2.75,2.75v27.34l-4.92,2.77-2.75-2.75v-7.11l-4.76,2.68v11.41l-4.92,2.77-2.75-2.75v-27.34l4.92-2.77,2.75,2.75v6.24l4.76-2.68v-10.54l4.92-2.77m0-3.18c-.53,0-1.07.13-1.56.41l-4.92,2.77c-1,.56-1.62,1.62-1.62,2.77v4.07l-2.09-2.09c-.61-.61-1.42-.93-2.25-.93-.53,0-1.07.13-1.56.41l-4.92,2.77c-1,.56-1.62,1.62-1.62,2.77v27.34c0,.84.33,1.65.93,2.25l2.75,2.75c.61.61,1.42.93,2.25.93.53,0,1.07-.13,1.56-.41l4.92-2.77c1-.56,1.62-1.62,1.62-2.77v-4.07l2.09,2.09c.61.61,1.42.93,2.25.93.53,0,1.07-.13,1.56-.41l4.92-2.77c1-.56,1.62-1.62,1.62-2.77v-27.34c0-.84-.33-1.65-.93-2.25l-2.75-2.75c-.61-.61-1.42-.93-2.25-.93h0Z" />
        </g>
        <g>
          <path class="cls-1"
            d="m350.53,130.82c-.41,0-.82-.16-1.12-.47l-2.75-2.75c-.3-.3-.47-.7-.47-1.12v-27.34c0-.57.31-1.1.81-1.38l5.04-2.84c.24-.14.51-.2.78-.2.41,0,.82.16,1.12.47l2.75,2.75c.11.11.2.23.27.36l1.6,2.93v-9.05c0-.57.31-1.1.81-1.38l4.69-2.64c.24-.14.51-.2.78-.2.41,0,.82.16,1.12.47l2.75,2.75c.3.3.47.7.47,1.12v27.34c0,.57-.31,1.1-.81,1.38l-5.04,2.84c-.24.14-.51.2-.78.2-.41,0-.82-.16-1.12-.47l-2.75-2.75c-.11-.11-.2-.23-.27-.36l-1.6-2.94v9.07c0,.57-.31,1.1-.81,1.38l-4.69,2.64c-.24.14-.51.2-.78.2Z" />
          <path class="cls-4"
            d="m364.84,89.52l2.75,2.75v27.34l-5.04,2.84-2.75-2.75-4.93-9.05c.18,2.04.34,4.17.34,6.23v9.7l-4.69,2.64-2.75-2.75v-27.34l5.04-2.84,2.75,2.75,4.91,9c-.17-2.02-.33-4.2-.33-6.23v-9.66l4.69-2.64m0-3.18c-.53,0-1.07.13-1.56.41l-4.69,2.64c-1,.56-1.62,1.62-1.62,2.77v3.8l-1.91-1.91c-.61-.61-1.43-.93-2.25-.93-.53,0-1.07.13-1.56.41l-5.04,2.84c-1,.56-1.62,1.62-1.62,2.77v27.34c0,.84.33,1.65.93,2.25l2.75,2.75c.61.61,1.43.93,2.25.93.53,0,1.07-.13,1.56-.41l4.69-2.64c1-.56,1.62-1.62,1.62-2.77v-3.8l1.91,1.91c.61.61,1.43.93,2.25.93.53,0,1.07-.13,1.56-.41l5.04-2.84c1-.56,1.62-1.62,1.62-2.77v-27.34c0-.84-.33-1.65-.93-2.25l-2.75-2.75c-.61-.61-1.42-.93-2.25-.93h0Z" />
        </g>
        <g>
          <path class="cls-1"
            d="m200.99,214.5c-1.86,0-3.5-.71-4.73-2.05l-2.41-2.41c-1.97-1.82-3-5.03-3-9.5,0-8.98,4.56-17.83,11.08-21.5,1.49-.84,2.97-1.27,4.4-1.27s2.74.42,3.85,1.22c.07.05.13.1.19.16l2.75,2.75c.48.48.6,1.2.31,1.81l-2.59,5.43c-.19.41-.55.71-.98.84-.15.04-.3.07-.45.07-.29,0-.57-.08-.82-.23-.41-.25-.74-.36-1.06-.36s-.72.12-1.17.38c-2.25,1.27-4.53,5.25-4.53,10.41,0,.66.03,1.26.09,1.81.02,0,.03-.02.05-.03,1.29-.73,2.54-2.21,3.62-4.3.23-.45.66-.76,1.15-.84.08-.01.17-.02.26-.02.41,0,.81.16,1.1.45l5.34,5.17c.5.48.62,1.23.32,1.84-1.94,3.92-4.59,6.92-7.67,8.65-1.79,1.01-3.51,1.52-5.11,1.52h0Z" />
          <path class="cls-4"
            d="m206.33,179.35c1.17,0,2.15.37,2.92.92l2.75,2.75-2.59,5.43c-.59-.36-1.2-.59-1.89-.59-.59,0-1.23.17-1.95.58-2.98,1.68-5.34,6.32-5.34,11.8,0,1.53.16,2.79.45,3.79.02,0,.03,0,.05,0,.61,0,1.28-.2,2.02-.62,1.79-1.01,3.19-2.9,4.26-4.95l5.34,5.17c-1.81,3.66-4.21,6.39-7.03,7.97-1.54.87-3.01,1.32-4.33,1.32-1.39,0-2.61-.5-3.56-1.54l-2.45-2.46c-1.57-1.45-2.53-4.18-2.53-8.38,0-9.07,4.77-17.02,10.27-20.12,1.34-.76,2.56-1.06,3.62-1.06m0-3.18h0c-1.71,0-3.45.5-5.18,1.47-7,3.95-11.89,13.36-11.89,22.89,0,4.89,1.18,8.48,3.5,10.66l2.37,2.38c1.54,1.65,3.56,2.51,5.85,2.51,1.87,0,3.85-.58,5.89-1.73,3.36-1.89,6.23-5.12,8.31-9.33.61-1.24.35-2.73-.64-3.69l-5.34-5.17c-.6-.58-1.39-.89-2.21-.89-.17,0-.34.01-.51.04-.99.16-1.85.78-2.31,1.67-.2.39-.41.76-.62,1.1.48-3.45,2.07-6.03,3.57-6.88.24-.13.36-.16.39-.17,0,0,.09.04.24.13.5.3,1.07.46,1.65.46.3,0,.61-.04.91-.13.86-.26,1.57-.86,1.96-1.67l2.59-5.43c.58-1.21.33-2.66-.62-3.62l-2.75-2.75c-.12-.12-.25-.23-.39-.33-1.38-1-3.03-1.52-4.78-1.53h0Z" />
        </g>
        <g>
          <path class="cls-1"
            d="m177.66,228.27c-.41,0-.82-.16-1.12-.46l-2.75-2.75c-.3-.3-.47-.7-.47-1.12v-27.34c0-.57.31-1.1.81-1.38l13.63-7.68c.24-.14.51-.2.78-.2.41,0,.82.16,1.12.46l2.75,2.75c.3.3.47.7.47,1.12v5.18c0,.57-.31,1.1-.81,1.38l-2.98,1.68,2.03,2.03c.3.3.47.7.47,1.12v5.18c0,.57-.31,1.1-.81,1.38l-.58.32,2.55,2.55c.3.3.47.7.47,1.12v5.18c0,.57-.31,1.1-.81,1.38l-13.97,7.87c-.24.14-.51.2-.78.2Z" />
          <path class="cls-4"
            d="m188.54,188.91l2.75,2.75v5.18l-8.71,4.91v1.19l4.67-2.63,2.75,2.75v5.18l-7.42,4.18v2l6.3-3.55,2.75,2.75v5.18l-13.97,7.87-2.75-2.75v-27.34l13.63-7.68m0-3.18c-.53,0-1.07.13-1.56.41l-13.63,7.68c-1,.56-1.62,1.62-1.62,2.77v27.34c0,.84.33,1.65.93,2.25l2.75,2.75c.61.61,1.43.93,2.25.93.53,0,1.07-.13,1.56-.41l13.97-7.87c1-.56,1.62-1.62,1.62-2.77v-5.18c0-.84-.33-1.65-.93-2.25l-1.29-1.29c.38-.53.59-1.17.59-1.84v-5.18c0-.84-.33-1.65-.93-2.25l-.55-.55,1.16-.65c1-.56,1.62-1.62,1.62-2.77v-5.18c0-.84-.33-1.65-.93-2.25l-2.75-2.75c-.61-.61-1.42-.93-2.25-.93h0Z" />
        </g>
        <g>
          <path class="cls-1"
            d="m163.08,236.49c-.41,0-.82-.16-1.12-.46l-2.75-2.75c-.3-.3-.47-.7-.47-1.12v-15.14l-.87.49c-.24.14-.51.2-.78.2-.41,0-.82-.16-1.12-.46l-2.75-2.75c-.3-.3-.47-.7-.47-1.12v-5.18c0-.57.31-1.1.81-1.38l16.9-9.52c.24-.14.51-.2.78-.2.41,0,.82.16,1.12.47l2.75,2.75c.3.3.47.7.47,1.12v5.18c0,.57-.31,1.1-.81,1.38l-5.18,2.92v21.23c0,.57-.31,1.1-.81,1.38l-4.92,2.77c-.24.14-.51.2-.78.2Z" />
          <path class="cls-4"
            d="m171.24,198.66l2.75,2.75v5.18l-5.99,3.38v22.16l-4.92,2.77-2.75-2.75v-17.86l-3.24,1.83-2.75-2.75v-5.18l16.9-9.52m0-3.18c-.53,0-1.07.13-1.56.41l-16.9,9.52c-1,.56-1.62,1.62-1.62,2.77v5.18c0,.84.33,1.65.93,2.25l2.75,2.75c.61.61,1.42.93,2.25.93.02,0,.04,0,.06,0v12.86c0,.84.33,1.65.93,2.25l2.75,2.75c.61.61,1.42.93,2.25.93.53,0,1.07-.13,1.56-.41l4.92-2.77c1-.56,1.62-1.62,1.62-2.77v-20.3l4.37-2.46c1-.56,1.62-1.62,1.62-2.77v-5.18c0-.84-.33-1.65-.93-2.25l-2.75-2.75c-.61-.61-1.42-.93-2.25-.93h0Z" />
        </g>
        <g>
          <path class="cls-1"
            d="m116.57,261.99c-1.62,0-3.04-.5-4.21-1.49-.04-.03-.07-.06-.1-.1l-2.59-2.61c-2.18-1.79-3.29-5.04-3.29-9.65,0-8.98,4.69-17.9,11.41-21.69,1.67-.94,3.28-1.42,4.78-1.42,1.39,0,2.66.4,3.78,1.18.07.05.14.11.21.18l2.75,2.75c.48.48.6,1.2.31,1.81l-2.2,4.61,2.26,2.26c.3.3.47.7.47,1.12v12.6c0,.27-.07.54-.2.77-1.79,3.22-4.78,6.27-7.79,7.97-2,1.13-3.88,1.7-5.59,1.7Zm.79-14.14c0,.64.03,1.22.08,1.74.27-.1.57-.25.92-.44.13-.08.27-.16.4-.25l-1.4-1.4c0,.12,0,.23,0,.35Z" />
          <path class="cls-4"
            d="m122.58,226.63c1.17,0,2.12.37,2.86.89l2.75,2.75-2.59,5.43c-.56-.33-1.14-.57-1.84-.57-.64,0-1.37.2-2.27.7-3.35,1.89-5.73,6.53-5.73,12.02,0,1.43.13,2.63.39,3.59.05,0,.09,0,.14,0,.8,0,1.74-.29,2.84-.91.87-.49,1.77-1.29,2.3-2.11v-.42l-.85.48-2.75-2.75v-5.05l7.97-4.49,2.75,2.75v12.61c-1.5,2.69-4.14,5.65-7.18,7.36-1.75.98-3.38,1.49-4.81,1.49-1.22,0-2.29-.36-3.18-1.11l-2.65-2.67c-1.72-1.37-2.76-4.13-2.76-8.47,0-9.07,4.8-17.03,10.6-20.31,1.55-.87,2.88-1.22,4-1.22m0-3.18s0,0,0,0c-1.78,0-3.65.55-5.56,1.62-7.31,4.12-12.22,13.39-12.22,23.08,0,5.07,1.28,8.71,3.8,10.82l2.53,2.55c.07.07.14.13.21.19,1.44,1.22,3.25,1.86,5.23,1.86s4.13-.64,6.37-1.9c3.3-1.86,6.44-5.07,8.39-8.58.26-.47.4-1.01.4-1.55v-12.61c0-.84-.33-1.65-.93-2.25l-1.46-1.46,1.72-3.6c.58-1.22.33-2.66-.62-3.62l-2.75-2.75c-.13-.13-.27-.25-.42-.35-1.37-.96-2.99-1.47-4.69-1.47h0Z" />
        </g>
        <g>
          <path class="cls-1"
            d="m89.91,277.74c-.41,0-.82-.16-1.12-.47l-2.75-2.75c-.38-.38-.54-.93-.43-1.46l6.83-31.19c.1-.44.38-.82.77-1.04l5.89-3.32c.24-.14.51-.2.78-.2.41,0,.82.16,1.12.46l2.75,2.75c.19.19.33.42.4.68l6.83,23.49c.21.71-.1,1.47-.75,1.83l-5.21,2.93c-.24.14-.51.2-.78.2-.41,0-.82-.16-1.12-.46l-2.75-2.75c-.18-.18-.32-.41-.4-.66l-2.28,1.28-1.21,6.54c-.08.46-.37.86-.78,1.1l-5.03,2.83c-.24.14-.51.2-.78.2Z" />
          <path class="cls-4"
            d="m99.87,238.89l2.75,2.75,6.83,23.49-5.21,2.93-2.75-2.75-.46-1.96-4.77,2.69-1.34,7.27-5.03,2.83-2.75-2.75,6.83-31.19,5.89-3.32m-1.71,16.99l1.01-.57-.51-2.21c-.16.94-.33,1.87-.5,2.78m1.71-20.16c-.53,0-1.07.13-1.56.41l-5.89,3.32c-.79.44-1.35,1.2-1.54,2.09l-6.83,31.19c-.23,1.06.09,2.16.86,2.93l2.75,2.75c.61.61,1.42.93,2.25.93.53,0,1.07-.13,1.56-.41l5.03-2.83c.82-.46,1.39-1.26,1.56-2.19l1.07-5.81.41-.23,2.46,2.46c.61.61,1.43.93,2.25.93.53,0,1.07-.13,1.56-.41l5.21-2.93c1.29-.72,1.9-2.24,1.49-3.65l-6.83-23.49c-.15-.51-.43-.98-.8-1.36l-2.75-2.75c-.61-.61-1.43-.93-2.25-.93h0Z" />
        </g>
        <g>
          <path class="cls-1"
            d="m39.78,306c-.41,0-.82-.16-1.12-.46l-2.75-2.75c-.3-.3-.47-.7-.47-1.12v-27.34c0-.57.31-1.1.81-1.38l13.63-7.68c.24-.14.51-.2.78-.2.41,0,.82.16,1.12.46l2.75,2.75c.3.3.47.7.47,1.12v5.18c0,.57-.31,1.1-.81,1.38l-2.98,1.68,2.03,2.03c.3.3.47.7.47,1.12v5.18c0,.57-.31,1.1-.81,1.38l-.58.32,2.55,2.55c.3.3.47.7.47,1.12v5.18c0,.57-.31,1.1-.81,1.38l-13.97,7.87c-.24.14-.51.2-.78.2Z" />
          <path class="cls-4"
            d="m50.66,266.64l2.75,2.75v5.18l-8.71,4.91v1.19l4.67-2.63,2.75,2.75v5.18l-7.42,4.18v2l6.3-3.55,2.75,2.75v5.18l-13.97,7.87-2.75-2.75v-27.34l13.63-7.68m0-3.18c-.53,0-1.07.13-1.56.41l-13.63,7.68c-1,.56-1.62,1.62-1.62,2.77v27.34c0,.84.33,1.65.93,2.25l2.75,2.75c.61.61,1.43.93,2.25.93.53,0,1.07-.13,1.56-.41l13.97-7.87c1-.56,1.62-1.62,1.62-2.77v-5.18c0-.84-.33-1.65-.93-2.25l-1.29-1.29c.38-.53.59-1.17.59-1.84v-5.18c0-.84-.33-1.65-.93-2.25l-.55-.55,1.16-.65c1-.56,1.62-1.62,1.62-2.77v-5.18c0-.84-.33-1.65-.93-2.25l-2.75-2.75c-.61-.61-1.42-.93-2.25-.93h0Z" />
        </g>
        <g>
          <path class="cls-1"
            d="m17.31,318.67c-.32,0-.64-.1-.91-.29-3.42-2.41-3.42-3.56-3.42-4.05v-27.34c0-.57.31-1.1.81-1.38l5.04-2.84c.24-.14.51-.2.78-.2.41,0,.82.16,1.12.47l2.75,2.75c.11.11.2.23.27.36l1.6,2.93v-9.06c0-.57.31-1.1.81-1.38l4.69-2.64c.24-.14.51-.2.78-.2.41,0,.82.16,1.12.47l2.75,2.75c.3.3.47.7.47,1.12v27.34c0,.57-.31,1.1-.81,1.38l-5.04,2.84c-.24.14-.51.2-.78.2-.41,0-.82-.16-1.12-.47l-2.75-2.75c-.11-.11-.2-.23-.27-.36l-1.6-2.94v9.07c0,.57-.31,1.1-.81,1.38l-4.69,2.64c-.24.14-.51.2-.78.2Z" />
          <path class="cls-4"
            d="m31.62,277.37l2.75,2.75v27.34l-5.04,2.84-2.75-2.75-4.93-9.05c.18,2.04.34,4.17.34,6.23v9.7l-4.69,2.64s-2.75-1.93-2.75-2.75v-27.34l5.04-2.84,2.75,2.75,4.91,9c-.17-2.02-.33-4.2-.33-6.23v-9.66l4.69-2.64m0-3.18c-.53,0-1.07.13-1.56.41l-4.69,2.64c-1,.56-1.62,1.62-1.62,2.77v3.8l-1.91-1.91c-.61-.61-1.43-.93-2.25-.93-.53,0-1.07.13-1.56.41l-5.04,2.84c-1,.56-1.62,1.62-1.62,2.77v27.34c0,1.22.49,2.81,4.1,5.35.55.38,1.19.58,1.83.58.54,0,1.07-.14,1.56-.41l4.69-2.64c1-.56,1.62-1.62,1.62-2.77v-3.8l1.91,1.91c.61.61,1.42.93,2.25.93.53,0,1.07-.13,1.56-.41l5.04-2.84c1-.56,1.62-1.62,1.62-2.77v-27.34c0-.84-.33-1.65-.93-2.25l-2.75-2.75c-.61-.61-1.43-.93-2.25-.93h0Z" />
        </g>
        <g>
          <path class="cls-1"
            d="m312.9,152.03c-.41,0-.82-.16-1.12-.47l-2.75-2.75c-.3-.3-.47-.7-.47-1.12v-27.34c0-.57.31-1.1.81-1.38l7.47-4.21c2.27-1.28,4.16-1.9,5.78-1.9.78,0,1.49.15,2.12.44.15.05.29.13.42.23.34.24,1.16.93,3.49,3.28.12.11.23.22.33.34l2.15-9.84c.1-.44.38-.82.77-1.04l5.89-3.32c.24-.14.51-.2.78-.2.41,0,.82.16,1.12.47l2.75,2.75c.19.19.33.42.4.68l6.83,23.49c.21.71-.1,1.47-.75,1.83l-5.21,2.93c-.24.14-.51.2-.78.2-.41,0-.82-.16-1.12-.47l-2.75-2.75c-.18-.18-.32-.41-.4-.66l-2.28,1.28-1.21,6.54c-.08.46-.37.86-.78,1.09l-5.03,2.83c-.24.14-.51.2-.78.2-.41,0-.82-.16-1.12-.47l-2.75-2.75c-.38-.38-.54-.93-.43-1.46l.64-2.92c-1.09,1.03-2.32,1.93-3.66,2.69l-1.88,1.06v8.35c0,.57-.31,1.1-.81,1.38l-4.92,2.77c-.24.14-.51.2-.78.2Z" />
          <path class="cls-4"
            d="m338.58,104.32l2.75,2.75,6.83,23.49-5.21,2.93-2.75-2.75-.45-1.96-4.77,2.69-1.34,7.27-5.03,2.83-2.75-2.75,2.68-12.22c-1.17,4.6-4.38,8.2-8.03,10.26l-2.69,1.52v9.28l-4.92,2.77-2.75-2.75v-27.34l7.47-4.21c1.87-1.05,3.59-1.69,5-1.69.58,0,1.11.11,1.57.34h.01s.02.01.02.01c.45.23,3.32,3.14,3.32,3.14,0,0,0,0,.01,0l.02.02h0c.92.83,1.45,2.38,1.45,4.85,0,.98-.1,1.93-.27,2.84l3.94-18.01,5.89-3.32m-1.71,16.99l1.01-.57-.51-2.21c-.16.94-.33,1.87-.5,2.78m-19.05,7.85c2.29-1.41,3.45-3.39,3.6-5.85-.4.15-.85.37-1.34.65l-2.27,1.28v3.92m20.76-28.01c-.53,0-1.07.13-1.56.41l-5.89,3.32c-.79.44-1.35,1.2-1.54,2.09l-1.53,7.01c-1.56-1.51-2-1.79-2.3-1.95-.09-.05-.19-.1-.29-.14-.86-.4-1.81-.61-2.85-.61-1.9,0-4.05.69-6.56,2.1l-7.47,4.21c-1,.56-1.62,1.62-1.62,2.77v27.34c0,.84.33,1.65.93,2.25l2.75,2.75c.61.61,1.43.93,2.25.93.53,0,1.07-.13,1.56-.41l4.92-2.77c1-.56,1.62-1.62,1.62-2.77v-7.42l1.07-.6c.22-.12.43-.25.65-.38.09.68.4,1.32.9,1.82l2.75,2.75c.61.61,1.42.93,2.25.93.53,0,1.07-.13,1.56-.41l5.03-2.83c.82-.46,1.39-1.26,1.56-2.19l1.07-5.81.41-.23,2.46,2.46c.61.61,1.42.93,2.25.93.53,0,1.07-.13,1.56-.41l5.21-2.93c1.29-.72,1.9-2.24,1.49-3.65l-6.83-23.49c-.15-.51-.43-.98-.8-1.36l-2.75-2.75c-.61-.61-1.42-.93-2.25-.93h0Z" />
        </g>
        <g>
          <path class="cls-1"
            d="m287.19,166.52c-.41,0-.82-.16-1.12-.46l-2.75-2.75c-.3-.3-.47-.7-.47-1.12v-27.34c0-.57.31-1.1.81-1.38l5.37-3.03c.24-.14.51-.2.78-.2.41,0,.82.16,1.12.47l2.75,2.75c.17.17.3.38.38.6l1.1,3.17c1.12-4.67,2.58-10.76,2.68-11.16.1-.43.38-.8.76-1.01l5.37-3.02c.24-.14.51-.2.78-.2.41,0,.82.16,1.12.47l2.75,2.75c.3.3.47.7.47,1.12v27.34c0,.57-.31,1.1-.81,1.38l-4.48,2.52c-.24.14-.51.2-.78.2-.41,0-.82-.16-1.12-.47l-1.49-1.49-.21.84c-.11.42-.38.78-.76,1l-2.73,1.54c-.24.14-.51.2-.78.2-.41,0-.82-.16-1.12-.47l-1.63-1.63c0,2.48.01,4.79.02,5.31,0,.57-.31,1.1-.81,1.39l-4.41,2.49c-.24.14-.51.2-.78.2Z" />
          <path class="cls-4"
            d="m304.75,123.39l2.75,2.75v27.34l-4.48,2.52-2.75-2.75v-3.58l-1.62,6.41-2.73,1.54-2.75-2.75-1.64-4.65c.04.77.07,12.21.07,12.21l-4.41,2.49-2.75-2.75v-27.34l5.37-3.03,2.75,2.75,2.89,8.31c.17-.8,3.94-16.46,3.94-16.46l5.37-3.02m0-3.18c-.53,0-1.07.13-1.56.41l-5.37,3.02c-.77.43-1.32,1.17-1.53,2.02-.16.66-.83,3.45-1.58,6.56l-2.66-2.66c-.61-.61-1.43-.93-2.25-.93-.53,0-1.07.13-1.56.41l-5.37,3.03c-1,.56-1.62,1.62-1.62,2.77v27.34c0,.84.33,1.65.93,2.25l2.75,2.75c.61.61,1.42.93,2.25.93.53,0,1.07-.13,1.56-.41l4.41-2.49c1-.56,1.62-1.63,1.62-2.77,0-.46,0-1.1,0-1.85.37.14.76.22,1.15.22.53,0,1.07-.13,1.56-.41l2.73-1.54c.25-.14.47-.31.67-.5.6.54,1.36.83,2.14.83.53,0,1.07-.13,1.56-.41l4.48-2.52c1-.56,1.62-1.62,1.62-2.77v-27.34c0-.84-.33-1.65-.93-2.25l-2.75-2.75c-.61-.61-1.42-.93-2.25-.93h0Z" />
        </g>
        <g>
          <path class="cls-1"
            d="m250.4,186.65c-1.6,0-3.05-.53-4.21-1.54-.08-.05-.15-.11-.22-.18l-3.11-3.12c-.08-.08-.15-.17-.21-.27-1.59-1.93-2.4-4.91-2.4-8.86,0-8.98,4.56-17.83,11.08-21.5,1.49-.84,2.97-1.27,4.4-1.27s2.74.42,3.85,1.23c.07.05.13.1.19.16l.7.7c1.82-4.85,4.99-8.79,8.93-11.01,1.79-1.01,3.49-1.52,5.03-1.52s2.9.5,4.01,1.46c.08.06.16.12.23.19l2.44,2.48c2.18,1.81,3.28,5.18,3.28,10.01,0,9.24-4.2,17.58-10.69,21.25-1.75.99-3.41,1.49-4.94,1.49h0c-1.55,0-2.97-.53-4.1-1.53-.08-.05-.16-.12-.23-.19l-2.8-2.8c-.06-.06-.12-.13-.17-.2-1.81-1.93-2.74-5.11-2.77-9.44-.26-.02-.51-.09-.73-.23-.41-.25-.74-.36-1.06-.36-.34,0-.72.12-1.17.37-2.25,1.27-4.53,5.25-4.53,10.41,0,.66.03,1.26.09,1.81.02,0,.03-.02.05-.03,1.29-.73,2.54-2.21,3.63-4.3.23-.45.66-.76,1.15-.84.08-.01.17-.02.26-.02.41,0,.81.16,1.1.45l5.34,5.17c.5.48.63,1.23.32,1.84-1.94,3.92-4.59,6.92-7.67,8.65-1.79,1.01-3.51,1.52-5.1,1.52Zm22.96-34.58c-2.28,1.56-3.68,5.27-3.68,9.85,0,.67.03,1.29.09,1.86,2.24-1.56,3.66-5.44,3.66-10.07,0-.58-.02-1.13-.08-1.64Z" />
          <path class="cls-4"
            d="m274.44,141.05c1.2,0,2.24.4,3.09,1.18h.02s2.5,2.53,2.5,2.53c1.75,1.42,2.77,4.37,2.77,8.84,0,8.93-4.01,16.55-9.88,19.86-1.53.86-2.92,1.28-4.16,1.28s-2.33-.43-3.2-1.28v.02s-2.8-2.8-2.8-2.8v-.03c-1.57-1.55-2.47-4.45-2.47-8.68,0-2.03.22-3.97.61-5.81l-2.11,4.41c-.59-.36-1.2-.59-1.89-.59-.59,0-1.23.17-1.95.58-2.98,1.68-5.34,6.32-5.34,11.8,0,1.53.16,2.79.45,3.79.01,0,.02,0,.04,0,.61,0,1.29-.2,2.03-.62,1.79-1.01,3.19-2.91,4.26-4.96l5.34,5.17c-1.81,3.66-4.21,6.39-7.03,7.97-1.54.87-3,1.32-4.32,1.32s-2.37-.41-3.28-1.26c0,0-.01,0-.01,0l-3.11-3.12v-.03c-1.34-1.53-2.15-4.13-2.15-7.97,0-9.07,4.77-17.02,10.27-20.12,1.34-.76,2.56-1.06,3.62-1.06,1.17,0,2.15.37,2.92.92l2.54,2.54c1.49-5.69,4.75-10.2,8.99-12.59,1.56-.88,2.99-1.32,4.25-1.32m-5.88,24.83c.5-.02,1.04-.17,1.63-.5,2.97-1.67,4.84-6.2,4.84-11.68,0-1.53-.16-2.78-.44-3.78-.5.03-1.05.2-1.65.54-2.97,1.67-4.84,5.97-4.84,11.45,0,1.6.16,2.93.46,3.98m5.88-28.01h0c-1.82,0-3.78.58-5.81,1.73-3.69,2.08-6.75,5.54-8.78,9.81-1.23-.72-2.64-1.09-4.11-1.09-1.71,0-3.45.5-5.18,1.47-7,3.95-11.89,13.36-11.89,22.89,0,4.3.92,7.6,2.73,9.83.1.15.22.29.35.42l3.11,3.12c.11.11.24.22.36.31,1.44,1.23,3.22,1.87,5.18,1.87s3.85-.58,5.88-1.73c3.36-1.89,6.23-5.12,8.31-9.33.06-.11.11-.23.15-.35,1.2.73,2.57,1.11,4.04,1.11,1.8,0,3.73-.57,5.72-1.69,6.98-3.94,11.5-12.82,11.5-22.63,0-5.28-1.28-9.04-3.79-11.18l-2.39-2.42c-.12-.13-.26-.24-.4-.34-1.39-1.17-3.1-1.78-4.97-1.78h0Zm-21.48,32.35c.48-3.45,2.07-6.03,3.57-6.88.24-.13.36-.16.39-.17,0,0,.08.03.23.12.07,1.63.27,3.11.61,4.42-.42-.2-.89-.31-1.37-.31-.17,0-.34.01-.51.04-.99.16-1.85.78-2.31,1.67-.2.39-.41.76-.62,1.1h0Z" />
        </g>
      </g>
      <g>
        <path class="cls-2"
          d="m29.68,292.42c0,3.22.4,6.83.63,9.59l-.13.08-2.15-4.79-5.68-10.4-5.04,2.84v27.34l4.69-2.64v-9.7c0-3.22-.4-6.66-.63-9.55l.13-.08,2.15,4.76,5.68,10.43,5.04-2.84v-27.34l-4.69,2.64v9.66Z" />
        <polygon class="cls-2"
          points="44.69 290.16 52.11 285.97 52.11 280.79 44.69 284.97 44.69 279.48 53.41 274.57 53.41 269.39 39.78 277.07 39.78 304.41 53.74 296.54 53.74 291.35 44.69 296.45 44.69 290.16" />
        <path class="cls-2"
          d="m76.25,269.28c-.29,2.98-.59,6.06-.88,9.14l-.13.08c-.44-2.67-.87-5.38-1.31-7.91l-2.34-11.45-4.17,2.35-2.34,14.09c-.44,3.09-.87,6.26-1.3,9.38l-.13.08c-.29-2.72-.6-5.43-.89-8.15l-1.51-11.92-5.04,2.84,4.04,25.06,6.07-3.42,2.06-13.58c.35-2.31.62-4.65.88-6.84l.13-.08c.24,1.91.53,3.94.87,5.86l2.13,11.22,6.18-3.49,3.86-29.52-4.7,2.65-1.51,13.62Z" />
        <path class="cls-2"
          d="m96.74,244.96l-6.83,31.19,5.03-2.83,1.34-7.27,6.63-3.74,1.34,5.76,5.21-2.93-6.83-23.49-5.89,3.32Zm.53,15.72l.52-2.82c.6-3.07,1.19-6.6,1.71-9.78l.13-.08c.58,2.52,1.16,5.43,1.77,7.82l.52,2.24-4.65,2.62Z" />
        <path class="cls-2"
          d="m120.59,248.49l3.6-2.03v4.72c-.53.83-1.43,1.62-2.3,2.11-4.1,2.31-6.12.19-6.12-5.44s2.38-10.13,5.73-12.02c1.87-1.05,3.03-.78,4.11-.14l2.59-5.43c-1.46-1.03-3.71-1.46-6.86.32-5.81,3.27-10.6,11.24-10.6,20.31s4.66,11.39,10.65,8.01c3.04-1.71,5.68-4.67,7.18-7.36v-12.61l-7.97,4.49v5.05Z" />
        <polygon class="cls-2"
          points="138.24 237.42 145.66 233.24 145.66 228.06 138.24 232.24 138.24 226.75 146.95 221.84 146.95 216.65 133.32 224.34 133.32 251.68 147.29 243.8 147.29 238.62 138.24 243.72 138.24 237.42" />
        <polygon class="cls-2"
          points="157.1 216.12 163.08 212.74 163.08 234.9 168 232.13 168 209.97 173.99 206.59 173.99 201.41 157.1 210.93 157.1 216.12" />
        <polygon class="cls-2"
          points="182.57 212.43 189.99 208.25 189.99 203.06 182.57 207.24 182.57 201.75 191.29 196.84 191.29 191.66 177.66 199.34 177.66 226.68 191.62 218.81 191.62 213.63 182.57 218.73 182.57 212.43" />
        <path class="cls-2"
          d="m205.49,206.16c-3.18,1.79-5.26-.3-5.26-5.92s2.36-10.12,5.34-11.8c1.57-.89,2.75-.65,3.84.01l2.59-5.43c-1.47-1.06-3.73-1.44-6.54.14-5.5,3.1-10.27,11.05-10.27,20.12s4.61,11.42,10.12,8.31c2.82-1.59,5.22-4.31,7.03-7.97l-2.59-2.42c-1.06,2.05-2.47,3.95-4.26,4.95Z" />
        <polygon class="cls-2"
          points="228.34 181.3 220.83 185.54 220.83 175 215.91 177.77 215.91 205.12 220.83 202.34 220.83 190.93 228.34 186.69 228.34 198.11 233.26 195.34 233.26 167.99 228.34 170.77 228.34 181.3" />
        <path class="cls-2"
          d="m254.9,178.3c-3.18,1.79-5.26-.3-5.26-5.92s2.36-10.12,5.34-11.8c1.57-.89,2.75-.65,3.84.01l2.59-5.43c-1.47-1.06-3.73-1.44-6.54.14-5.5,3.1-10.27,11.05-10.27,20.12s4.61,11.42,10.12,8.31c2.82-1.59,5.22-4.31,7.03-7.97l-2.59-2.42c-1.06,2.05-2.47,3.95-4.26,4.95Z" />
        <path class="cls-2"
          d="m272.94,145.12c-5.87,3.31-9.88,10.69-9.88,19.63s4.01,12.03,9.88,8.72c5.87-3.31,9.88-10.93,9.88-19.86s-4.01-11.79-9.88-8.49Zm0,23.01c-2.97,1.67-4.84-.74-4.84-6.23s1.87-9.77,4.84-11.45c2.97-1.67,4.84.51,4.84,5.99s-1.87,10.01-4.84,11.68Z" />
        <path class="cls-2"
          d="m298.72,143.25c-.44,1.86-.8,3.82-1.24,5.75l-.13.08c-.44-1.44-.82-2.97-1.25-4.34l-3.53-10.16-5.37,3.03v27.34l4.41-2.49v-10.03c0-2.67-.4-6.42-.63-8.94l.13-.08,1.74,5.49,3.08,8.74,2.73-1.54,3.08-12.21,1.79-7.48.13-.08c-.23,2.78-.63,6.98-.63,9.64v10.03l4.48-2.52v-27.34l-5.37,3.03-3.42,14.08Z" />
        <path class="cls-2"
          d="m320.37,118.89l-7.47,4.21v27.34l4.92-2.77v-9.28l2.69-1.52c4.61-2.6,8.51-7.64,8.51-14.07s-3.86-6.62-8.65-3.92Zm-.16,13.25l-2.4,1.35v-8.25l2.27-1.28c2.66-1.5,4.12-1.3,4.12,1.57s-1.28,5.08-3.98,6.61Z" />
        <path class="cls-2"
          d="m335.44,110.39l-6.83,31.19,5.03-2.83,1.34-7.27,6.63-3.74,1.34,5.76,5.21-2.93-6.83-23.49-5.89,3.32Zm.53,15.72l.52-2.82c.6-3.07,1.19-6.6,1.71-9.78l.13-.08c.58,2.52,1.16,5.43,1.77,7.82l.52,2.24-4.65,2.62Z" />
        <path class="cls-2"
          d="m362.9,104.57c0,3.22.4,6.83.63,9.59l-.13.08-2.15-4.79-5.68-10.4-5.04,2.84v27.34l4.69-2.64v-9.7c0-3.22-.4-6.66-.63-9.55l.13-.08,2.15,4.76,5.68,10.43,5.04-2.84v-27.34l-4.69,2.64v9.66Z" />
        <path class="cls-2"
          d="m383.06,83.55l-1.94,7.38c-.6,2.39-1.22,4.63-1.84,7.1l-.13.08c-.62-1.77-1.19-3.34-1.77-5.06l-1.94-5.19-5.26,2.97,6.55,13.89v9.75l4.92-2.77v-9.75l6.55-21.28-5.14,2.9Z" />
      </g>
      <g>
        <path class="cls-2"
          d="m338.37,93.18c-.71,0-1.36-.13-1.92-.39-.49-.23-.71-.81-.5-1.3l1.53-3.54c.16-.38.53-.6.92-.6.12,0,.23.02.35.06.36.13.72.2,1.07.2.49,0,.98-.14,1.46-.41.44-.25.72-.57.81-.9-.09,0-.19,0-.29.02l-1.21.12c-.23.02-.47.04-.7.04-2.16,0-3.39-1.27-3.39-3.49,0-3.05,2.02-6.24,5.02-7.93,1.1-.62,2.17-.93,3.19-.93.63,0,1.25.11,1.87.35.26.1.47.3.57.55s.1.54-.01.8l-1.56,3.44c-.17.36-.53.59-.91.59-.1,0-.2-.02-.3-.05-.3-.09-.57-.14-.83-.14-.38,0-.74.1-1.1.3-.25.14-.54.36-.67.66.07,0,1.4-.16,1.4-.16.35-.04.7-.07,1.03-.07,1.43,0,3.13.62,3.13,3.57,0,3.12-2.09,6.4-5.2,8.15-1.26.71-2.55,1.08-3.75,1.08h0Z" />
        <path class="cls-4"
          d="m344.71,75.11c.58,0,1.08.12,1.52.29l-1.56,3.44c-.36-.12-.74-.19-1.14-.19-.51,0-1.05.12-1.59.43-.8.45-1.26,1.11-1.26,1.89,0,.5.32.65.85.65.17,0,.35-.02.56-.04l1.18-.13c.32-.04.62-.07.91-.07,1.24,0,2.13.5,2.13,2.57,0,2.62-1.73,5.61-4.69,7.28-1.15.65-2.28.96-3.26.96-.56,0-1.07-.1-1.5-.3l1.53-3.54c.46.17.93.27,1.41.27.64,0,1.3-.17,1.96-.54.92-.52,1.34-1.27,1.34-1.99,0-.63-.4-.78-.98-.78-.13,0-.27,0-.42.02l-1.22.12c-.2.02-.41.03-.61.03-1.31,0-2.39-.52-2.39-2.49,0-2.73,1.82-5.54,4.51-7.06,1.06-.59,1.95-.8,2.7-.8m0-2h0c-1.2,0-2.44.36-3.68,1.06-3.36,1.89-5.53,5.35-5.53,8.8,0,1.69.63,2.98,1.73,3.74-.28.2-.51.48-.66.83l-1.53,3.54c-.43,1,.01,2.15,1,2.61.7.32,1.49.49,2.34.49,1.36,0,2.83-.42,4.24-1.21,3.47-1.95,5.71-5.5,5.71-9.02,0-2.33-.92-3.49-1.95-4.05.05-.07.09-.15.12-.23l1.56-3.44c.23-.5.24-1.08.03-1.59s-.62-.91-1.14-1.11c-.74-.28-1.47-.42-2.23-.42h0Z" />
      </g>
      <g>
        <path class="cls-2"
          d="m351.76,86.11c-.21,0-.42-.07-.6-.2-.32-.24-.47-.64-.38-1.02l3.71-16.51c.06-.28.24-.51.48-.65l3.8-2.14c.15-.09.32-.13.49-.13.13,0,.25.02.37.07.28.11.5.35.58.64l3.71,12.33c.13.45-.06.93-.47,1.16l-3.35,1.89c-.15.09-.32.13-.49.13-.14,0-.27-.03-.4-.08-.29-.13-.5-.38-.57-.69l-.3-1.32-1.84,1.04-.52,2.84c-.05.29-.23.54-.49.69l-3.24,1.82c-.15.09-.32.13-.49.13Z" />
        <path class="cls-4"
          d="m359.27,66.46l3.71,12.33-3.35,1.89-.61-2.62-3.41,1.92-.61,3.3-3.24,1.82,3.71-16.51,3.8-2.14m-3.07,10.31l2.23-1.26-.23-.98c-.28-1.22-.55-2.81-.86-4.05l-.09.05c-.28,1.6-.54,3.46-.83,5l-.23,1.24m3.07-12.31c-.34,0-.68.09-.98.26l-3.8,2.14c-.49.28-.85.75-.97,1.3l-3.71,16.51c-.17.77.12,1.57.76,2.04.35.26.77.39,1.19.39.34,0,.68-.09.98-.26l3.24-1.82c.52-.29.88-.8.98-1.38l.44-2.38.27-.15h0c.14.63.57,1.14,1.14,1.39.26.11.53.17.81.17.34,0,.68-.09.98-.26l3.35-1.89c.82-.46,1.2-1.42.93-2.32l-3.71-12.33c-.18-.58-.6-1.05-1.17-1.28-.24-.1-.49-.14-.75-.14h0Z" />
      </g>
      <g>
        <path class="cls-2"
          d="m331.9,97.01c-.17,0-.35-.05-.5-.14-.31-.18-.5-.51-.5-.86v-14.42c0-.36.19-.69.51-.87l3.2-1.8c.15-.09.32-.13.49-.13s.35.05.5.14c.31.18.5.51.5.86v14.42c0,.36-.19.69-.51.87l-3.2,1.8c-.15.09-.32.13-.49.13Z" />
        <path class="cls-4"
          d="m335.1,79.79v14.42l-3.2,1.8v-14.42l3.2-1.8m0-2c-.34,0-.68.09-.98.26l-3.2,1.8c-.63.35-1.02,1.02-1.02,1.74v14.42c0,.71.38,1.37.99,1.73.31.18.66.27,1.01.27s.68-.09.98-.26l3.2-1.8c.63-.35,1.02-1.02,1.02-1.74v-14.42c0-.71-.38-1.37-.99-1.73-.31-.18-.66-.27-1.01-.27h0Z" />
      </g>
      <g id="EBCustom">
        <g>
          <path class="cls-1"
            d="m349.33,59.44c-.85,0-1.59-.5-1.83-1.25l-.92-2.87c-.78-2.44-3.29-4.3-6.39-4.73-.95-.13-1.62-.84-1.62-1.72s.67-1.59,1.62-1.72c3.1-.43,5.61-2.29,6.39-4.73l.92-2.87c.24-.75.97-1.25,1.83-1.25s1.59.5,1.83,1.25l.92,2.87c.78,2.44,3.29,4.3,6.39,4.73.95.13,1.62.84,1.62,1.72s-.67,1.59-1.62,1.72c-3.1.43-5.61,2.29-6.39,4.73l-.92,2.87c-.24.75-.97,1.25-1.83,1.25Z" />
          <path class="cls-4"
            d="m349.33,39.3c.38,0,.76.18.87.55l.92,2.87c.9,2.81,3.72,4.93,7.21,5.42,1,.14,1,1.33,0,1.47-3.49.48-6.31,2.6-7.21,5.42l-.92,2.87c-.12.37-.5.55-.87.55s-.76-.18-.87-.55l-.92-2.87c-.9-2.81-3.72-4.93-7.21-5.42-1-.14-1-1.33,0-1.47,3.49-.48,6.31-2.6,7.21-5.42l.92-2.87c.12-.37.5-.55.87-.55m0-2c-1.29,0-2.41.78-2.78,1.94l-.92,2.87c-.67,2.08-2.86,3.67-5.58,4.05-1.44.2-2.48,1.34-2.48,2.71s1.04,2.51,2.48,2.71c2.72.38,4.91,1.97,5.58,4.05l.92,2.87c.37,1.16,1.49,1.94,2.78,1.94s2.41-.78,2.78-1.94l.92-2.87c.67-2.08,2.86-3.67,5.58-4.05,1.44-.2,2.48-1.34,2.48-2.71s-1.04-2.51-2.48-2.71c-2.72-.38-4.91-1.97-5.58-4.05l-.92-2.87c-.37-1.16-1.49-1.94-2.78-1.94h0Z" />
        </g>
        <g>
          <path class="cls-1"
            d="m356.54,32.81c-1.1,0-2.01-.61-2.31-1.56l-1.43-4.47c-1.28-4.01-5.37-7.05-10.41-7.75-1.2-.17-2.04-1.04-2.04-2.13s.84-1.97,2.04-2.13c5.04-.7,9.13-3.74,10.41-7.75l1.43-4.47c.3-.95,1.21-1.56,2.31-1.56s2.01.61,2.31,1.56l1.43,4.47c1.28,4.01,5.37,7.05,10.41,7.75,1.2.17,2.04,1.04,2.04,2.13s-.84,1.97-2.04,2.13c-5.04.7-9.13,3.74-10.41,7.75l-1.43,4.47c-.3.95-1.21,1.56-2.31,1.56Z" />
          <path class="cls-4"
            d="m356.54,2c.59,0,1.18.29,1.36.86l1.43,4.47c1.4,4.38,5.79,7.68,11.23,8.43,1.56.22,1.56,2.07,0,2.28-5.43.75-9.82,4.05-11.23,8.43l-1.43,4.47c-.18.58-.77.86-1.36.86s-1.18-.29-1.36-.86l-1.43-4.47c-1.4-4.38-5.79-7.68-11.23-8.43-1.56-.22-1.56-2.07,0-2.28,5.43-.75,9.82-4.05,11.23-8.43l1.43-4.47c.18-.58.77-.86,1.36-.86m0-2c-1.52,0-2.83.91-3.27,2.25l-1.43,4.47c-1.17,3.64-4.93,6.42-9.6,7.06-1.71.24-2.9,1.52-2.9,3.12s1.19,2.89,2.9,3.12c4.66.65,8.43,3.42,9.6,7.06l1.43,4.47c.43,1.35,1.74,2.25,3.27,2.25s2.83-.91,3.27-2.25l1.43-4.47c1.17-3.64,4.93-6.42,9.6-7.06,1.71-.24,2.9-1.52,2.9-3.12s-1.19-2.89-2.9-3.12c-4.66-.65-8.43-3.42-9.6-7.06l-1.43-4.47c-.43-1.35-1.74-2.25-3.27-2.25h0Z" />
        </g>
        <g>
          <path class="cls-1"
            d="m375.04,51.43c-.94,0-1.71-.53-1.97-1.34l-1.07-3.34c-.93-2.9-3.9-5.1-7.57-5.61-1.02-.14-1.74-.9-1.74-1.84s.72-1.7,1.74-1.84c3.67-.51,6.64-2.71,7.57-5.61l1.07-3.34c.26-.81,1.03-1.34,1.97-1.34s1.71.54,1.97,1.34l1.07,3.34c.93,2.9,3.9,5.1,7.57,5.61,1.02.14,1.74.9,1.74,1.84s-.72,1.7-1.74,1.84c-3.67.51-6.64,2.71-7.57,5.61l-1.07,3.34c-.26.8-1.05,1.34-1.97,1.34Z" />
          <path class="cls-4"
            d="m375.04,28.17c.44,0,.88.21,1.02.64l1.07,3.34c1.05,3.27,4.33,5.74,8.38,6.3,1.17.16,1.17,1.54,0,1.71-4.06.56-7.34,3.03-8.38,6.3l-1.07,3.34c-.14.43-.58.64-1.02.64s-.88-.21-1.02-.64l-1.07-3.34c-1.05-3.27-4.33-5.74-8.38-6.3-1.17-.16-1.17-1.54,0-1.71,4.06-.56,7.34-3.03,8.38-6.3l1.07-3.34c.14-.43.58-.64,1.02-.64m0-2c-1.36,0-2.53.82-2.92,2.03l-1.07,3.34c-.81,2.54-3.46,4.47-6.76,4.93-1.51.21-2.6,1.4-2.6,2.83s1.09,2.62,2.6,2.83c3.29.46,5.94,2.39,6.76,4.93l1.07,3.34c.39,1.22,1.56,2.03,2.92,2.03s2.53-.82,2.92-2.03l1.07-3.34c.81-2.54,3.46-4.47,6.75-4.93,1.51-.21,2.6-1.4,2.6-2.83s-1.09-2.62-2.6-2.83c-3.29-.46-5.94-2.39-6.75-4.93l-1.07-3.34c-.39-1.22-1.56-2.03-2.92-2.03h0Z" />
        </g>
      </g>
    </g>
  </g>
</svg>