<?xml version="1.0" encoding="UTF-8"?>
<svg id="bits" xmlns="http://www.w3.org/2000/svg" viewBox="0 0 4146.86 8077.1">
  <defs>
    <style>
      .cls-1 {
        fill: #f9c554;
      }

      .cls-2 {
        fill: #fff;
      }

      .cls-3 {
        fill: #1c2021;
      }
    </style>
  </defs>
  <g>
    <path d="m973.91,3167.39c-.88-3.09.29-5.44,2.71-6.13,2.42-.69,4.65.71,5.53,3.79.88,3.09-.27,5.51-2.69,6.2-2.42.69-4.67-.77-5.55-3.86Zm6.97-1.98c-.68-2.4-2.23-3.56-3.95-3.07-1.72.49-2.43,2.29-1.75,4.69s2.25,3.63,3.97,3.14c1.72-.49,2.41-2.36,1.73-4.76Z"/>
    <path d="m984.65,3166.76l-1.28-4.52,1.21-.34,1.24,4.36c.38,1.33.94,1.78,1.88,1.52.73-.21,1.13-.71,1.57-1.75l-1.44-5.06,1.21-.34,2.03,7.13-1,.28-.42-1.09h-.04c-.44.98-1.01,1.69-1.99,1.97-1.5.43-2.46-.35-2.97-2.17Z"/>
    <path d="m991.45,3159.95l1-.28.47,1.27h.04c.24-1.06.81-1.83,1.61-2.06.32-.09.55-.11.8-.07l.08,1.12c-.27,0-.44,0-.73.08-.6.17-1.2.81-1.34,2.15l1.3,4.58-1.21.34-2.03-7.13Z"/>
    <path d="m999.97,3161.39c-.66-2.32.5-4.2,2.14-4.66,1.82-.52,3.22.5,3.8,2.54.07.25.12.52.14.7l-4.8,1.37c.52,1.49,1.72,2.2,3.08,1.82.68-.19,1.18-.58,1.61-1.07l.66.67c-.51.59-1.18,1.13-2.15,1.41-1.9.54-3.81-.42-4.48-2.76Zm4.82-2c-.41-1.43-1.27-2.03-2.39-1.71-1,.28-1.67,1.35-1.42,2.79l3.8-1.08Z"/>
    <path d="m1006.76,3155.6l1-.28.39,1.01h.04c.43-.86,1.03-1.61,1.88-1.85,1.09-.31,1.82.05,2.36.8.51-1.01,1.1-1.78,1.97-2.03,1.47-.42,2.45.35,2.96,2.17l1.28,4.52-1.21.34-1.24-4.37c-.38-1.33-.96-1.78-1.87-1.52-.55.16-1.03.68-1.48,1.6l1.47,5.17-1.21.34-1.24-4.37c-.38-1.33-.96-1.78-1.87-1.52-.53.15-1.02.68-1.48,1.6l1.47,5.17-1.21.34-2.03-7.13Z"/>
    <path d="m1018.94,3152.14l1-.28.33.79h.04c.49-.73,1.16-1.42,1.99-1.66,1.84-.52,3.24.63,3.86,2.83.69,2.43-.37,4.27-2,4.73-.65.19-1.41.08-2.21-.27l.39,1.24.69,2.42-1.21.34-2.88-10.14Zm5.98,2.05c-.45-1.57-1.29-2.48-2.63-2.1-.6.17-1.12.68-1.63,1.51l1.06,3.74c.8.36,1.48.38,1.95.25,1.18-.33,1.75-1.65,1.25-3.41Z"/>
    <path d="m1028.65,3155.55l-2.56-9.03,1.21-.34,2.59,9.11c.11.37.31.47.48.42.07-.02.13-.04.26-.1l.42.88c-.15.11-.35.22-.66.31-.9.26-1.44-.21-1.73-1.25Z"/>
    <path d="m1031.26,3152.51c-.68-2.38.49-4.2,2.24-4.69,1.75-.5,3.7.43,4.37,2.81.67,2.36-.5,4.18-2.25,4.67-1.75.5-3.7-.43-4.37-2.8Zm5.36-1.52c-.46-1.63-1.61-2.51-2.84-2.16-1.23.35-1.74,1.7-1.28,3.33.46,1.63,1.61,2.49,2.83,2.14s1.75-1.68,1.28-3.31Z"/>
    <path d="m1040.81,3156.8l-.04-1.03c.15,0,.39,0,.57-.05.8-.23,1.13-1.02,1.17-1.99v-.57s-4.88-6.34-4.88-6.34l1.24-.35,2.58,3.54c.4.56.85,1.22,1.27,1.81l.06-.02c.02-.71.01-1.49.03-2.18l.15-4.31,1.18-.33-.5,8.48c-.1,1.56-.53,2.84-1.96,3.25-.33.09-.62.11-.88.09Z"/>
    <path d="m1045.96,3148.33c-.66-2.32.5-4.2,2.14-4.66,1.82-.52,3.22.5,3.8,2.54.07.25.12.52.14.7l-4.8,1.37c.52,1.49,1.72,2.2,3.08,1.82.68-.19,1.18-.57,1.61-1.07l.66.67c-.51.59-1.17,1.13-2.15,1.41-1.9.54-3.81-.42-4.48-2.76Zm4.82-2c-.41-1.43-1.27-2.03-2.39-1.71-1,.29-1.67,1.35-1.42,2.79l3.8-1.08Z"/>
    <path d="m1053.24,3146.27c-.66-2.32.5-4.2,2.14-4.66,1.82-.52,3.22.5,3.8,2.54.07.26.12.52.14.7l-4.8,1.36c.52,1.49,1.72,2.2,3.08,1.82.68-.2,1.18-.58,1.61-1.07l.66.67c-.51.59-1.18,1.13-2.15,1.41-1.9.54-3.81-.42-4.48-2.76Zm4.82-2c-.41-1.43-1.27-2.03-2.38-1.71-1,.29-1.67,1.35-1.42,2.79l3.8-1.08Z"/>
    <path d="m1061.04,3147.02l.37-.96c.76.32,1.49.49,2.35.25.94-.27,1.26-.9,1.09-1.51-.21-.73-1.14-.82-2.02-.89-1.1-.08-2.37-.25-2.71-1.46-.32-1.14.34-2.29,1.89-2.72.89-.25,1.77-.11,2.45.17l-.36.94c-.59-.22-1.18-.35-1.81-.17-.9.25-1.18.85-1.02,1.4.19.68,1.04.72,1.93.79,1.14.1,2.41.19,2.79,1.55.33,1.16-.32,2.38-2,2.86-1.01.29-2.11.14-2.94-.23Z"/>
    <path d="m1072.06,3143.97h-.04s.1.78.1.78l-.96.27-2.97-10.46,1.21-.34.81,2.86.32,1.29c.49-.75,1.17-1.41,1.96-1.63,1.84-.52,3.24.63,3.86,2.83.69,2.44-.36,4.27-2,4.74-.66.19-1.5.06-2.29-.34Zm3.05-4.03c-.45-1.57-1.28-2.48-2.63-2.1-.6.17-1.14.68-1.63,1.51l1.06,3.74c.78.37,1.48.38,1.95.25,1.18-.33,1.75-1.65,1.25-3.41Z"/>
    <path d="m1076.39,3133.4c-.13-.47.14-.88.61-1.02s.92.07,1.06.54c.13.46-.14.88-.61,1.02-.47.13-.93-.09-1.05-.54Zm.86,2.18l1.21-.34,2.03,7.13-1.21.34-2.03-7.13Z"/>
    <path d="m1082.47,3139.43l-1.12-3.95-1.06.3-.26-.91,1.1-.39-.42-2.04,1.01-.29.57,2,1.93-.55.28.98-1.93.55,1.13,3.97c.25.87.67,1.3,1.5,1.06.25-.07.55-.26.76-.42l.49.84c-.36.25-.8.51-1.25.64-1.52.43-2.31-.38-2.71-1.8Z"/>
    <path d="m1091.69,3138.4h-.04s.1.78.1.78l-.96.27-2.97-10.46,1.21-.34.81,2.86.32,1.29c.49-.75,1.17-1.41,1.96-1.63,1.84-.52,3.24.63,3.87,2.83.69,2.44-.36,4.27-2,4.74-.66.19-1.5.06-2.29-.34Zm3.05-4.03c-.45-1.57-1.29-2.48-2.63-2.1-.61.17-1.14.68-1.63,1.52l1.06,3.74c.78.37,1.48.38,1.95.25,1.18-.34,1.75-1.65,1.25-3.41Z"/>
    <path d="m1098.96,3140.29l-.04-1.03c.16,0,.39,0,.57-.05.81-.23,1.13-1.02,1.17-1.99v-.57s-4.88-6.34-4.88-6.34l1.25-.35,2.58,3.54c.4.56.85,1.22,1.27,1.81l.06-.02c.02-.71.01-1.49.03-2.18l.15-4.31,1.18-.34-.5,8.49c-.1,1.56-.53,2.84-1.96,3.25-.33.09-.62.11-.88.09Z"/>
    <path d="m1109.55,3133.33h-.04s.1.78.1.78l-.96.27-2.97-10.46,1.21-.34.81,2.86.32,1.29c.49-.75,1.17-1.4,1.96-1.63,1.84-.52,3.24.63,3.87,2.83.69,2.44-.37,4.27-2,4.74-.66.19-1.5.06-2.29-.34Zm3.05-4.03c-.45-1.57-1.29-2.48-2.63-2.1-.61.17-1.14.68-1.63,1.51l1.06,3.74c.78.36,1.48.38,1.95.25,1.18-.33,1.75-1.65,1.25-3.41Z"/>
    <path d="m1113.88,3122.76c-.13-.47.14-.88.61-1.02.47-.13.92.07,1.06.54.13.46-.14.88-.61,1.02-.47.13-.93-.09-1.05-.54Zm.86,2.18l1.21-.34,2.03,7.13-1.21.34-2.03-7.13Z"/>
    <path d="m1119.96,3128.78l-1.12-3.95-1.06.3-.26-.91,1.1-.39-.42-2.04,1.01-.29.57,2,1.93-.55.28.98-1.93.55,1.13,3.97c.25.87.67,1.3,1.5,1.06.25-.07.55-.26.76-.42l.49.84c-.36.25-.8.51-1.25.64-1.52.43-2.31-.38-2.71-1.8Z"/>
  </g>
  <g id="Get_to_know_the_bits" data-name="Get to know the bits">
    <g>
      <g>
        <path class="cls-1" d="m935.01,3084.35c-.92,0-1.79-.12-2.59-.36l-9.06-1.78c-.58-.06-1.09-.17-1.56-.32-.03-.01-.07-.02-.1-.03-2.64-.87-5.75-3.53-5.75-11.25v-9.77l-2.93-.58c-.74-.15-1.28-.8-1.28-1.56v-7.2c0-.66.41-1.26,1.03-1.49l3.82-1.42.95-8c.08-.63.52-1.16,1.13-1.34l7.55-2.23c.15-.04.3-.06.45-.06.1,0,.21,0,.31.03l10.54,2.07c.74.15,1.28.8,1.28,1.56v3.71l2.6.51c2.92-3.72,6.74-6.41,10.86-7.63,1.53-.45,3.04-.68,4.51-.68.96,0,1.91.1,2.81.29.02,0,10.6,2.08,10.6,2.08.05,0,.09.02.14.03,5.97,1.39,9.53,6.81,9.53,14.5,0,11.97-8.13,20.63-16.16,23-1.53.45-3.04.68-4.52.68-.92,0-1.81-.09-2.67-.27-.04,0-.09-.01-.13-.02l-9.5-1.9c-.19-.02-.37-.05-.56-.09l.82,3.76c.14.65-.14,1.33-.71,1.68-1.84,1.16-4.14,2.46-7.25,3.38-1.5.44-2.9.67-4.15.67Z"/>
        <path class="cls-3" d="m956.76,3038.13c.88,0,1.73.09,2.55.27h0s10.04,1.97,10.04,1.97c.14.02.27.05.4.08l.11.02s0,0,0,0c4.82,1.09,8.38,5.38,8.38,12.98,0,10.8-7.22,19.18-15.02,21.48-1.39.41-2.76.61-4.07.61-.86,0-1.69-.09-2.49-.26h0s-9.56-1.9-9.56-1.9c-.52-.07-1.03-.17-1.52-.3h-.03s0,0,0,0c-.48-.13-.95-.3-1.4-.5l1.4,6.39c-1.64,1.03-3.86,2.32-6.85,3.2-1.38.41-2.61.6-3.7.6-.83,0-1.58-.11-2.25-.33h0s-9.15-1.79-9.15-1.79c-.48-.05-.93-.13-1.34-.26h-.02c-3.29-1.07-4.7-4.64-4.7-9.77v-11.08l-4.21-.83v-7.2l4.72-1.76,1.07-8.96,7.55-2.23,10.54,2.07v5.01l4.85.95c2.8-3.89,6.64-6.67,10.64-7.85,1.39-.41,2.75-.61,4.07-.61m-13.22,34.14c-3.49-1.85-5.86-5.84-5.86-12.03,0-1.24.11-2.45.29-3.62l-.77.23v13.03c0,.42.02.81.06,1.16l6.27,1.23m13.22-37.31s0,0,0,0c-1.62,0-3.29.25-4.96.74-4.15,1.22-8.01,3.82-11.04,7.41l-.38-.07v-2.4c0-1.52-1.07-2.82-2.56-3.12l-10.54-2.07c-.2-.04-.41-.06-.61-.06-.3,0-.61.04-.9.13l-7.55,2.23c-1.22.36-2.11,1.41-2.26,2.67l-.84,7.03-2.91,1.09c-1.24.46-2.07,1.65-2.07,2.98v7.2c0,1.52,1.07,2.82,2.56,3.12l1.65.32v8.46c0,8.56,3.6,11.64,6.71,12.72.11.04.23.08.35.12.52.16,1.08.27,1.7.34l8.93,1.75c.92.27,1.92.4,2.96.4,1.41,0,2.96-.25,4.6-.73,3.31-.98,5.83-2.42,7.64-3.56,1.13-.71,1.7-2.06,1.41-3.37l-.31-1.41,7.69,1.53c.06.01.12.02.19.03.95.19,1.93.29,2.93.29,1.62,0,3.29-.25,4.97-.74,8.59-2.53,17.29-11.77,17.29-24.52,0-8.47-4-14.45-10.71-16.04-.08-.02-.16-.04-.24-.06l-.09-.02c-.15-.03-.3-.06-.46-.09l-10.01-1.97s-.04,0-.06-.01c-1-.21-2.04-.32-3.1-.32h0Z"/>
      </g>
      <g>
        <path class="cls-1" d="m997.41,3065.65c-.1,0-.21,0-.31-.03l-10.54-2.07c-.74-.15-1.28-.8-1.28-1.56v-45.95c0-.7.46-1.32,1.14-1.52l8.93-2.63c.15-.04.3-.06.45-.06.1,0,.21,0,.31.03l10.54,2.07c.74.15,1.28.8,1.28,1.56v6.11l7.35-2.17c.15-.04.3-.06.45-.06.1,0,.21,0,.31.03l3.8.75v-.87c0-.7.46-1.32,1.14-1.52l7.45-2.2c.15-.04.3-.06.45-.06.1,0,.21,0,.31.03l2.75.54c2.32-2.25,4.71-3.72,7.28-4.47,1.22-.36,2.38-.54,3.44-.54.41,0,.81.03,1.2.08.08,0,.15.01.23.03l10.72,2.1c.74.14,1.42.39,2.05.74,2.9-5.59,7.87-9.93,13.38-11.55,1.53-.45,3.05-.68,4.52-.68,1.05,0,2.07.12,3.05.35l9.67,1.9c.55.09,1.09.21,1.62.37l-1.21-4.76c-.21-.83.27-1.67,1.09-1.92l9.08-2.68c.15-.04.3-.06.45-.06.1,0,.21,0,.31.03l7.28,1.43.65-3.08c.12-.57.54-1.03,1.11-1.2l7.93-2.34c.15-.04.3-.06.45-.06.1,0,.21,0,.31.03l7.54,1.48.58-3.16c.11-.59.54-1.07,1.11-1.24l8.44-2.49c.15-.04.3-.06.45-.06.1,0,.21,0,.31.03l10.54,2.07c.42.08.78.33,1.02.68s.32.79.23,1.21l-7.37,34.72c-.12.57-.54,1.03-1.1,1.19l-10.7,3.15c-.15.04-.3.06-.45.06-.1,0-.21,0-.31-.03l-6.6-1.3-.53,2.69c-.11.58-.54,1.05-1.11,1.22l-10.45,3.08c-.15.04-.3.06-.45.06-.1,0-.21,0-.31-.03l-10.54-2.07c-.6-.12-1.08-.57-1.23-1.17l-.15-.6c-2.82,5.95-7.92,10.66-13.77,12.39-1.53.45-3.04.68-4.52.68-.89,0-1.78-.09-2.62-.25-.06,0-.13-.01-.19-.03l-9.59-1.91c-.5-.07-1.01-.17-1.5-.3-.04-.01-.08-.02-.13-.04h0c-.62-.17-1.21-.38-1.77-.64v6.51c0,.7-.46,1.32-1.14,1.52l-9.13,2.69c-.15.04-.3.06-.45.06-.1,0-.21,0-.31-.03l-7.64-1.5v2.75c0,.7-.46,1.32-1.14,1.52l-9.13,2.69c-.15.04-.3.06-.45.06-.1,0-.21,0-.31-.03l-3.05-.6c.1.32.1.66,0,.98-.17.49-.56.87-1.06,1.02l-9.89,2.92c-.15.04-.3.06-.45.06-.1,0-.21,0-.31-.03l-8.95-1.76v3.4c0,.7-.46,1.32-1.14,1.52l-8.93,2.63c-.15.04-.3.06-.45.06Zm22.42-22.81v-7.03l-2.43,3.74,2.43,3.29Z"/>
        <path class="cls-3" d="m1134.63,2985.88l10.54,2.07-7.37,34.72-10.7,3.15-8.15-1.6-.83,4.25-10.45,3.08-10.54-2.07-1.46-5.74c-1.83,8.29-7.92,14.47-14.45,16.39-1.39.41-2.76.61-4.07.61-.86,0-1.69-.09-2.49-.26h0s-9.64-1.91-9.64-1.91c-.47-.06-.92-.15-1.37-.27l-.1-.02h0c-1.4-.4-2.68-1.06-3.79-2.01v9.4l-9.13,2.69-9.54-1.87v4.69l-9.13,2.69-6.95-1.36,2.07,2.8-9.89,2.92-10.54-2.07-.31-.06v5.33l-8.93,2.63-10.54-2.07v-45.95l8.93-2.63,10.54,2.07v8.23l9.39-2.77,5.69,1.12v-2.8l7.45-2.2,3.58.7c2.02-2.09,4.36-3.83,7.21-4.67,1.1-.32,2.1-.48,2.99-.48.39,0,.77.03,1.12.09h0s.1.01.1.01c.07.01.13.02.2.04l10.42,2.04h0c1.19.23,2.17.81,2.94,1.68,2.61-6.32,7.78-10.92,13.24-12.53,1.39-.41,2.76-.61,4.07-.61.93,0,1.82.1,2.68.31l9.73,1.91c1.58.25,3.04.83,4.31,1.74l-2.06-8.08,9.08-2.68,8.82,1.73.97-4.62,7.93-2.34,9.12,1.79.87-4.74,8.44-2.49m-113.21,61.78v-17.2l-5.95,9.15,5.95,8.05m113.21-64.96c-.3,0-.61.04-.9.13l-8.44,2.49c-1.15.34-2.01,1.29-2.23,2.47l-.29,1.57-5.96-1.17c-.2-.04-.41-.06-.61-.06-.3,0-.61.04-.9.13l-7.93,2.34c-1.12.33-1.97,1.25-2.21,2.4l-.32,1.55-5.74-1.13c-.2-.04-.41-.06-.61-.06-.3,0-.61.04-.9.13l-9.08,2.68c-1.64.48-2.6,2.18-2.18,3.83l.58,2.27-8.81-1.73c-1.07-.25-2.2-.38-3.35-.38-1.62,0-3.29.25-4.97.74-5.47,1.61-10.46,5.71-13.62,11.05-.31-.1-.62-.18-.94-.25-.04,0-.07-.02-.11-.02l-10.4-2.04c-.08-.02-.16-.03-.24-.05l-.08-.02c-.13-.03-.26-.04-.38-.05-.44-.06-.89-.09-1.36-.09-1.21,0-2.52.2-3.89.61-2.59.76-5,2.17-7.32,4.28l-1.95-.38c-.2-.04-.41-.06-.61-.06-.3,0-.61.04-.9.13l-7.45,2.2c-1.01.3-1.78,1.06-2.11,2.02l-2.08-.41c-.2-.04-.41-.06-.61-.06-.3,0-.61.04-.9.13l-5.31,1.57v-3.99c0-1.52-1.07-2.82-2.56-3.12l-10.54-2.07c-.2-.04-.41-.06-.61-.06-.3,0-.61.04-.9.13l-8.93,2.63c-1.35.4-2.28,1.64-2.28,3.05v45.95c0,1.52,1.07,2.82,2.56,3.12l10.54,2.07c.2.04.41.06.61.06.3,0,.61-.04.9-.13l8.93-2.63c1.35-.4,2.28-1.64,2.28-3.05v-1.47l7.06,1.39c.2.04.41.06.61.06.3,0,.61-.04.9-.13l9.89-2.92c.86-.25,1.56-.85,1.95-1.64l1.41.28c.2.04.41.06.61.06.3,0,.61-.04.9-.13l9.13-2.69c1.35-.4,2.28-1.64,2.28-3.05v-.82l5.75,1.13c.2.04.41.06.61.06.3,0,.61-.04.9-.13l9.13-2.69c1.35-.4,2.28-1.64,2.28-3.05v-4.27c.51.13,1.03.24,1.55.31l9.54,1.9c.09.02.18.03.27.04.92.18,1.88.27,2.85.27,1.62,0,3.29-.25,4.97-.74,5.59-1.65,10.42-5.64,13.54-10.89.27.14.56.24.86.3l10.54,2.07c.2.04.41.06.61.06.3,0,.61-.04.9-.13l10.45-3.08c1.14-.33,1.99-1.27,2.22-2.44l.22-1.13,5.04.99c.2.04.41.06.61.06.3,0,.61-.04.9-.13l10.7-3.15c1.12-.33,1.97-1.25,2.21-2.39l7.37-34.72c.18-.83.01-1.7-.46-2.41s-1.2-1.2-2.04-1.37l-10.54-2.07c-.2-.04-.41-.06-.61-.06h0Z"/>
      </g>
      <g>
        <path class="cls-1" d="m829.86,3114.98c-.86,0-1.7-.06-2.5-.17-.09,0-.17-.01-.26-.03l-10.52-2.07s-.09-.02-.13-.03c-7.82-1.31-12.3-8.01-12.3-18.4,0-13.89,8.59-26.13,20.88-29.75,1.89-.56,3.73-.84,5.47-.84,1.34,0,2.64.17,3.88.5l10.2,1.97c.11.02.21.05.3.09,1.78.47,3.42,1.28,4.88,2.4.61.47.79,1.31.44,1.98,2.58-2.86,5.75-5.01,9.12-6,1.59-.47,3.11-.71,4.51-.71.24,0,.47,0,.7.02.06,0,.12,0,.17.01.87.06,1.69.22,2.45.46l7.36,1.41v-3.33c0-.66.41-1.26,1.03-1.49l3.82-1.42.95-8c.08-.63.52-1.16,1.13-1.34l7.55-2.23c.15-.04.3-.06.45-.06.1,0,.21,0,.31.03l10.54,2.07c.74.15,1.28.8,1.28,1.56v3.7l6.11,1.2c.74.15,1.28.8,1.28,1.56v7.57c0,.7-.46,1.32-1.14,1.52l-6.25,1.84v11.69l5.64,1.11c.62.12,1.11.6,1.25,1.22l1.44,6.58c.14.65-.14,1.33-.71,1.68-1.84,1.16-4.14,2.46-7.25,3.38-1.5.44-2.9.67-4.15.67-.92,0-1.79-.12-2.58-.36l-9.07-1.78c-.58-.06-1.09-.17-1.57-.32-.03-.01-.07-.02-.1-.03-.88-.29-1.86-.8-2.75-1.68l1.93,3.14c.38.62.29,1.42-.22,1.94-3.32,3.41-7.67,6.14-11.62,7.31-1.8.53-3.55.8-5.21.8-.77,0-1.52-.06-2.24-.17-.05,0-.11-.01-.17-.02l-9.92-1.98c-.63-.08-1.25-.21-1.85-.37-.02,0-.05-.01-.07-.02h0c-.45-.13-.88-.28-1.3-.46v1.99c0,.34-.11.68-.32.96-3.29,4.36-8.72,8.08-14.18,9.69-2.34.69-4.59,1.04-6.69,1.04Zm-2.45-18.93c.15,1.24.41,2.31.77,3.22.39-.23.74-.48,1.04-.74v-2.12l-1.8-.35Zm52.18-7.41c.18.04.35.1.51.2-.26-.53-.49-1.12-.68-1.78l-3.16.93,3.33.65Zm-40.36-11.15c-.75,0-1.56.13-2.46.4-2.46.72-4.58,2.26-6.21,4.43l7.92-2.34c.15-.04.3-.06.45-.06.1,0,.21,0,.31.03l5.29,1.04c.29-1.05.64-2.08,1.06-3.08l-.29.45c-.23.36-.6.62-1.02.71-.11.02-.22.03-.33.03-.31,0-.62-.09-.89-.27-1.4-.95-2.52-1.34-3.84-1.34Z"/>
        <path class="cls-3" d="m889.45,3049.54l10.54,2.07v5.01l7.39,1.45v7.57l-7.39,2.18v13.03c0,.42.02.81.06,1.16l6.86,1.35,1.44,6.58c-1.64,1.03-3.86,2.32-6.85,3.2-1.38.41-2.61.6-3.7.6-.83,0-1.58-.11-2.25-.33h0s-9.15-1.79-9.15-1.79c-.48-.05-.93-.13-1.34-.26h-.02s0,0,0,0c-2.48-.8-3.89-3.03-4.43-6.28l-10.99,3.24,9.68,1.9,3.02,4.92c-3.16,3.24-7.28,5.81-10.94,6.89-1.67.49-3.26.74-4.76.74-.72,0-1.42-.06-2.09-.17h0s-9.98-1.99-9.98-1.99c-.58-.07-1.14-.18-1.68-.34h-.05c-1.24-.37-2.36-.95-3.33-1.73v4.78c-2.79,3.71-7.71,7.45-13.36,9.12-2.19.65-4.29.97-6.25.97-.84,0-1.65-.06-2.44-.18,0,0-.02,0-.02,0l-10.52-2.07h0c-6.67-1.05-11.15-6.52-11.15-16.87,0-14.18,8.93-25.04,19.74-28.23,1.84-.54,3.51-.78,5.02-.78,1.31,0,2.5.17,3.57.47h0s9.39,1.81,9.39,1.81c.09.02.18.03.26.05l.54.11h-.02c1.81.46,3.32,1.25,4.54,2.19l-4.83,7.62c-1.38-.93-2.83-1.61-4.73-1.61-.87,0-1.83.14-2.91.46-4,1.18-7.24,4.27-9.06,8.59l11.68-3.44,6.79,1.33c1.7-8.37,7.77-14.86,14.05-16.71,1.48-.44,2.83-.64,4.06-.64.23,0,.45,0,.68.02h0s.02,0,.02,0c.8.05,1.54.19,2.23.43l8.88,1.7h0c.16.02.32.04.47.07v-5.23l4.72-1.76,1.07-8.96,7.55-2.23m-24.52,41.46c1.04-.59,2.06-1.33,3.1-2.23l-3.41,1.01c.08.44.19.84.31,1.22m-37.46,10.39c1.3-.52,2.54-1.3,3.33-2.2v-4.09l-5.12-1.01c.09,3.1.69,5.56,1.8,7.29m61.98-55.02c-.3,0-.61.04-.9.13l-7.55,2.23c-1.22.36-2.11,1.41-2.26,2.67l-.84,7.03-2.91,1.09c-1.24.46-2.07,1.65-2.07,2.98v1.41l-5.38-1.03c-.87-.27-1.8-.44-2.78-.51-.02,0-.04,0-.06,0h0c-.29-.02-.58-.03-.88-.03-1.56,0-3.23.26-4.96.77-2.87.85-5.56,2.4-7.92,4.48-.07-.07-.15-.14-.24-.2-1.6-1.23-3.4-2.12-5.36-2.65-.16-.06-.32-.1-.49-.14l-.54-.11c-.08-.02-.19-.04-.31-.06l-9.3-1.8c-1.35-.36-2.77-.54-4.23-.54-1.89,0-3.89.3-5.92.9-12.96,3.82-22.02,16.68-22.02,31.28,0,11.22,4.93,18.47,13.55,19.95.06.01.11.03.17.04l10.52,2.07c.14.03.27.04.41.05.86.12,1.75.18,2.65.18,2.26,0,4.66-.37,7.15-1.1,5.86-1.73,11.47-5.56,15-10.26.38-.5.6-1.1.63-1.73.45.1.92.19,1.38.25l9.87,1.97c.09.02.18.03.27.04.79.12,1.61.19,2.45.19,1.8,0,3.71-.29,5.65-.87,4.2-1.24,8.81-4.13,12.31-7.72.7-.72,1-1.7.87-2.65.15.02.3.04.45.06l8.93,1.76c.92.27,1.92.4,2.96.4,1.41,0,2.96-.25,4.6-.73,3.31-.98,5.83-2.42,7.64-3.56,1.13-.71,1.7-2.06,1.41-3.37l-1.44-6.58c-.27-1.24-1.25-2.19-2.49-2.44l-4.36-.86v-9.19l5.11-1.51c1.35-.4,2.28-1.64,2.28-3.05v-7.57c0-1.52-1.07-2.82-2.56-3.12l-4.83-.95v-2.4c0-1.52-1.07-2.82-2.56-3.12l-10.54-2.07c-.2-.04-.41-.06-.61-.06h0Z"/>
      </g>
      <g>
        <path class="cls-1" d="m902.22,3168.71c-.92,0-1.79-.12-2.59-.36l-9.07-1.78c-.58-.06-1.09-.17-1.56-.32-.03-.01-.07-.02-.1-.03-2.64-.87-5.75-3.53-5.75-11.25v-9.77l-2.93-.58c-.74-.15-1.28-.8-1.28-1.56v-7.19c0-.66.41-1.26,1.03-1.49l3.82-1.42.95-8c.08-.63.52-1.16,1.13-1.34l7.55-2.23c.15-.04.3-.06.45-.06.1,0,.21,0,.31.03l10.54,2.07c.74.15,1.28.8,1.28,1.56v6.52l.21-.06v-17.4c0-.7.46-1.32,1.14-1.52l9.13-2.69c.15-.04.3-.06.45-.06.1,0,.21,0,.31.03l10.54,2.07c.74.15,1.28.8,1.28,1.56v5.8c.81,0,1.58.11,2.29.32l9.75,1.87s.07.02.11.02c.72.14,1.38.38,1.99.72,2.87-5.57,7.66-9.84,12.87-11.38,1.59-.47,3.11-.71,4.51-.71.24,0,.47,0,.7.02.06,0,.11,0,.17.01.87.06,1.69.22,2.45.47l8.73,1.67c5.81.76,9.14,5.82,9.14,13.88,0,1.79-.21,3.72-.42,4.7-.12.57-.54,1.03-1.11,1.2l-7.25,2.14,3.33.65c.44.09.82.35,1.05.73l3.02,4.92c.38.62.29,1.42-.22,1.94-3.32,3.41-7.67,6.14-11.62,7.31-1.8.53-3.55.8-5.21.8-.77,0-1.52-.06-2.25-.18-.05,0-.11-.01-.16-.02l-9.92-1.98c-.63-.08-1.26-.21-1.85-.37-.02,0-.05-.01-.07-.02h0c-.48-.14-.94-.3-1.38-.49v6.44c0,.7-.46,1.32-1.14,1.52l-9.13,2.69c-.15.04-.3.06-.45.06-.1,0-.21,0-.31-.03l-7.64-1.5v2.75c0,.7-.46,1.32-1.14,1.52l-9.13,2.69c-.15.04-.3.06-.45.06-.1,0-.21,0-.31-.03l-3.72-.73.02.08c.14.65-.14,1.33-.71,1.68-1.84,1.16-4.14,2.46-7.25,3.38-1.5.44-2.9.67-4.15.67Zm3.99-14.59v-11.79l-.21.06v11.69l.21.04Z"/>
        <path class="cls-3" d="m916.94,3111.36l10.54,2.07v7.54c.56-.1,1.09-.15,1.59-.15.72,0,1.38.1,1.97.3h0s9.77,1.87,9.77,1.87h0c1.21.22,2.2.79,2.99,1.67,2.58-6.21,7.59-10.83,12.73-12.34,1.48-.44,2.83-.64,4.06-.64.23,0,.46,0,.68.02h0s.02,0,.02,0c.8.05,1.54.19,2.23.43l8.88,1.7h0c5.21.66,7.8,5.46,7.8,12.32,0,1.74-.2,3.53-.38,4.37l-13.47,3.97,9.68,1.9,3.02,4.92c-3.16,3.24-7.28,5.81-10.94,6.89-1.67.49-3.26.74-4.76.74-.72,0-1.42-.06-2.09-.17h0s-9.98-1.99-9.98-1.99c-.58-.07-1.14-.18-1.68-.34h-.05c-1.27-.38-2.42-.97-3.41-1.8v9.25l-9.13,2.69-9.54-1.87v4.69l-9.13,2.69-6.1-1.2.54,2.44c-1.64,1.03-3.86,2.32-6.85,3.2-1.38.41-2.61.6-3.7.6-.83,0-1.58-.11-2.25-.33h0s-9.15-1.79-9.15-1.79c-.48-.05-.93-.13-1.34-.26h-.02s0,0,0,0c-3.29-1.06-4.7-4.63-4.7-9.76v-11.08l-4.21-.83v-7.2l4.72-1.76,1.07-8.96,7.55-2.23,10.54,2.07v8.64l3.39-1v-18.59l9.13-2.69m44.74,25.8c1.04-.59,2.06-1.33,3.1-2.23l-3.41,1.01c.08.44.19.84.31,1.22m-53.88,18.89v-15.85l-3.39,1v13.03c0,.42.02.81.06,1.16l3.32.65m9.13-47.87c-.3,0-.61.04-.9.13l-9.13,2.69c-1.35.4-2.28,1.64-2.28,3.05v7.75l-10.13-1.99c-.2-.04-.41-.06-.61-.06-.3,0-.61.04-.9.13l-7.55,2.23c-1.22.36-2.11,1.41-2.26,2.67l-.84,7.03-2.91,1.09c-1.24.46-2.07,1.65-2.07,2.98v7.2c0,1.52,1.07,2.82,2.56,3.12l1.65.32v8.46c0,8.55,3.6,11.64,6.71,12.72.12.05.23.08.36.12.52.16,1.08.27,1.69.34l8.93,1.75c.92.27,1.92.4,2.96.4,1.41,0,2.96-.25,4.6-.73,3.32-.98,5.83-2.42,7.64-3.56.49-.31.88-.74,1.13-1.24l2.12.42c.2.04.41.06.61.06.3,0,.61-.04.9-.13l9.13-2.69c1.35-.4,2.28-1.64,2.28-3.05v-.82l5.75,1.13c.2.04.41.06.61.06.3,0,.61-.04.9-.13l9.13-2.69c1.35-.4,2.28-1.64,2.28-3.05v-4.25c.48.11.96.2,1.46.27l9.87,1.97c.09.02.17.03.26.04.79.13,1.61.19,2.45.19,1.8,0,3.71-.29,5.66-.87,4.2-1.24,8.81-4.13,12.31-7.72,1.02-1.04,1.19-2.64.43-3.88l-3.02-4.92c-.11-.17-.23-.33-.36-.48l2.33-.69c1.12-.33,1.97-1.25,2.21-2.4.22-1.03.45-3.04.45-5.02,0-8.79-3.9-14.55-10.44-15.45l-8.63-1.65c-.87-.27-1.8-.44-2.78-.51-.02,0-.05,0-.07,0-.28-.02-.57-.03-.86-.03-1.56,0-3.23.26-4.96.77-5.2,1.53-10.01,5.57-13.12,10.88-.31-.1-.62-.18-.95-.25-.05-.01-.1-.02-.15-.03l-9.68-1.86c-.35-.1-.71-.18-1.08-.24v-4.34c0-1.52-1.07-2.82-2.56-3.12l-10.54-2.07c-.2-.04-.41-.06-.61-.06h0Z"/>
      </g>
      <g>
        <path class="cls-1" d="m1000.67,3139.39c-.1,0-.21,0-.31-.03l-10.54-2.07c-.74-.15-1.28-.8-1.28-1.56v-42.75c0-.7.46-1.32,1.14-1.52l13.86-4.09c.57-.17,1.12-.32,1.67-.46.01,0,.03,0,.04,0,.4-.1.8-.19,1.19-.28,0,0,.1-.02.1-.02.39-.08.77-.16,1.15-.23,0,0,.13-.02.13-.02.77-.13,1.52-.23,2.22-.29,0,0,.15-.01.15-.01.36-.03.71-.04,1.05-.05h.27c.27,0,.54,0,.81.02.42.02.74.06,1.06.1,0,0,.14.02.15.02.33.05.65.11.96.18,0,0,9.72,1.91,9.73,1.91,1.76.29,3.21.95,4.31,1.98l5.14-1.52-4.28-.84c-2.54-.34-4.24-2.41-4.24-5.26,0-3.67,2.64-7.01,6.43-8.12.74-.22,1.47-.33,2.16-.33.47,0,.93.05,1.36.15l10.21,2c.44.07.86.2,1.25.37.2-.32.52-.57.9-.68l7.55-2.23c.15-.04.3-.06.45-.06.1,0,.21,0,.31.03l10.54,2.07c.74.15,1.28.8,1.28,1.56v6.06c2.12-4.14,6.19-7.33,11.35-8.85,1.67-.49,3.32-.74,4.9-.74.65,0,1.31.04,1.95.13,0,0,.02,0,.03,0,.1,0,.19,0,.29.03l11.88,2.33-.51-7.83-.31-8.67c-.03-.73.44-1.38,1.14-1.58l9.16-2.7c.15-.04.3-.06.45-.06.1,0,.21,0,.31.03l10.54,2.07c.76.15,1.31.83,1.28,1.61l-.31,8.81-1.28,20.48c-.04.67-.5,1.24-1.14,1.42l-3.32.98,2.31.45c2.8.39,4.67,2.83,4.67,6.2,0,4.13-2.86,8.09-6.65,9.21-.67.2-1.33.3-1.97.3-.52,0-1.02-.07-1.5-.19l-9.79-1.91c-2.22,4.31-6.59,7.66-12.2,9.32-1.61.48-3.32.72-5.08.72-1.24,0-2.46-.12-3.65-.36-.07,0-.13-.01-.19-.02l-4.39-.86.36,1.63c.14.65-.14,1.33-.71,1.68-1.84,1.16-4.14,2.46-7.25,3.38-1.5.44-2.9.67-4.15.67-.92,0-1.79-.12-2.58-.36l-9.07-1.78c-.58-.06-1.09-.17-1.56-.31-.03,0-.06-.02-.1-.03-.65-.21-1.25-.5-1.79-.87v6.39c0,.7-.46,1.32-1.14,1.52l-9.13,2.69c-.15.04-.3.06-.45.06-.1,0-.21,0-.31-.03l-8.41-1.65c-2.95,3.66-7.57,6.55-13.15,8.19l-15.02,4.43c-.15.04-.3.06-.45.06Zm66.93-35.73l1.18-2.08c.29-.5.82-.8,1.38-.8.1,0,.2,0,.31.03l6.48,1.27c.26-.05.5-.1.71-.17,1.83-.54,2.75-1.35,2.75-2.42,0-.01,0-.03,0-.04l-4.62-.96-.21-.02c-1.46-.17-2.71-.43-3.8-.81-.02,0-.04-.01-.06-.02-1.79-.63-3.17-1.59-4.13-2.85v8.86Zm24.63-17.16c-.54,0-1.05.07-1.56.22-1.09.32-2.38.95-2.38,2.11.33.38,2.31.54,3.49.63.37.03.76.06,1.14.09,2.2.21,4.6.62,6.5,1.94.69-.64,1.45-1.17,2.26-1.56l-1.64-.32c-.71-.14-1.23-.74-1.28-1.46l-.14-2.22-.54.92c-.29.5-.82.79-1.37.79-.23,0-.46-.05-.68-.15-1.42-.67-2.67-1-3.8-1Z"/>
        <path class="cls-3" d="m1107.93,3057.05l10.54,2.07-.31,8.81-1.27,20.43-6,1.77-10.54-2.07-.48-7.4-3.16,5.41c-1.51-.71-3-1.15-4.48-1.15-.67,0-1.34.09-2.01.29-2.36.7-3.52,2.01-3.52,3.64,0,2.08,2.89,2.02,6.08,2.3,2.47.24,5.14.74,6.77,2.58.97-1.29,2.29-2.28,3.8-2.73.53-.16,1.03-.23,1.51-.23.21,0,.41.01.6.04h0s.02,0,.02,0c.11.02.22.04.32.06l10.21,2.01c2.03.29,3.39,2.04,3.39,4.64,0,3.41-2.35,6.75-5.51,7.69-.53.16-1.04.23-1.52.23-.4,0-.78-.05-1.14-.15h0s-10.14-1.98-10.14-1.98h0c-.32-.06-.62-.15-.9-.28-1.67,4.18-5.66,7.88-11.77,9.68-1.5.44-3.08.65-4.63.65-1.2,0-2.39-.12-3.51-.36-.01,0-.03.01-.03.01l-6.76-1.33.87,3.99c-1.64,1.03-3.86,2.32-6.85,3.2-1.38.41-2.61.6-3.7.6-.83,0-1.58-.11-2.25-.33h0s-9.15-1.79-9.15-1.79c-.48-.05-.93-.13-1.34-.26h-.02s0,0,0,0c-1.91-.61-3.18-2.08-3.91-4.19v11.21l-9.13,2.69-9.38-1.84c-2.84,3.97-7.53,6.83-12.93,8.42l-15.02,4.43-10.54-2.07v-42.75h0s3.43-1.01,3.43-1.01h0l10.43-3.08c.55-.16,1.1-.31,1.63-.45,0,0,0,0,0,0h0c.39-.1.77-.19,1.15-.27.03,0,.07-.02.1-.02.37-.08.73-.15,1.09-.22.04,0,.08-.01.13-.02.72-.12,1.41-.22,2.08-.27.05,0,.09,0,.14-.01.33-.02.65-.04.96-.04,0,0,.01,0,.02,0,.01,0,.03,0,.04,0,0,0,.01,0,.02,0,.05,0,.11,0,.16,0,.25,0,.49,0,.73.02.02,0,.05,0,.07,0,.29.02.58.05.86.08.04,0,.09.01.13.02.28.04.55.09.81.16h0s9.77,1.92,9.77,1.92h0c1.76.27,3.18.97,4.15,2.23l8.55-2.52,5.54,1.09v-2.32c-.45.1-.87.15-1.27.15s-.75-.05-1.08-.13l-10.07-1.98c-1.8-.24-2.96-1.58-2.96-3.7,0-2.96,2.22-5.7,5.29-6.6.61-.18,1.18-.27,1.72-.27.35,0,.69.04,1,.11h0s10.27,2.02,10.27,2.02c1.26.2,2.19.96,2.6,2.16l.3-2.51,7.55-2.23,10.54,2.07v8.64l2.49-.73c1.67-4.16,5.6-7.61,10.9-9.18,1.62-.48,3.1-.68,4.45-.68.68,0,1.32.05,1.93.14l.03-.02,12.96,2.55-.11.09c.37.12.73.26,1.08.41l-.66-10.2-.31-8.62,9.16-2.7m-63.76,30.42l2.69-1,.23-1.95c-.65,1.21-1.66,2.25-2.92,2.96m22.83,20.46l3.17-5.56,6.77,1.33c.39-.06.79-.14,1.18-.26,2.72-.8,3.89-2.24,3.89-3.95,0-.69-.32-1.17-.86-1.51l-5.1-1.05c-.09-.01-.18-.02-.27-.03-1.16-.13-2.38-.35-3.51-.75h0c-1.68-.6-3.16-1.59-3.97-3.27l-2.27.67v13.03c0,.42.02.81.06,1.16l.92.18m-42.86.29c.07,0,.14,0,.22,0,1.13,0,2.18.19,3.11.57v-4.56c-.87,1.49-1.99,2.81-3.33,3.74v.26m83.79-54.35c-.3,0-.61.04-.9.13l-9.16,2.7c-1.39.41-2.33,1.71-2.28,3.16l.31,8.62s0,.06,0,.09l.37,5.77-9.86-1.94c-.18-.04-.36-.05-.54-.06-.67-.08-1.35-.12-2.03-.12-1.74,0-3.54.27-5.35.81-3.72,1.1-6.91,3-9.31,5.48v-1.17c0-1.52-1.07-2.82-2.56-3.12l-10.54-2.07c-.2-.04-.41-.06-.61-.06-.3,0-.61.04-.9.13l-7.55,2.23c-.31.09-.59.22-.85.39-.19-.05-.39-.09-.59-.13l-10.18-2c-.53-.12-1.09-.18-1.66-.18-.85,0-1.73.13-2.61.4-4.45,1.31-7.57,5.28-7.57,9.65,0,1.58.43,2.99,1.21,4.12-.08-.02-.17-.03-.25-.04,0,0-.01,0-.02,0l-9.71-1.91c-.31-.07-.65-.14-1.02-.19,0,0-.05,0-.05,0l-.11-.02c-.38-.05-.75-.09-1.11-.11-.02,0-.09,0-.11,0-.27-.01-.57-.02-.87-.02h-.2s-.08,0-.09,0c-.38,0-.76.02-1.14.05h-.16c-.76.07-1.56.18-2.38.32l-.15.03c-.39.07-.79.15-1.2.24l-.08.02c-.43.09-.84.19-1.25.29,0,0,0,0,0,0,0,0,0,0-.01,0,0,0-.01,0-.02,0-.57.15-1.16.31-1.75.48l-10.43,3.08-3.43,1.01c-1.35.4-2.28,1.64-2.28,3.05v42.75c0,1.52,1.07,2.82,2.56,3.12l10.54,2.07c.2.04.41.06.61.06.3,0,.61-.04.9-.13l15.02-4.43c5.6-1.65,10.15-4.39,13.31-7.98l7.48,1.47c.2.04.41.06.61.06.3,0,.61-.04.9-.13l9.13-2.69c1.35-.4,2.28-1.64,2.28-3.05v-3.92c.5.14,1.03.25,1.62.32l8.93,1.75c.92.27,1.92.4,2.96.4,1.41,0,2.96-.25,4.6-.73,3.31-.98,5.83-2.42,7.64-3.56.93-.58,1.47-1.59,1.49-2.65l2.1.41c.09.02.19.03.29.04,1.26.25,2.55.37,3.86.37,1.91,0,3.77-.26,5.53-.78,5.57-1.64,10.02-4.88,12.57-9.06l8.62,1.68c.6.16,1.22.23,1.85.23.79,0,1.6-.12,2.42-.36,4.52-1.33,7.79-5.85,7.79-10.73,0-3.05-1.33-5.55-3.5-6.86.56-.54.92-1.28.97-2.1l1.27-20.43s0-.06,0-.09l.31-8.81c.05-1.56-1.03-2.93-2.56-3.23l-10.54-2.07c-.2-.04-.41-.06-.61-.06h0Zm-38.74,45.47v-1.11c.59.34,1.23.63,1.92.88.06.02.13.05.19.07,1.2.41,2.55.7,4.12.88h.12s1.62.35,1.62.35c-.07.02-.14.04-.22.06l-6.17-1.21c-.2-.04-.41-.06-.61-.06-.33,0-.66.05-.97.15h0Z"/>
      </g>
    </g>
    <g>
      <path class="cls-2" d="m816.27,3096.35c0-14.18,8.93-25.04,19.74-28.23,5.88-1.73,10.05-.32,12.78,1.78l-4.83,7.62c-2.01-1.36-4.17-2.17-7.65-1.15-6.23,1.84-10.66,8.31-10.66,16.88s3.77,12.78,11.39,10.53c1.62-.48,3.3-1.42,4.29-2.54v-7.38l-6.71,1.98v-7.89l14.84-4.38v19.71c-2.79,3.71-7.71,7.45-13.36,9.12-11.16,3.29-19.83-1.67-19.83-16.07Z"/>
      <path class="cls-2" d="m855.77,3089.57c0-10.56,7.14-19.17,14.54-21.36,8.78-2.59,13.13,2.87,13.13,11.75,0,1.74-.2,3.53-.38,4.37l-18.44,5.44c.82,4.48,3.88,5.74,8,4.53,2.33-.69,4.43-2.05,6.67-4.09l3.02,4.92c-3.16,3.24-7.28,5.81-10.94,6.89-8.79,2.59-15.59-1.68-15.59-12.45Zm19.87-9.42c0-3.58-1.48-5.72-5.12-4.64-2.89.85-5.38,3.63-6,7.92l11.12-3.28Z"/>
      <path class="cls-2" d="m890.85,3083.65v-13.15l-4.21,1.24v-7.2l4.72-1.76,1.07-8.96,7.55-2.23v8.64l7.39-2.18v7.57l-7.39,2.18v13.03c0,3.69,1.59,4.7,3.99,3.99,1.02-.3,2.12-.93,2.93-1.48l1.44,6.58c-1.64,1.03-3.86,2.32-6.85,3.2-7.62,2.25-10.64-1.94-10.64-9.48Z"/>
      <path class="cls-2" d="m928.07,3072.68v-13.15l-4.21,1.24v-7.2l4.72-1.76,1.07-8.96,7.55-2.23v8.64l7.39-2.18v7.57l-7.39,2.18v13.03c0,3.69,1.59,4.7,3.99,3.99,1.02-.3,2.12-.93,2.93-1.48l1.44,6.58c-1.64,1.03-3.86,2.32-6.85,3.2-7.62,2.25-10.64-1.94-10.64-9.48Z"/>
      <path class="cls-2" d="m948.22,3062.31c0-10.82,7.22-19.2,15.02-21.5,7.8-2.3,15.02,1.82,15.02,12.64s-7.22,19.18-15.02,21.48c-7.8,2.3-15.02-1.82-15.02-12.62Zm20.67-6.1c0-5.63-1.88-8.73-5.66-7.62-3.78,1.11-5.66,5.32-5.66,10.96s1.88,8.71,5.66,7.6,5.66-5.3,5.66-10.93Z"/>
      <path class="cls-2" d="m997.41,3018.11l8.93-2.63v26.33l.23-.07,9.78-15.8,9.92-2.92-10.8,16.6,11.62,15.7-9.89,2.92-6.94-10.65-3.91,5.83v8.01l-8.93,2.63v-45.95Z"/>
      <path class="cls-2" d="m1031.96,3021.34l7.45-2.2.66,3.93.23-.07c2.59-3.4,5.7-6.59,9.9-7.83,6.7-1.98,9.56,2.17,9.56,10.31v20.2l-9.13,2.69v-18.97c0-4.68-1.19-5.8-3.83-5.02-2.29.68-3.7,2.22-5.71,4.85v21.95l-9.13,2.69v-32.54Z"/>
      <path class="cls-2" d="m1066.2,3027.52c0-10.82,7.22-19.2,15.02-21.5,7.8-2.3,15.02,1.82,15.02,12.64s-7.22,19.18-15.02,21.48c-7.8,2.3-15.02-1.82-15.02-12.62Zm20.67-6.1c0-5.63-1.88-8.73-5.65-7.62-3.78,1.11-5.66,5.32-5.66,10.96s1.88,8.71,5.66,7.6c3.78-1.11,5.65-5.3,5.65-10.93Z"/>
      <path class="cls-2" d="m1099.94,3001.29l9.08-2.68,2.95,14.2c.54,3.05.88,6.12,1.4,9.26l.25-.07c.54-3.46,1.08-6.89,1.83-10.21l3.36-16.06,7.93-2.34,3.46,14.05c.75,2.99,1.29,5.99,1.93,9.1l.25-.07c.54-3.46.88-6.72,1.42-10.09l2.93-15.93,8.44-2.49-7.37,34.72-10.7,3.15-2.83-12.17c-.56-2.85-1.08-5.69-1.64-9.03l-.25.07c-.54,3.66-.98,6.81-1.56,10l-2.7,13.78-10.45,3.08-7.72-30.27Z"/>
      <path class="cls-2" d="m895.28,3157.04v-13.15l-4.21,1.24v-7.2l4.72-1.76,1.07-8.96,7.55-2.23v8.64l7.39-2.18v7.57l-7.39,2.18v13.03c0,3.69,1.59,4.7,3.99,3.99,1.02-.3,2.12-.93,2.93-1.48l1.44,6.58c-1.64,1.03-3.86,2.32-6.85,3.2-7.62,2.25-10.64-1.94-10.64-9.48Z"/>
      <path class="cls-2" d="m918.34,3116.12l9.13-2.69v11.23l-.41,6.02c2.31-2.9,5.31-6.06,9.52-7.3,6.7-1.98,9.56,2.17,9.56,10.31v20.2l-9.13,2.69v-18.97c0-4.68-1.19-5.8-3.83-5.02-2.29.68-3.7,2.22-5.71,4.85v21.95l-9.13,2.69v-45.95Z"/>
      <path class="cls-2" d="m952.52,3135.74c0-10.56,7.14-19.17,14.54-21.36,8.78-2.59,13.13,2.87,13.13,11.75,0,1.74-.2,3.53-.38,4.37l-18.44,5.44c.82,4.48,3.88,5.74,8,4.53,2.33-.69,4.43-2.05,6.67-4.09l3.02,4.92c-3.16,3.24-7.28,5.81-10.94,6.89-8.79,2.59-15.59-1.68-15.59-12.45Zm19.87-9.42c0-3.58-1.48-5.72-5.12-4.64-2.89.85-5.38,3.63-6,7.92l11.12-3.28Z"/>
      <path class="cls-2" d="m1000.67,3095.05l13.86-4.09c8.41-2.48,14.94-1.97,14.94,6.2,0,3.84-2.03,8.52-5.34,10.8v.26c4.14-.09,7.33,2.19,7.33,7.9,0,8.7-6.97,14.65-15.78,17.25l-15.02,4.43v-42.75Zm13.44,13.16c4.44-1.31,6.41-3.87,6.41-6.98,0-3.29-2.07-3.96-6.34-2.7l-4.35,1.28v9.67l4.28-1.26Zm.83,17.93c4.99-1.47,7.57-4.11,7.57-7.99s-2.54-4.53-7.57-3.04l-5.12,1.51v11.04l5.12-1.51Z"/>
      <path class="cls-2" d="m1037.29,3084.66c0-2.96,2.22-5.7,5.29-6.6,3.06-.9,5.29.53,5.29,3.48s-2.22,5.7-5.29,6.6c-3.06.9-5.29-.55-5.29-3.48Zm.71,9.59l9.13-2.69v32.54l-9.13,2.69v-32.54Z"/>
      <path class="cls-2" d="m1056.88,3109.39v-13.15l-4.21,1.24v-7.2l4.72-1.76,1.07-8.96,7.55-2.23v8.64l7.39-2.18v7.57l-7.39,2.18v13.03c0,3.69,1.59,4.7,3.99,3.99,1.02-.3,2.12-.93,2.93-1.48l1.44,6.58c-1.64,1.03-3.86,2.32-6.85,3.2-7.62,2.25-10.64-1.94-10.64-9.48Z"/>
      <path class="cls-2" d="m1076.59,3111.65l4.11-7.22c2.79,1.41,5.37,1.83,7.95,1.07,2.72-.8,3.89-2.24,3.89-3.95,0-2.14-3.06-2.22-6.23-2.59-3.78-.43-8.16-1.79-8.16-7.16,0-6.06,4.66-11.56,11.78-13.66,4.72-1.39,8.24-.42,10.86.92l-4.09,7c-2.19-1.04-4.36-1.49-6.49-.86-2.36.7-3.52,2.01-3.52,3.64,0,2.08,2.89,2.02,6.08,2.3,3.9.37,8.3,1.39,8.3,7.34s-4.4,11.79-12.66,14.23c-4.06,1.2-8.71.71-11.84-1.06Z"/>
      <path class="cls-2" d="m1108.37,3100.77c0-3.43,2.35-6.77,5.51-7.71s5.51,1.02,5.51,4.46-2.35,6.75-5.51,7.69c-3.17.93-5.51-1.02-5.51-4.43Zm1.24-30.33l-.31-8.62,9.16-2.7-.31,8.81-1.27,20.43-6,1.77-1.27-19.68Z"/>
    </g>
  </g>
</svg>