<?xml version="1.0" encoding="UTF-8"?>
<svg id="Layer_2" data-name="Layer 2" xmlns="http://www.w3.org/2000/svg" viewBox="0 0 359.46 199.36">
  <defs>
    <style>
      .cls-1 {
        fill: #fff;
      }

      .cls-2 {
        fill: #1c2021;
      }

      .cls-3 {
        font-family: SourceSansRoman-Regular, 'Source Sans Variable';
        font-size: 26.95px;
        font-variation-settings: 'wght' 400;
      }

      .cls-4 {
        letter-spacing: 0em;
      }

      .cls-5 {
        letter-spacing: 0em;
      }

      .cls-6 {
        letter-spacing: 0em;
      }
    </style>
  </defs>
  <g id="bits">
    <text class="cls-3" transform="translate(83.36 183.67) rotate(-16.71)"><tspan x="0" y="0">Our em</tspan><tspan class="cls-5" x="83" y="0">p</tspan><tspan x="97.85" y="0">l</tspan><tspan class="cls-6" x="104.72" y="0">oy</tspan><tspan x="131.69" y="0">ees bit </tspan><tspan class="cls-6" x="211.13" y="0">b</tspan><tspan class="cls-4" x="225.93" y="0">y bit</tspan></text>
    <g>
      <g>
        <path class="cls-2" d="m123.19,44.7c.7,0,1.38.07,2.02.22h0s7.98,1.57,7.98,1.57c.11.02.21.04.32.06l.09.02s0,0,0,0c3.83.86,6.66,4.27,6.66,10.31,0,8.58-5.73,15.24-11.93,17.07-1.1.33-2.19.49-3.23.49-.68,0-1.35-.07-1.98-.21h0s-7.59-1.51-7.59-1.51c-.41-.05-.82-.13-1.21-.24h-.02s0,0,0,0c-.38-.11-.75-.24-1.11-.4l1.11,5.08c-1.3.82-3.07,1.84-5.44,2.54-1.1.32-2.08.48-2.94.48-.66,0-1.26-.09-1.79-.26h0s-7.27-1.43-7.27-1.43c-.38-.04-.74-.11-1.07-.21h-.02s0,0,0,0c-2.62-.84-3.73-3.68-3.73-7.75v-8.8l-3.35-.66v-5.72l3.75-1.4.85-7.12,6-1.77,8.37,1.64v3.98l3.86.76c2.22-3.09,5.28-5.3,8.45-6.24,1.1-.32,2.19-.49,3.23-.49m-10.51,27.13c-2.77-1.47-4.65-4.64-4.65-9.56,0-.99.08-1.95.23-2.88l-.61.18v10.35c0,.34.02.64.05.93l4.98.98m10.51-30.3h0c-1.35,0-2.74.21-4.13.62-3.04.9-5.89,2.69-8.24,5.15v-.6c0-1.52-1.07-2.82-2.56-3.12l-8.37-1.64c-.2-.04-.41-.06-.61-.06-.3,0-.61.04-.9.13l-6,1.77c-1.22.36-2.11,1.41-2.26,2.67l-.62,5.2-1.94.72c-1.24.46-2.07,1.65-2.07,2.98v5.72c0,1.52,1.07,2.82,2.56,3.12l.78.15v6.19c0,7.17,3.09,9.79,5.76,10.72.11.04.22.08.34.11.44.13.91.23,1.42.29l7.04,1.38c.78.22,1.63.34,2.51.34,1.18,0,2.47-.2,3.84-.61,2.71-.8,4.76-1.97,6.24-2.9,1.13-.71,1.7-2.06,1.41-3.37l-.03-.15,5.13,1.02c.06.01.11.02.17.03.79.16,1.61.24,2.44.24,1.35,0,2.74-.21,4.13-.62,7.06-2.08,14.21-9.66,14.21-20.11,0-7.05-3.36-12.04-9-13.38-.07-.02-.15-.04-.23-.05h-.06c-.12-.04-.25-.06-.37-.09l-7.95-1.56s-.03,0-.05,0c-.83-.18-1.71-.27-2.59-.27h0Z"/>
        <path class="cls-2" d="m264.54,3.18l8.37,1.64-5.86,27.59-8.5,2.51-6.48-1.27-.66,3.38-8.3,2.45-8.37-1.64-1.16-4.56c-1.45,6.58-6.3,11.5-11.48,13.03-1.1.33-2.19.49-3.23.49-.68,0-1.34-.07-1.98-.21h0s-7.66-1.52-7.66-1.52c-.37-.05-.73-.12-1.09-.22l-.08-.02h0c-1.11-.31-2.13-.84-3.01-1.6v7.47l-7.26,2.14-7.58-1.49v3.72l-7.26,2.14-5.52-1.08,1.65,2.23-7.86,2.32-8.37-1.64-.25-.05v4.23l-7.1,2.09-8.37-1.64V27.14l7.1-2.09,8.37,1.64v6.54l7.46-2.2,4.52.89v-2.22l5.92-1.75,2.85.56c1.61-1.66,3.46-3.05,5.73-3.71.88-.26,1.67-.38,2.38-.38.31,0,.61.02.89.07h0s.08,0,.08,0c.05,0,.1.02.16.03l8.28,1.62h0c.95.18,1.72.64,2.34,1.34,2.08-5.02,6.18-8.68,10.52-9.96,1.1-.33,2.19-.49,3.23-.49.74,0,1.45.08,2.13.24l7.73,1.52c1.26.2,2.42.66,3.43,1.38l-1.64-6.42,7.21-2.13,7.01,1.38.77-3.67,6.31-1.86,7.25,1.42.69-3.76,6.71-1.98m-89.96,49.09v-13.67l-4.73,7.27,4.73,6.4M264.54,0c-.3,0-.61.04-.9.13l-6.71,1.98c-1.15.34-2.01,1.29-2.23,2.47l-.11.6-4.09-.8c-.2-.04-.41-.06-.61-.06-.3,0-.61.04-.9.13l-6.31,1.86c-1.12.33-1.97,1.25-2.21,2.4l-.12.6-3.93-.77c-.2-.04-.41-.06-.61-.06-.3,0-.61.04-.9.13l-7.21,2.13c-1.64.48-2.6,2.18-2.18,3.83l.2.8-5.98-1.17c-.9-.21-1.84-.31-2.8-.31-1.35,0-2.74.21-4.13.62-4.43,1.31-8.35,4.44-10.95,8.64-.1-.02-.2-.05-.3-.07-.03,0-.07-.02-.11-.02l-8.26-1.62c-.07-.01-.13-.03-.2-.04h-.06c-.12-.04-.24-.05-.36-.06-.37-.05-.76-.07-1.14-.07-1.03,0-2.13.17-3.28.51-2.06.61-3.98,1.7-5.83,3.33l-1.23-.24c-.2-.04-.41-.06-.61-.06-.3,0-.61.04-.9.13l-5.92,1.75c-.81.24-1.47.79-1.87,1.49l-1.14-.22c-.2-.04-.41-.06-.61-.06-.3,0-.61.04-.9.13l-3.38,1v-2.29c0-1.52-1.07-2.82-2.56-3.12l-8.37-1.64c-.2-.04-.41-.06-.61-.06-.3,0-.61.04-.9.13l-7.1,2.09c-1.35.4-2.28,1.64-2.28,3.05v36.52c0,1.52,1.07,2.82,2.56,3.12l8.37,1.64c.2.04.41.06.61.06.3,0,.61-.04.9-.13l7.1-2.09c1.35-.4,2.28-1.64,2.28-3.05v-.37l4.83.95c.2.04.41.06.61.06.3,0,.61-.04.9-.13l7.86-2.32c.69-.2,1.28-.63,1.69-1.2l.67.13c.2.04.41.06.61.06.3,0,.61-.04.9-.13l7.26-2.14c1.31-.39,2.22-1.56,2.28-2.91l3.79.74c.2.04.41.06.61.06.3,0,.61-.04.9-.13l7.26-2.14c1.35-.4,2.28-1.64,2.28-3.05v-2.58c.16.03.31.05.47.08l7.56,1.51c.08.02.16.03.25.04.76.15,1.56.22,2.36.22,1.35,0,2.74-.21,4.13-.62,4.43-1.3,8.27-4.39,10.84-8.47.09.03.19.05.29.07l8.37,1.64c.2.04.41.06.61.06.3,0,.61-.04.9-.13l8.3-2.45c1.14-.33,1.99-1.27,2.22-2.44l.05-.26,3.36.66c.2.04.41.06.61.06.3,0,.61-.04.9-.13l8.5-2.51c1.12-.33,1.97-1.25,2.21-2.39l5.86-27.59c.18-.83.01-1.7-.46-2.41s-1.2-1.2-2.04-1.37l-8.37-1.64c-.2-.04-.41-.06-.61-.06h0Z"/>
        <path class="cls-2" d="m69.7,53.76l8.37,1.64v3.98l5.87,1.15v6.01l-5.87,1.73v10.35c0,.34.02.64.05.93l5.45,1.07,1.14,5.23c-1.3.82-3.07,1.84-5.44,2.54-1.1.32-2.08.48-2.94.48-.66,0-1.26-.09-1.79-.26h0s-7.27-1.43-7.27-1.43c-.38-.04-.74-.11-1.07-.21h-.02c-1.97-.64-3.09-2.41-3.52-5l-8.74,2.58,7.7,1.51,2.4,3.91c-2.51,2.57-5.79,4.62-8.69,5.48-1.33.39-2.59.59-3.78.59-.57,0-1.13-.05-1.66-.14h0s-7.93-1.58-7.93-1.58c-.46-.06-.91-.15-1.34-.27h-.04c-.98-.29-1.87-.75-2.65-1.38v3.8c-2.22,2.95-6.13,5.92-10.62,7.25-1.74.51-3.41.77-4.96.77-.67,0-1.31-.05-1.94-.14,0,0-.01,0-.01,0l-8.36-1.64h0c-5.3-.83-8.86-5.18-8.86-13.41,0-11.27,7.09-19.9,15.68-22.43,1.46-.43,2.79-.62,3.99-.62,1.04,0,1.98.14,2.84.37h0s7.46,1.44,7.46,1.44c.07.01.14.03.21.04l.43.08h-.02c1.44.36,2.64,1,3.6,1.74l-3.84,6.06c-1.1-.74-2.25-1.28-3.76-1.28-.69,0-1.45.11-2.31.37-3.18.94-5.76,3.39-7.2,6.82l9.28-2.74,5.39,1.06c1.35-6.65,6.18-11.8,11.17-13.28,1.18-.35,2.25-.51,3.23-.51.18,0,.36,0,.54.02h0s.01,0,.01,0c.63.04,1.23.15,1.77.34l7.05,1.35h0c.13.02.25.03.37.06v-4.16l3.75-1.4.85-7.12,6-1.77m-19.49,32.94c.82-.47,1.64-1.06,2.46-1.77l-2.71.8c.06.35.15.67.25.97m-29.77,8.26c1.03-.41,2.02-1.03,2.64-1.75v-3.25l-4.07-.8c.07,2.47.55,4.42,1.43,5.79m49.25-44.38c-.3,0-.61.04-.9.13l-6,1.77c-1.22.36-2.11,1.41-2.26,2.67l-.62,5.2-1.94.72c-1.24.46-2.07,1.65-2.07,2.98v.33l-3.46-.66c-.73-.22-1.51-.37-2.32-.42-.02,0-.03,0-.05,0h0c-.24-.02-.49-.02-.74-.02-1.3,0-2.69.22-4.13.64-2.2.65-4.28,1.81-6.12,3.34-1.28-.94-2.7-1.63-4.23-2.04-.15-.05-.3-.1-.46-.13l-.43-.08c-.06-.01-.16-.03-.25-.05l-7.36-1.42c-1.12-.29-2.3-.44-3.5-.44-1.57,0-3.21.25-4.89.75C7.39,66.95,0,77.43,0,89.32c0,12.97,7.68,15.86,11.28,16.49.05.01.1.02.15.03l8.36,1.64c.13.03.26.04.38.05.7.1,1.43.15,2.18.15,1.85,0,3.83-.3,5.86-.9,4.79-1.41,9.37-4.55,12.26-8.38.23-.3.4-.64.5-1,.16.03.31.05.47.07l7.82,1.56c.08.02.17.03.25.04.66.1,1.34.16,2.03.16,1.5,0,3.07-.24,4.68-.71,3.44-1.02,7.21-3.37,10.07-6.31.49-.5.79-1.13.87-1.79l6.66,1.31c.78.22,1.62.34,2.51.34,1.18,0,2.47-.2,3.84-.61,2.71-.8,4.76-1.97,6.24-2.9,1.13-.71,1.7-2.06,1.41-3.37l-1.14-5.23c-.27-1.24-1.25-2.19-2.49-2.44l-2.94-.58v-6.28l3.59-1.06c1.35-.4,2.28-1.64,2.28-3.05v-6.01c0-1.52-1.07-2.82-2.56-3.12l-3.31-.65v-1.37c0-1.52-1.07-2.82-2.56-3.12l-8.37-1.64c-.2-.04-.41-.06-.61-.06h0Z"/>
        <path class="cls-2" d="m91.54,102.89l8.37,1.64v5.99c.45-.08.87-.12,1.26-.12.57,0,1.09.08,1.57.24h0s7.77,1.48,7.77,1.48h0c.96.18,1.75.63,2.37,1.33,2.05-4.94,6.03-8.6,10.11-9.81,1.18-.35,2.25-.51,3.23-.51.18,0,.36,0,.54.02h0s.01,0,.01,0c.63.04,1.23.15,1.77.34l7.05,1.35h0c4.14.52,6.2,4.34,6.2,9.79,0,1.38-.16,2.81-.3,3.47l-10.7,3.16,7.7,1.51,2.4,3.91c-2.51,2.57-5.79,4.62-8.69,5.48-1.33.39-2.59.59-3.78.59-.57,0-1.13-.05-1.66-.14h0s-7.93-1.58-7.93-1.58c-.46-.06-.91-.15-1.34-.27h-.04s0-.01,0-.01c-1.01-.29-1.92-.76-2.71-1.42v7.35l-7.26,2.14-7.58-1.49v3.72l-7.26,2.14-4.84-.95.43,1.94c-1.3.82-3.07,1.84-5.44,2.54-1.1.32-2.08.48-2.94.48-.66,0-1.26-.09-1.79-.26h0s-7.27-1.43-7.27-1.43c-.38-.04-.74-.11-1.07-.21h-.02s0,0,0,0c-2.62-.84-3.73-3.68-3.73-7.75v-8.8l-3.35-.66v-5.72l3.75-1.4.85-7.12,6-1.77,8.37,1.64v6.87l2.69-.79v-14.77l7.26-2.14m35.56,20.5c.82-.47,1.64-1.06,2.46-1.77l-2.71.8c.06.35.15.67.25.97m-42.81,15.01v-12.59l-2.69.79v10.35c0,.34.02.64.05.93l2.64.52m7.26-38.69c-.3,0-.61.04-.9.13l-7.26,2.14c-1.35.4-2.28,1.64-2.28,3.05v5.36l-7.27-1.43c-.2-.04-.41-.06-.61-.06-.3,0-.61.04-.9.13l-6,1.77c-1.22.36-2.11,1.41-2.26,2.67l-.62,5.2-1.94.72c-1.24.46-2.07,1.65-2.07,2.98v5.72c0,1.52,1.07,2.82,2.56,3.12l.78.15v6.19c0,7.17,3.09,9.79,5.76,10.72.11.04.22.08.34.11.44.13.91.22,1.42.29l7.05,1.38c.78.22,1.62.34,2.51.34,1.18,0,2.47-.2,3.84-.61,2.71-.8,4.76-1.97,6.24-2.9.34-.22.64-.49.87-.81l1.25.24c.2.04.41.06.61.06.3,0,.61-.04.9-.13l7.26-2.14c1.31-.39,2.22-1.56,2.28-2.91l3.79.74c.2.04.41.06.61.06.3,0,.61-.04.9-.13l7.26-2.14c1.35-.4,2.28-1.64,2.28-3.05v-2.58c.13.02.26.04.4.06l7.82,1.56c.08.02.17.03.25.04.66.1,1.34.16,2.03.16,1.5,0,3.07-.24,4.68-.71,3.44-1.02,7.21-3.37,10.07-6.31,1.02-1.04,1.19-2.64.43-3.88l-2.2-3.58.99-.29c1.12-.33,1.97-1.25,2.21-2.4.18-.85.37-2.5.37-4.13,0-7.33-3.3-12.15-8.84-12.92l-6.8-1.3c-.73-.22-1.51-.37-2.32-.42-.02,0-.04,0-.07,0-.24-.01-.48-.02-.73-.02-1.3,0-2.69.22-4.13.64-4.15,1.22-7.98,4.37-10.54,8.51-.1-.03-.2-.05-.31-.07-.05-.01-.09-.02-.14-.03l-7.66-1.47c-.12-.03-.24-.06-.36-.09v-2.91c0-1.52-1.07-2.82-2.56-3.12l-8.37-1.64c-.2-.04-.41-.06-.61-.06h0Z"/>
        <path class="cls-2" d="m243.32,59.73l8.37,1.64-.24,7-1.01,16.24-4.76,1.41-8.37-1.64-.38-5.88-2.51,4.3c-1.2-.57-2.39-.91-3.56-.91-.53,0-1.07.07-1.6.23-1.88.55-2.8,1.6-2.8,2.89,0,1.65,2.29,1.6,4.83,1.83,1.97.19,4.09.59,5.38,2.05.77-1.02,1.82-1.81,3.02-2.17.42-.12.82-.18,1.2-.18.16,0,.32.01.48.03h0s.01,0,.01,0c.09.01.17.03.26.05l8.12,1.59c1.62.23,2.69,1.62,2.69,3.69,0,2.71-1.87,5.37-4.38,6.11-.42.12-.83.18-1.21.18-.32,0-.62-.04-.9-.12h0s-8.06-1.57-8.06-1.57h0c-.25-.05-.49-.12-.71-.22-1.33,3.33-4.5,6.26-9.35,7.7-1.19.35-2.44.52-3.68.52-.95,0-1.9-.1-2.79-.29,0,0-.02,0-.02,0l-5.38-1.06.7,3.17c-1.3.82-3.07,1.84-5.44,2.54-1.1.32-2.08.48-2.94.48-.66,0-1.26-.09-1.79-.26h0s-7.27-1.43-7.27-1.43c-.38-.04-.74-.11-1.07-.21h-.02c-1.52-.49-2.52-1.66-3.11-3.34v8.91l-7.26,2.14-7.45-1.46c-2.25,3.16-5.99,5.43-10.28,6.69l-11.93,3.52-8.37-1.64v-33.97h0s2.73-.8,2.73-.8h0s8.29-2.44,8.29-2.44c.44-.13.87-.25,1.3-.36h0s0,0,0,0c.31-.08.61-.15.92-.22.03,0,.05-.01.08-.02.29-.06.58-.12.87-.17.03,0,.07-.01.1-.02.57-.1,1.12-.17,1.65-.21.04,0,.07,0,.11,0,.26-.02.51-.03.76-.04,0,0,.01,0,.02,0,.01,0,.02,0,.03,0,0,0,.01,0,.02,0,.04,0,.09,0,.13,0,.2,0,.39,0,.58.01.02,0,.04,0,.06,0,.23.01.46.04.68.07.03,0,.07.01.1.02.22.03.44.07.65.12h0s7.76,1.52,7.76,1.52h0c1.4.22,2.53.77,3.3,1.77l6.8-2,4.4.86v-1.85c-.35.08-.69.12-1.01.12s-.59-.04-.86-.11l-8-1.57c-1.43-.19-2.35-1.26-2.35-2.94,0-2.35,1.77-4.53,4.2-5.24.48-.14.94-.21,1.36-.21.28,0,.54.03.79.09h0s8.16,1.6,8.16,1.6c1,.16,1.74.76,2.07,1.71l.24-1.99,6-1.77,8.37,1.64v6.87l1.98-.58c1.32-3.31,4.45-6.05,8.66-7.29,1.29-.38,2.46-.54,3.54-.54.54,0,1.05.04,1.53.11h.02s10.3,2.01,10.3,2.01l-.09.07c.3.1.58.21.86.32l-.52-8.11-.24-6.85,7.28-2.15m-50.67,24.17l2.13-.8.18-1.55c-.51.96-1.32,1.79-2.32,2.35m18.14,16.26l2.52-4.42,5.38,1.06c.31-.05.63-.11.94-.2,2.16-.64,3.09-1.78,3.09-3.14,0-.55-.26-.93-.68-1.2l-4.05-.84c-.07,0-.14-.02-.21-.02-.92-.1-1.89-.28-2.79-.6h0c-1.34-.47-2.51-1.26-3.16-2.59l-1.81.53v10.35c0,.34.02.64.05.93l.73.14m-34.06.23c.06,0,.11,0,.17,0,.9,0,1.73.15,2.47.45v-3.63c-.69,1.19-1.58,2.23-2.64,2.97v.21m66.59-43.84c-.3,0-.61.04-.9.13l-7.28,2.15c-1.39.41-2.33,1.71-2.28,3.16l.24,6.85s0,.06,0,.09l.24,3.74-7-1.38c-.17-.03-.34-.05-.51-.06-.55-.07-1.11-.1-1.66-.1-1.44,0-2.93.22-4.43.67-2.54.75-4.78,1.96-6.61,3.52-.22-1.28-1.21-2.32-2.52-2.58l-8.37-1.64c-.2-.04-.41-.06-.61-.06-.3,0-.61.04-.9.13l-6,1.77c-.21.06-.41.14-.6.24-.08-.02-.16-.03-.24-.05l-8.07-1.59c-.47-.1-.95-.16-1.45-.16-.73,0-1.5.11-2.26.34-3.81,1.12-6.48,4.53-6.48,8.29,0,.86.14,1.66.41,2.38l-6.59-1.3c-.26-.06-.54-.11-.85-.16l-.13-.02c-.32-.04-.63-.07-.93-.09-.02,0-.08,0-.1,0-.22-.01-.47-.02-.72-.02h-.16s-.08,0-.08,0c-.31,0-.63.02-.95.04h-.12c-.63.06-1.28.14-1.95.26l-.12.02c-.32.06-.64.12-.98.19,0,0-.06.01-.07.02-.34.08-.67.15-1.01.24-.01,0-.02,0-.04,0-.46.12-.93.25-1.41.39l-8.29,2.44-2.73.8c-1.35.4-2.28,1.64-2.28,3.05v33.97c0,1.52,1.07,2.82,2.56,3.12l8.37,1.64c.2.04.41.06.61.06.3,0,.61-.04.9-.13l11.93-3.52c4.42-1.3,8.05-3.45,10.63-6.25l5.58,1.1c.2.04.41.06.61.06.3,0,.61-.04.9-.13l7.26-2.14c1.35-.4,2.28-1.64,2.28-3.05v-2.3c.17.03.35.06.53.08l7.05,1.38c.78.22,1.62.34,2.51.34,1.18,0,2.47-.2,3.84-.61,2.71-.8,4.76-1.97,6.24-2.9.7-.44,1.18-1.12,1.38-1.88l.99.2c.08.02.17.03.25.04,1.03.2,2.09.3,3.16.3,1.58,0,3.12-.22,4.58-.65,4.41-1.3,7.97-3.82,10.12-7.1l6.39,1.25c.52.13,1.06.2,1.62.2.69,0,1.4-.11,2.11-.31,3.86-1.14,6.66-4.99,6.66-9.15,0-2.37-.93-4.37-2.48-5.59.27-.44.44-.95.48-1.49l1.01-16.24s0-.06,0-.09l.24-7c.05-1.56-1.03-2.93-2.56-3.23l-8.37-1.64c-.2-.04-.41-.06-.61-.06h0Z"/>
      </g>
      <g>
        <path class="cls-1" d="m11.55,90.96c0-11.27,7.09-19.9,15.68-22.43,4.67-1.38,7.99-.25,10.15,1.41l-3.84,6.06c-1.6-1.08-3.32-1.73-6.08-.91-4.95,1.46-8.47,6.61-8.47,13.42s3,10.16,9.05,8.37c1.29-.38,2.62-1.13,3.41-2.02v-5.87l-5.33,1.57v-6.27l11.79-3.48v15.66c-2.22,2.95-6.13,5.92-10.62,7.25-8.86,2.61-15.76-1.32-15.76-12.77Z"/>
        <path class="cls-1" d="m42.94,85.57c0-8.39,5.67-15.24,11.55-16.97,6.98-2.06,10.43,2.28,10.43,9.34,0,1.38-.16,2.81-.3,3.47l-14.65,4.32c.65,3.56,3.08,4.56,6.35,3.6,1.85-.55,3.52-1.63,5.3-3.25l2.4,3.91c-2.51,2.57-5.79,4.62-8.69,5.48-6.98,2.06-12.39-1.33-12.39-9.89Zm15.79-7.49c0-2.84-1.17-4.55-4.07-3.69-2.29.68-4.27,2.88-4.77,6.3l8.84-2.61Z"/>
        <path class="cls-1" d="m70.82,80.87v-10.45l-3.35.99v-5.72l3.75-1.4.85-7.12,6-1.77v6.87l5.87-1.73v6.01l-5.87,1.73v10.35c0,2.93,1.26,3.74,3.17,3.17.81-.24,1.68-.74,2.33-1.18l1.14,5.23c-1.3.82-3.07,1.84-5.44,2.54-6.05,1.79-8.46-1.54-8.46-7.53Z"/>
        <path class="cls-1" d="m100.39,72.15v-10.45l-3.35.99v-5.72l3.75-1.4.85-7.12,6-1.77v6.87l5.87-1.73v6.01l-5.87,1.73v10.35c0,2.93,1.26,3.74,3.17,3.17.81-.24,1.68-.74,2.33-1.18l1.14,5.23c-1.3.82-3.07,1.84-5.44,2.54-6.05,1.79-8.46-1.54-8.46-7.53Z"/>
        <path class="cls-1" d="m116.4,63.91c0-8.6,5.73-15.26,11.93-17.08s11.93,1.45,11.93,10.05-5.73,15.24-11.93,17.07c-6.2,1.83-11.93-1.45-11.93-10.03Zm16.43-4.84c0-4.48-1.49-6.94-4.49-6.06-3,.89-4.49,4.23-4.49,8.71s1.49,6.92,4.49,6.04c3-.89,4.49-4.21,4.49-8.69Z"/>
        <path class="cls-1" d="m155.5,28.79l7.1-2.09v20.92l.18-.05,7.77-12.55,7.88-2.32-8.58,13.19,9.23,12.48-7.86,2.32-5.51-8.46-3.11,4.64v6.37l-7.1,2.09V28.79Z"/>
        <path class="cls-1" d="m182.95,31.35l5.92-1.75.52,3.12.18-.05c2.06-2.7,4.53-5.24,7.87-6.22,5.33-1.57,7.6,1.73,7.6,8.19v16.05l-7.26,2.14v-15.07c0-3.72-.95-4.61-3.04-3.99-1.82.54-2.94,1.76-4.53,3.85v17.45l-7.26,2.14v-25.86Z"/>
        <path class="cls-1" d="m210.16,36.27c0-8.6,5.73-15.26,11.93-17.08,6.2-1.83,11.93,1.45,11.93,10.05s-5.73,15.24-11.93,17.07c-6.2,1.83-11.93-1.45-11.93-10.03Zm16.43-4.84c0-4.48-1.49-6.94-4.49-6.06-3,.89-4.49,4.23-4.49,8.71s1.49,6.92,4.49,6.04,4.49-4.21,4.49-8.69Z"/>
        <path class="cls-1" d="m236.97,15.42l7.21-2.13,2.35,11.28c.43,2.42.7,4.86,1.11,7.36l.2-.06c.43-2.75.86-5.47,1.45-8.11l2.67-12.76,6.31-1.86,2.75,11.16c.59,2.38,1.02,4.76,1.53,7.23l.2-.06c.43-2.75.7-5.34,1.13-8.02l2.33-12.66,6.71-1.98-5.86,27.59-8.5,2.51-2.25-9.67c-.45-2.27-.86-4.52-1.31-7.18l-.2.06c-.43,2.91-.78,5.41-1.24,7.95l-2.15,10.95-8.3,2.45-6.13-24.05Z"/>
        <path class="cls-1" d="m74.34,139.19v-10.45l-3.35.99v-5.72l3.75-1.4.85-7.12,6-1.77v6.87l5.87-1.73v6.01l-5.87,1.73v10.35c0,2.93,1.26,3.74,3.17,3.17.81-.24,1.68-.74,2.33-1.18l1.14,5.23c-1.3.82-3.07,1.84-5.44,2.54-6.05,1.79-8.46-1.54-8.46-7.53Z"/>
        <path class="cls-1" d="m92.66,106.67l7.26-2.14v8.92l-.33,4.78c1.84-2.31,4.22-4.82,7.56-5.8,5.33-1.57,7.6,1.73,7.6,8.19v16.05l-7.26,2.14v-15.07c0-3.72-.95-4.61-3.04-3.99-1.82.54-2.94,1.76-4.53,3.85v17.45l-7.26,2.14v-36.52Z"/>
        <path class="cls-1" d="m119.82,122.26c0-8.39,5.67-15.24,11.55-16.97,6.98-2.06,10.43,2.28,10.43,9.34,0,1.38-.16,2.81-.3,3.47l-14.65,4.32c.65,3.56,3.08,4.56,6.35,3.6,1.85-.55,3.52-1.63,5.3-3.25l2.4,3.91c-2.51,2.57-5.79,4.62-8.69,5.48-6.98,2.06-12.39-1.33-12.39-9.89Zm15.79-7.49c0-2.84-1.17-4.55-4.07-3.69-2.29.68-4.27,2.88-4.77,6.3l8.84-2.61Z"/>
        <path class="cls-1" d="m158.09,89.92l11.02-3.25c6.68-1.97,11.87-1.56,11.87,4.93,0,3.05-1.61,6.77-4.24,8.58v.21c3.29-.07,5.83,1.74,5.83,6.28,0,6.91-5.54,11.64-12.54,13.7l-11.93,3.52v-33.97Zm10.68,10.46c3.53-1.04,5.09-3.08,5.09-5.55,0-2.62-1.65-3.15-5.04-2.15l-3.45,1.02v7.68l3.4-1Zm.66,14.24c3.97-1.17,6.02-3.26,6.02-6.35s-2.01-3.6-6.02-2.42l-4.06,1.2v8.77l4.06-1.2Z"/>
        <path class="cls-1" d="m187.19,81.67c0-2.35,1.77-4.53,4.2-5.24s4.2.42,4.2,2.77-1.77,4.53-4.2,5.24-4.2-.44-4.2-2.77Zm.56,7.62l7.26-2.14v25.86l-7.26,2.14v-25.86Z"/>
        <path class="cls-1" d="m202.75,101.32v-10.45l-3.35.99v-5.72l3.75-1.4.85-7.12,6-1.77v6.87l5.87-1.73v6.01l-5.87,1.73v10.35c0,2.93,1.26,3.74,3.17,3.17.81-.24,1.68-.74,2.33-1.18l1.14,5.23c-1.3.82-3.07,1.84-5.44,2.54-6.05,1.79-8.46-1.54-8.46-7.53Z"/>
        <path class="cls-1" d="m218.41,103.12l3.27-5.74c2.22,1.12,4.27,1.46,6.32.85,2.16-.64,3.09-1.78,3.09-3.14,0-1.7-2.43-1.76-4.95-2.06-3-.34-6.48-1.42-6.48-5.69,0-4.81,3.71-9.19,9.36-10.85,3.75-1.11,6.55-.33,8.63.73l-3.25,5.56c-1.74-.82-3.46-1.19-5.16-.69-1.88.55-2.8,1.6-2.8,2.89,0,1.65,2.29,1.6,4.83,1.83,3.1.3,6.6,1.11,6.6,5.84s-3.5,9.37-10.06,11.31c-3.23.95-6.92.56-9.41-.84Z"/>
        <path class="cls-1" d="m243.67,94.47c0-2.73,1.87-5.38,4.38-6.13s4.38.81,4.38,3.54-1.87,5.37-4.38,6.11-4.38-.81-4.38-3.52Zm.99-24.1l-.24-6.85,7.28-2.15-.24,7-1.01,16.24-4.76,1.41-1.01-15.64Z"/>
      </g>
    </g>
  </g>
</svg>