<?xml version="1.0" encoding="UTF-8"?>
<svg id="Layer_2" data-name="Layer 2" xmlns="http://www.w3.org/2000/svg" viewBox="0 0 49.5 49.5">
  <defs>
    <style>
      .cls-1 {
        fill: #48aa2f;
      }

      .cls-2 {
        fill: #48aa2f;
      }
    </style>
  </defs>
  <g id="Banzai">
    <g id="ruins_icon" data-name="ruins icon">
      <g>
        <path class="cls-1"
          d="m29.53,28.27c-.51.69-1.23,1.05-1.72,1.26-1.1.47-2.24.69-3.21.85-.57.09-1.07.14-1.53.14-1.55,0-2.7-.52-3.45-1.55-.48-.67-.76-1.55-.84-2.61-.2-2.77,1.17-5.61,3.32-6.9,2.23-1.33,5.11-.94,7,.94.17.17.27.4.27.64,0,.24-.09.47-.27.64-.17.17-.4.27-.64.27h0c-.24,0-.47-.09-.64-.27-1.3-1.3-3.27-1.57-4.78-.67-1.59.95-2.59,3.09-2.44,5.2.05.71.22,1.29.5,1.67.53.73,1.55.95,3.21.68.86-.14,1.87-.33,2.78-.72.48-.21.79-.42.98-.67.2-.26.28-.63.19-.87-.1-.26-.41-.45-.78-.66-1.04-.59-2.11-1.19-3.2-1.45-.1-.02-.16-.03-.19-.04-.05.15-.1.62.12,1.36.07.23.04.48-.07.69-.12.21-.31.37-.54.44-.23.07-.48.04-.69-.07-.21-.12-.37-.31-.44-.54-.51-1.74-.2-3.06.84-3.55.51-.24,1.02-.16,1.41-.07,1.33.32,2.51.99,3.66,1.63.48.27,1.26.71,1.6,1.61.31.82.14,1.84-.43,2.6Z" />
        <path class="cls-2"
          d="m23.07,30.63c-1.59,0-2.78-.54-3.55-1.6-.5-.69-.79-1.59-.86-2.67-.2-2.82,1.19-5.7,3.38-7.01,2.28-1.36,5.22-.96,7.15.96.2.2.3.46.3.73s-.11.54-.3.73c-.39.39-1.08.39-1.46,0-1.26-1.26-3.16-1.52-4.62-.65-1.55.93-2.52,3.02-2.38,5.09.05.69.21,1.24.48,1.61.5.69,1.48.89,3.09.63.85-.14,1.85-.33,2.75-.71.46-.2.75-.39.93-.63.17-.23.25-.55.17-.75-.08-.21-.38-.39-.73-.59-1.03-.58-2.09-1.18-3.17-1.44-.03,0-.05-.01-.07-.02-.03.19-.03.6.14,1.19.08.27.05.55-.08.79-.13.24-.35.42-.62.5-.26.08-.54.05-.79-.08-.24-.13-.42-.35-.5-.62-.53-1.8-.19-3.18.91-3.69.55-.26,1.08-.17,1.49-.07,1.35.32,2.54.99,3.69,1.64.49.27,1.3.73,1.66,1.67.32.86.14,1.92-.45,2.72h0c-.53.71-1.26,1.08-1.77,1.3-1.11.48-2.26.7-3.24.85-.58.09-1.09.14-1.55.14Zm1.89-11.84c-.97,0-1.93.25-2.79.77-2.11,1.27-3.45,4.05-3.26,6.78.07,1.04.35,1.9.82,2.54.72.99,1.84,1.5,3.35,1.5.45,0,.94-.04,1.51-.13.96-.15,2.1-.37,3.18-.84.48-.21,1.17-.56,1.67-1.22h0c.54-.73.71-1.7.42-2.48-.32-.85-1.09-1.28-1.54-1.54-1.14-.64-2.31-1.3-3.63-1.62-.37-.09-.85-.16-1.33.06-.98.45-1.27,1.72-.78,3.4.06.2.19.37.38.47s.4.12.6.06c.2-.06.37-.19.47-.38.1-.18.12-.4.06-.6-.22-.77-.18-1.27-.12-1.44l.03-.09h.1s.11.02.21.05c1.11.27,2.19.88,3.24,1.47.39.22.73.43.84.72.11.28.02.69-.21.99-.21.28-.52.5-1.03.71-.92.4-1.94.59-2.81.73-1.72.27-2.77.04-3.33-.73-.29-.4-.47-1-.52-1.74-.15-2.16.87-4.35,2.5-5.32,1.56-.93,3.59-.65,4.93.69.3.3.82.3,1.11,0,.15-.15.23-.35.23-.56s-.08-.41-.23-.55c-1.12-1.11-2.58-1.69-4.05-1.69Z" />
      </g>
      <path class="cls-1"
        d="m41.45,16.4c.21.16.35.41.38.67.06.54-.33,1.03-.87,1.09l-4.45.5c-.5,0-.92-.38-.98-.88-.03-.26.04-.52.21-.73.16-.21.4-.34.66-.37l4.34-.49c.25-.04.51.03.71.19Z" />
      <path class="cls-1"
        d="m32.56,12.23c1.53-2.08,3.57-3.77,5.9-4.9.49-.24,1.08-.03,1.32.46.24.49.03,1.08-.46,1.32-2.04.99-3.82,2.47-5.17,4.29-.19.25-.48.4-.8.4-.21,0-.41-.07-.59-.19-.21-.16-.35-.39-.39-.65-.04-.26.03-.52.18-.73Z" />
      <path class="cls-1"
        d="m15.62,4.21c.22-.14.49-.18.75-.12.26.06.47.22.61.44,1.42,2.31,2.56,4.8,3.39,7.39.17.52-.12,1.08-.64,1.24-.23.07-.47.06-.69-.03-.27-.11-.47-.33-.55-.61-.78-2.44-1.85-4.78-3.19-6.96-.14-.22-.18-.49-.12-.75s.22-.47.44-.61Z" />
      <path class="cls-1"
        d="m5.33,15.48c-.05-.26.01-.52.16-.74.31-.45.93-.56,1.37-.25.82.57,5.42,2.53,6.39,2.73.26.05.48.2.63.42s.2.48.15.74c-.09.46-.5.79-.97.79-.07,0-.13,0-.2-.02-1.23-.25-6.1-2.32-7.13-3.04-.22-.15-.36-.38-.41-.64Z" />
      <path class="cls-1"
        d="m7.17,37.13c-.29,0-.56-.13-.75-.34-.17-.2-.26-.45-.24-.72.02-.26.14-.5.34-.67,1.38-1.19,4.46-3.53,5.78-4.4.46-.3,1.07-.17,1.37.29.3.46.17,1.07-.29,1.37-1.25.81-4.27,3.11-5.57,4.24-.18.15-.41.24-.64.24Z" />
      <path class="cls-1"
        d="m17.62,36.68h0s-3.27,5.07-3.27,5.07c-.18.28-.49.45-.83.45-.19,0-.37-.05-.53-.16-.46-.3-.59-.91-.3-1.37l3.27-5.07c.29-.46.9-.59,1.36-.3.46.3.59.91.3,1.37Z" />
      <path class="cls-1"
        d="m26.08,42.59c-.15.22-.37.36-.63.41-.06.01-.12.02-.18.02-.48,0-.88-.34-.97-.81-.12-.63-.25-3.19-.26-3.48-.03-.54.39-1.01.94-1.04.54-.02,1.01.4,1.04.94.06,1.13.17,2.88.23,3.23.05.26,0,.52-.16.74Z" />
      <path class="cls-1"
        d="m39.26,41.45c-.18.17-.42.26-.67.26-.28,0-.54-.12-.73-.32l-5.13-5.62c-.18-.19-.27-.45-.26-.71.01-.26.13-.51.32-.68.4-.37,1.03-.34,1.39.06l5.13,5.62c.18.19.27.45.26.71-.01.26-.13.51-.32.68Z" />
      <path class="cls-1"
        d="m42.45,27.44c-.09.46-.5.8-.97.8-.06,0-.13,0-.19-.02l-2.86-.57c-.26-.05-.48-.2-.63-.42-.15-.22-.2-.48-.15-.74.05-.26.2-.48.42-.63.22-.15.48-.2.74-.14l2.86.57c.26.05.48.2.63.42.15.22.2.48.15.74Z" />
      <g>
        <path class="cls-1"
          d="m24.76,13.21c-6.29,0-11.4,5.11-11.4,11.4s5.11,11.4,11.4,11.4,11.4-5.12,11.4-11.4-5.11-11.4-11.4-11.4Zm0,20.83c-5.2,0-9.43-4.23-9.43-9.43s4.23-9.43,9.43-9.43,9.43,4.23,9.43,9.43-4.23,9.43-9.43,9.43Z" />
        <path class="cls-2"
          d="m24.76,36.14c-6.36,0-11.53-5.17-11.53-11.53s5.17-11.53,11.53-11.53,11.53,5.17,11.53,11.53-5.17,11.53-11.53,11.53Zm0-22.8c-6.22,0-11.28,5.06-11.28,11.28s5.06,11.28,11.28,11.28,11.28-5.06,11.28-11.28-5.06-11.28-11.28-11.28Zm0,20.83c-5.27,0-9.55-4.28-9.55-9.55s4.28-9.55,9.55-9.55,9.55,4.28,9.55,9.55-4.28,9.55-9.55,9.55Zm0-18.85c-5.13,0-9.3,4.17-9.3,9.3s4.17,9.3,9.3,9.3,9.3-4.17,9.3-9.3-4.17-9.3-9.3-9.3Z" />
      </g>
      <path class="cls-1"
        d="m44.28,1.51c2.05,0,3.71,1.66,3.71,3.71v39.06c0,2.05-1.66,3.71-3.71,3.71H5.22c-2.05,0-3.71-1.66-3.71-3.71V5.22c0-2.05,1.66-3.71,3.71-3.71h39.06m0-1.51H5.22C2.34,0,0,2.34,0,5.22v39.06c0,2.88,2.34,5.22,5.22,5.22h39.06c2.88,0,5.22-2.34,5.22-5.22V5.22c0-2.88-2.34-5.22-5.22-5.22h0Z" />
    </g>
  </g>
</svg>