<?xml version="1.0" encoding="UTF-8"?>
<svg id="Layer_2" data-name="Layer 2" xmlns="http://www.w3.org/2000/svg" viewBox="0 0 49.26 47.11">
  <defs>
    <style>
      .cls-1 {
        fill: #48aa2f;
      }
    </style>
  </defs>
  <g id="Banzai">
    <path id="kong_icon" data-name="kong icon" class="cls-1" d="m49.26,6.5V0s-10.12,5.37-25.85,5.37C12.68,5.37,0,3.25,0,3.25l.81,4.55s2.84.72,7.34,1.42c-.01.81-.04,2.13-.07,3.77l-1.62.09v1.59h1.58c-.17,6.73-.55,17.02-1.34,21.58-1.22,7.07-2.44,10.85-2.44,10.85h4.76s2.32-7.44,3.05-17.68c.39-5.46.36-10.88.26-14.75h3.73l3.58,7.8c-3.46,1.83-5.81,5.46-5.81,9.64,0,6.03,4.89,10.91,10.91,10.91s10.91-4.89,10.91-10.91c0-4.47-2.69-8.31-6.55-10l2.76-7.45h5.28c-.11,3.88-.13,9.3.26,14.75.73,10.24,3.05,17.68,3.05,17.68h4.76s-1.22-3.78-2.44-10.85c-.79-4.56-1.17-14.85-1.34-21.58h1.38v-3.54l-1.46.08c-.02-1.23-.04-2.13-.04-2.57,4.83-1.05,7.96-2.14,7.96-2.14Zm-21.32,15.18c-1.02-.31-2.09-.48-3.21-.48-1.41,0-2.75.28-3.98.76l-3.34-7.29h13.14l-2.6,7.01Zm9.31-10.25l-25,1.34c-.05-1.33-.11-2.37-.15-3,3.65.44,7.95.78,12.51.78s8.96-.5,12.74-1.15c-.02.38-.07,1.08-.11,2.03Z"/>
  </g>
</svg>