<?xml version="1.0" encoding="UTF-8"?>
<svg id="Layer_2" data-name="Layer 2" xmlns="http://www.w3.org/2000/svg" viewBox="0 0 34.52 34.52">
  <defs>
    <style>
      .cls-1 {
        fill: #48aa2f;
      }
    </style>
  </defs>
  <g id="Banzai">
    <path id="cabdy_icon" data-name="cabdy icon" class="cls-1"
      d="m33.58,29l-12.63-12.63c1.52-2.86,1.7-6.24.54-9.23.08-.71.1-1.36.07-1.95-.02-.3-.05-.6-.09-.89l-.03-.17c-.03-.18-.07-.36-.12-.53-.03-.13-.07-.25-.11-.36-.03-.08-.06-.16-.09-.24-.08-.2-.16-.37-.25-.51-.02-.03-.04-.07-.06-.1-.14-.22-.27-.38-.4-.52-.08-.08-.16-.15-.24-.23l-.07-.06c-.07-.06-.13-.11-.2-.16l-.1-.07c-.08-.05-.14-.1-.21-.14-.04-.02-.08-.05-.12-.07-.08-.05-.16-.08-.23-.12-.05-.02-.1-.05-.15-.07-.07-.03-.15-.06-.23-.09-.06-.02-.11-.04-.17-.05-.09-.03-.18-.05-.27-.06-.07-.02-.12-.03-.17-.03-.1-.02-.21-.02-.32-.03-.05,0-.1,0-.14,0h0s-.02,0-.02,0c-.16,0-.32.01-.47.03l-1.54.23.05.08c-.14-.06-.28-.13-.42-.19-.06-.02-.12-.04-.18-.07-.25-.1-.5-.19-.75-.26-.11-.03-.21-.06-.32-.09-.22-.06-.43-.11-.65-.16-.11-.02-.22-.05-.34-.07-.23-.04-.47-.07-.7-.1-.09-.01-.18-.02-.28-.03C11.8.02,11.48,0,11.15,0c-.05,0-.1,0-.15,0-.28,0-.55.02-.83.04-.11,0-.21.02-.32.04-.22.03-.44.06-.66.1-.11.02-.23.04-.34.06-.23.05-.45.1-.68.17-.1.03-.19.05-.29.08-.31.1-.63.2-.93.33-.03.01-.06.03-.08.04-.28.12-.55.24-.82.38-.1.05-.19.1-.28.16-.2.11-.4.23-.6.35-.1.06-.2.13-.3.2-.2.13-.39.27-.57.42-.09.07-.17.13-.26.2-.27.22-.53.45-.77.7-.25.25-.48.51-.7.77-.07.08-.13.17-.2.26-.15.19-.29.38-.42.57-.07.1-.13.2-.2.3-.13.2-.24.4-.35.6-.05.09-.11.19-.16.28-.14.27-.27.54-.38.82-.01.03-.03.06-.04.08-.12.31-.23.62-.33.93-.03.1-.05.19-.08.29-.06.22-.12.45-.16.68-.02.11-.04.23-.06.34-.04.22-.07.44-.1.66-.01.11-.03.22-.04.32-.02.27-.04.55-.04.83,0,.05,0,.1,0,.15,0,.33.02.65.05.98,0,.09.02.19.03.28.03.23.06.47.1.7.02.11.04.22.07.34.05.22.1.43.16.65.03.11.06.21.09.32.08.25.17.5.26.75.02.06.04.13.07.19.08.19.17.37.25.56h-.02s-.23,1.53-.23,1.53c-.02.17-.04.33-.04.48,0,.16,0,.31.02.46.03.28.11.56.22.83.18.43.45.82.83,1.2.1.1.21.19.34.29.05.04.11.07.17.11l.58-.82-.53.85s.09.06.15.09c.1.05.2.1.31.15l.06.03c.55.23,1.2.37,1.95.43h.02s.26.02.26.02c.16,0,.32.01.48.01.43,0,.91-.04,1.4-.1,3.01,1.19,6.43,1.03,9.32-.51l12.64,12.64c.61.61,1.42.95,2.29.95s1.68-.34,2.29-.95c.61-.61.95-1.42.95-2.29s-.34-1.68-.95-2.29ZM5.21,20.53s0,0-.01,0c-.74-.04-1.38-.16-1.88-.37-.02,0-.04-.02-.05-.02-.08-.03-.15-.07-.22-.11-.04-.02-.08-.05-.12-.07-.04-.03-.09-.05-.13-.08-.08-.06-.15-.12-.22-.18-.25-.25-.47-.53-.61-.87-.07-.17-.12-.36-.15-.56-.01-.1-.02-.21-.02-.32s.01-.23.03-.35c.43.28,1.18.32,1.7.35.41.03.96.07,1.62.07,2.13,0,5.4-.51,8.81-3.92,4.46-4.46,4.09-8.8,3.98-10.56-.03-.52-.24-1.39-.52-1.82.11-.02.22-.02.32-.02,0,0,.01,0,.02,0,.03,0,.07,0,.1,0,.08,0,.15,0,.22.02.04,0,.08.02.12.02.06.01.13.03.19.04.04.01.08.03.12.04.06.02.12.04.17.06.04.02.08.03.11.05.05.03.11.05.16.08.03.02.07.04.1.06.05.03.1.06.15.1.03.02.06.04.09.06.05.04.1.08.15.12.02.02.04.03.06.05.07.06.13.12.19.17,0,0,0,0,0,0,.09.09.18.21.26.34.02.03.04.05.05.08.07.12.13.25.19.38.02.06.05.13.07.19.03.09.06.19.09.29.04.14.07.29.1.45,0,.05.02.1.03.15.04.25.07.51.08.79.16,2.94-1.09,7.4-4.44,10.74-3.21,3.21-7.51,4.56-10.48,4.56-.15,0-.29,0-.43-.01Zm27.42,12.09h0c-.37.37-.85.55-1.34.55s-.97-.18-1.34-.55l-12.41-12.41c.51-.36,1-.76,1.45-1.22s.86-.94,1.22-1.45l12.41,12.41c.74.74.74,1.93,0,2.67Z" />
  </g>
</svg>