<?xml version="1.0" encoding="UTF-8"?>
<svg id="Layer_2" data-name="Layer 2" xmlns="http://www.w3.org/2000/svg" viewBox="5 -10 50 50">
    <defs>
        <style>
            .cls-1 {
                fill: #ffffff;
            }
        </style>
    </defs>
    <g id="Banzai">
        <path id="space_icon" data-name="space icon" class="cls-1"
            d="m58.61,4.34c-1.16-2.81-8.57-2.03-17.56.52C36.48.28,29.44-1.38,23.09,1.25c-6.34,2.63-10.16,8.77-10.14,15.24-2.17,1.21-4.16,2.42-5.9,3.6C1.66,23.75-.65,26.59.16,28.55c.5,1.21,2.08,1.82,4.72,1.82,1.64,0,3.69-.23,6.13-.7,2.06-.39,4.32-.95,6.71-1.63,4.56,4.58,11.6,6.23,17.95,3.6,6.35-2.63,10.16-8.78,10.14-15.25,8.16-4.55,13.95-9.24,12.79-12.05Zm-27.03,17.4c-7.6,3.15-14.99,5.49-20.81,6.61-6.32,1.21-8.99.59-9.36-.31-.37-.9,1.08-3.23,6.4-6.84,1.55-1.05,3.31-2.13,5.22-3.21.2,1.44,1.08,2.71,2.39,3.35,2.3,1.13,6.8,1.69,15.25-1.81,8.45-3.5,11.23-7.07,12.06-9.5.47-1.38.2-2.9-.67-4.06,5.21-1.44,9.32-2.09,11.97-2.09,1.93,0,3.09.34,3.35.97.91,2.21-8.45,9.7-25.79,16.88Z" />
    </g>
</svg>