<?xml version="1.0" encoding="UTF-8"?>
<svg id="Layer_2" data-name="Layer 2" xmlns="http://www.w3.org/2000/svg" viewBox="0 0 422.97 59.87">
  <defs>
    <style>
      .cls-1 {
        fill: #05b4db;
      }
    </style>
  </defs>
  <g id="Empathic_Building" data-name="Empathic Building">
    <g>
      <path class="cls-1" d="m180.58,1.45c-2.25.06-4.06,1.87-4.12,4.12,0,2.28,1.84,4.12,4.12,4.12,2.28,0,4.12-1.84,4.12-4.12s-1.84-4.12-4.12-4.12h0Z"/>
      <path class="cls-1" d="m290.63,1.45c-2.25.06-4.06,1.87-4.12,4.12,0,2.28,1.84,4.12,4.12,4.12s4.12-1.84,4.12-4.12c.1-2.18-1.59-4.02-3.77-4.12-.12,0-.23,0-.35,0Z"/>
      <path class="cls-1" d="m347.1,1.45c-2.25.06-4.06,1.87-4.12,4.12,0,2.28,1.85,4.12,4.13,4.11,2.27,0,4.11-1.84,4.11-4.11.1-2.18-1.59-4.02-3.77-4.12-.12,0-.23,0-.35,0Z"/>
      <path class="cls-1" d="m12.12,17.21C5.43,17.21,0,22.63,0,29.33c0,.07,0,.15,0,.22-.13,6.69,5.18,12.23,11.87,12.36.08,0,.16,0,.24,0,3.2.06,6.3-1.06,8.73-3.15.48-.48.48-1.21,0-1.45l-2.42-2.67c-.48-.48-.97-.24-1.45,0-1.35.95-2.96,1.46-4.61,1.45-2.93.1-5.41-2.16-5.57-5.09h15.03c.54-.09,1-.46,1.21-.97v-1.7c.2-5.94-4.45-10.92-10.39-11.12-.17,0-.34,0-.52,0Zm-4.85,9.45c.29-2.33,2.26-4.09,4.61-4.12,2.26.13,4.11,1.87,4.36,4.12H7.27Z"/>
      <path class="cls-1" d="m56.96,17.21c-3.12.08-6.08,1.38-8.24,3.64-1.83-2.41-4.73-3.77-7.76-3.64-3,.07-5.87,1.28-8,3.39l-.73-1.94c-.15-.42-.53-.7-.97-.73h-2.18c-.65.05-1.17.56-1.21,1.21v21.33c.05.65.56,1.17,1.21,1.21h4.85c.65-.05,1.17-.56,1.21-1.21v-13.09c.57-2.2,2.58-3.71,4.85-3.64,2.91,0,4.36,1.94,4.36,5.09v11.63c.05.65.56,1.17,1.21,1.21h4.36c.65-.05,1.17-.56,1.21-1.21v-14.3c1.11-1.57,2.93-2.48,4.85-2.42,2.91,0,4.36,1.94,4.36,5.09v11.63c.05.65.56,1.17,1.21,1.21h4.85c.63.04,1.17-.43,1.21-1.06,0-.05,0-.1,0-.15v-11.39c-.24-6.06-3.15-11.88-10.67-11.88Z"/>
      <path class="cls-1" d="m86.29,17.21c-2.83-.02-5.55,1.12-7.51,3.15l-.97-1.7c-.24-.48-.48-.73-.97-.73h-2.42c-.65.05-1.17.56-1.21,1.21v39.02c.05.65.56,1.17,1.21,1.21h4.85c.97,0,1.45-.48,1.45-1.21v-17.21c1.65.83,3.48,1.25,5.33,1.21,6.9-.54,12.06-6.57,11.52-13.47-.47-6.06-5.23-10.91-11.28-11.5Zm-1.21,18.42c-1.65.04-3.27-.47-4.61-1.45v-7.05c.65-2.14,2.61-3.61,4.85-3.64,3.34.36,5.76,3.36,5.4,6.7-.32,2.94-2.69,5.22-5.64,5.42v.02Z"/>
      <path class="cls-1" d="m111.99,17.21c-2.71,0-5.41.4-8,1.21-.57.14-.92.72-.78,1.29.01.06.03.11.05.16l.48,3.15c0,.73.48,1.21,1.45.97,2.13-.61,4.33-.94,6.54-.97,2.18,0,3.15.97,3.15,4.12-1.41-.48-2.88-.72-4.36-.73-6.06,0-9.45,3.15-9.45,7.51-.42,3.99,2.47,7.57,6.46,8,.51.05,1.03.05,1.54,0,2.7-.02,5.3-1.06,7.27-2.91l.73,1.7c.24.73.48.73.97.73h2.18c.65-.05,1.17-.56,1.21-1.21v-12.85c-.48-6.3-2.18-10.18-9.45-10.18Zm2.67,17.69c-.91,1.42-2.44,2.32-4.12,2.42-1.61.13-3.03-1.08-3.15-2.7-.01-.15-.01-.3,0-.45,0-1.94,1.45-3.15,3.88-3.15,1.17.04,2.31.29,3.39.73v3.15Z"/>
      <path class="cls-1" d="m141.31,35.39c-.24-.48-.73-.97-1.21-.73-.93.38-1.91.63-2.91.73-.97,0-1.94-.24-1.94-1.94v-9.45h5.09c.63.04,1.17-.43,1.21-1.06,0-.05,0-.1,0-.15v-3.88c.04-.63-.43-1.17-1.06-1.21-.05,0-.1,0-.15,0h-5.09v-6.3c0-.48-.48-1.21-.97-1.21h-4.85c-.65.05-1.17.56-1.21,1.21v6.54h-1.94c-.6.08-1.03.61-.97,1.21v3.88c0,.48.48,1.21.97,1.21h1.94v10.42c0,4.85,1.94,7.51,6.54,7.51,2.39-.2,4.75-.69,7.03-1.45.59-.22.91-.85.73-1.45l-1.21-3.88Z"/>
      <path class="cls-1" d="m160.46,17.21c-2.25-.03-4.46.65-6.3,1.94V1.21c-.05-.65-.56-1.17-1.21-1.21h-5.09c-.65.05-1.17.56-1.21,1.21v39.27c.05.65.56,1.17,1.21,1.21h4.85c.97,0,1.21-.48,1.21-1.21v-12.6c.43-2.45,2.6-4.21,5.09-4.12,2.91,0,4.61,2.18,4.61,5.33v11.39c.05.65.56,1.17,1.21,1.21h4.85c.65-.05,1.17-.56,1.21-1.21v-11.39c0-6.06-2.91-11.88-10.42-11.88Z"/>
      <path class="cls-1" d="m183.01,17.94h-4.85c-.65.05-1.17.56-1.21,1.21v21.33c.05.65.56,1.17,1.21,1.21h4.85c.65-.05,1.17-.56,1.21-1.21v-21.33c-.05-.65-.56-1.17-1.21-1.21Z"/>
      <path class="cls-1" d="m207.73,33.21c-.48-.29-1.09-.18-1.45.24-1.2,1.43-2.98,2.23-4.85,2.18-3.35,0-6.06-2.71-6.06-6.06s2.71-6.06,6.06-6.06c1.6-.02,3.12.69,4.12,1.94.48.24.97.73,1.45.24l2.67-2.67c.53-.38.65-1.12.27-1.66,0-.01-.02-.03-.03-.04-2.1-2.67-5.33-4.19-8.73-4.12-6.86.01-12.46,5.5-12.6,12.36.05,6.88,5.67,12.42,12.55,12.36.02,0,.03,0,.05,0,3.75.03,7.29-1.78,9.45-4.85.48-.48.24-1.21-.48-1.7l-2.42-2.18Z"/>
      <path class="cls-1" d="m241.42,17.21c-1.81.09-3.6.42-5.33.97V1.21c-.05-.65-.56-1.17-1.21-1.21h-5.09c-.65.05-1.17.56-1.21,1.21v39.27c.05.65.56,1.17,1.21,1.21h2.42c.48,0,.97-.48,1.21-1.21l.48-1.94c1.91,2.31,4.76,3.64,7.76,3.64,6.5-.21,11.61-5.64,11.4-12.15,0-.07,0-.14,0-.21,0-7.03-4.61-12.6-11.63-12.6Zm-.48,18.42c-2.34.05-4.38-1.58-4.85-3.88v-6.79c1.33-.98,2.95-1.49,4.61-1.45,3.2-.02,5.81,2.56,5.82,5.76,0,.1,0,.2,0,.3.08,3.19-2.38,5.88-5.57,6.06h0Z"/>
      <path class="cls-1" d="m279.72,17.94h-4.61c-.97,0-1.21.24-1.21,1.21v12.36c-.3,2.46-2.37,4.32-4.85,4.36-2.67,0-4.36-1.94-4.36-5.09v-11.63c.04-.63-.43-1.17-1.06-1.21-.05,0-.1,0-.15,0h-4.85c-.65.05-1.17.56-1.21,1.21v11.39c0,6.06,2.67,11.63,9.94,11.63,3.01,0,5.9-1.23,8-3.39l.73,1.94c.24.48.48.97,1.21.97h2.18c.65-.05,1.17-.56,1.21-1.21v-21.33c.06-.6-.37-1.14-.97-1.21Z"/>
      <path class="cls-1" d="m293.29,17.94h-4.85c-.65.05-1.17.56-1.21,1.21v21.33c.05.65.56,1.17,1.21,1.21h4.85c.65-.05,1.17-.56,1.21-1.21v-21.33c-.05-.65-.56-1.17-1.21-1.21Z"/>
      <path class="cls-1" d="m306.87.24h-4.85c-.65.05-1.17.56-1.21,1.21v39.02c.05.65.56,1.17,1.21,1.21h4.85c.65-.05,1.17-.56,1.21-1.21V1.21c-.08-.6-.61-1.03-1.21-.97Z"/>
      <path class="cls-1" d="m336.19.24h-5.09c-.65.05-1.17.56-1.21,1.21v16.97c-1.69-.7-3.51-1.03-5.33-.97-6.83.36-12.08,6.18-11.73,13.01.32,6.24,5.25,11.26,11.48,11.71,2.98-.07,5.79-1.39,7.76-3.64l.48,1.94c.24.73.48,1.21,1.21,1.21h2.42c.65-.05,1.17-.56,1.21-1.21V1.21c-.21-.51-.67-.88-1.21-.97Zm-6.06,31.73c-.61,2.21-2.56,3.77-4.85,3.88-3.08-.12-5.47-2.71-5.35-5.79,0-.09,0-.18.02-.27-.15-3.2,2.32-5.91,5.52-6.05.1,0,.2,0,.3,0,1.65-.04,3.27.47,4.61,1.45v6.79h-.24Z"/>
      <path class="cls-1" d="m349.77,17.94h-4.85c-.65.05-1.17.56-1.21,1.21v21.33c.05.65.56,1.17,1.21,1.21h4.85c.65-.05,1.17-.56,1.21-1.21v-21.33c-.05-.65-.56-1.17-1.21-1.21Z"/>
      <path class="cls-1" d="m370.86,17.21c-3.11-.1-6.11,1.14-8.24,3.39l-.73-2.18c-.24-.48-.48-.73-.97-.73h-2.18c-.65.05-1.17.56-1.21,1.21v21.57c.05.65.56,1.17,1.21,1.21h4.36c1.21,0,1.45-.24,1.45-1.21v-13.09c.85-2.31,3.12-3.79,5.57-3.64,2.91,0,4.36,1.94,4.36,5.09v11.63c.05.65.56,1.17,1.21,1.21h4.85c.65-.05,1.17-.56,1.21-1.21v-11.39c-.48-6.06-3.39-11.88-10.91-11.88Z"/>
      <path class="cls-1" d="m401.4,41.45h-7.51c-1.2.13-2.28-.74-2.42-1.94.11-1.16,1.03-2.07,2.18-2.18.97,0,2.42.48,4.85.48,5.35.27,9.91-3.84,10.18-9.19,0,0,0-.02,0-.02.1-2.27-.78-4.48-2.42-6.06l3.39-.97c.48,0,.73-.48.73-.97v-1.94c.04-.63-.43-1.17-1.06-1.21-.05,0-.1,0-.15,0h-10.67c-5.61.03-10.15,4.57-10.18,10.18-.08,2,.52,3.96,1.7,5.57-2.56,1.2-4.24,3.72-4.36,6.54,0,2.81,1.73,5.32,4.36,6.3v.24c-2.09,1.11-3.46,3.22-3.64,5.57,0,3.88,3.39,8,12.12,8s12.85-4.61,12.85-9.94-4.61-8.48-9.94-8.48Zm-3.15-17.94c2.22-.06,4.07,1.69,4.13,3.91,0,.15,0,.3-.01.45.12,2.29-1.63,4.24-3.92,4.36-.07,0-.13,0-.2,0-2.22.06-4.07-1.69-4.13-3.91,0-.15,0-.3.01-.45-.12-2.29,1.63-4.24,3.92-4.36.07,0,.13,0,.2,0h0Zm-.24,30.54c-3.15,0-5.09-1.45-5.09-3.39s1.94-2.67,2.42-2.91c1.28-.21,2.58-.29,3.88-.24,3.39,0,4.36,1.94,4.36,2.91,0,2.18-2.18,3.64-5.57,3.64h0Z"/>
      <path class="cls-1" d="m416.91,1.45c-3.27.08-5.87,2.78-5.82,6.06-.04,3.17,2.5,5.78,5.67,5.82.05,0,.1,0,.15,0,3.24-.02,5.91-2.58,6.06-5.82.03-3.32-2.64-6.03-5.96-6.06-.03,0-.06,0-.1,0Z"/>
      <path class="cls-1" d="m418.36,8.73c-.13-.13-.35-.14-.48,0,0,0,0,0,0,0-.24.24-.48.24-.97.24-.78.03-1.43-.58-1.45-1.36,0-.03,0-.07,0-.1.06-.78.68-1.4,1.45-1.45.34-.04.69.05.97.24h.48l.48-.73c.24-.24,0-.24,0-.48-.53-.48-1.22-.75-1.94-.73-1.74-.04-3.18,1.34-3.22,3.08-.04,1.74,1.34,3.18,3.08,3.22.76.02,1.5-.24,2.09-.73q.24-.24,0-.48l-.48-.73Z"/>
    </g>
  </g>
</svg>