<?xml version="1.0" encoding="UTF-8"?>
<svg id="Layer_2" data-name="Layer 2" xmlns="http://www.w3.org/2000/svg" viewBox="0 0 136.54 224.63">
  <defs>
    <style>
      .cls-1 {
        fill: #e33842;
      }

      .cls-1, .cls-2, .cls-3 {
        fill-rule: evenodd;
      }

      .cls-2 {
        fill: #fff;
      }
    </style>
  </defs>
  <g id="Layer_1-2" data-name="Layer 1">
    <g id="yläpalkki">
      <g id="DSB_Cube" data-name="DSB Cube">
        <g id="dead">
          <g>
            <path class="cls-3" d="m104.13,63.14l-8.96-5.18V13.98l8.96,5.18v43.99Z"/>
            <path d="m104.13,64.18c-.18,0-.36-.05-.52-.14l-8.96-5.18c-.32-.19-.52-.53-.52-.9V13.98c0-.37.2-.71.52-.9.32-.19.72-.19,1.04,0l8.96,5.18c.32.19.52.53.52.9v43.99c0,.37-.2.71-.52.9-.16.09-.34.14-.52.14Zm-7.93-6.81l6.89,3.98V19.75l-6.89-3.98v41.6Z"/>
          </g>
          <g>
            <path class="cls-2" d="m104.13,19.15l22.66-12.8s2.71,1.56,5.1,2.95c2.24,1.29,3.61,3.68,3.61,6.26v22.21c0,4.49-2.4,8.65-6.29,10.89-9.16,5.29-25.09,14.48-25.09,14.48V19.15Z"/>
            <path d="m104.13,64.18c-.18,0-.36-.05-.52-.14-.32-.19-.52-.53-.52-.9V19.15c0-.37.2-.72.53-.9l22.66-12.8c.32-.18.71-.18,1.03,0l5.1,2.95c2.55,1.47,4.13,4.21,4.13,7.16v22.21c0,4.85-2.61,9.36-6.81,11.79l-25.09,14.48c-.16.09-.34.14-.52.14Zm1.04-44.42v41.59l23.53-13.59c3.56-2.06,5.77-5.89,5.77-9.99V15.56c0-2.2-1.19-4.26-3.09-5.36l-4.59-2.65-21.62,12.21Z"/>
          </g>
          <g>
            <path class="cls-3" d="m118.25,25.55v15.4s3.1-1.79,5.35-3.09c1.41-.81,2.27-2.31,2.27-3.94v-5.5c0-.45-.08-.89-.22-1.31-.05-.15-.11-.32-.17-.5-.37-1.07-1.2-1.93-2.27-2.32s-2.25-.3-3.24.27c-.96.56-1.72.99-1.72.99Z"/>
            <path d="m118.25,41.99c-.18,0-.36-.05-.52-.14-.32-.19-.52-.53-.52-.9v-15.4c0-.37.2-.71.52-.9l1.72-.99c1.26-.73,2.76-.85,4.12-.34,1.36.51,2.41,1.58,2.89,2.96l.18.51c.18.53.28,1.09.28,1.65v5.5c0,1.99-1.07,3.84-2.79,4.84l-5.35,3.09c-.16.09-.34.14-.52.14Zm1.04-15.84v13l3.79-2.19c1.08-.63,1.76-1.79,1.76-3.04v-5.5c0-.33-.06-.66-.16-.97l-.17-.5c-.27-.79-.87-1.41-1.65-1.7-.78-.29-1.64-.22-2.36.2l-1.2.69Z"/>
          </g>
          <g>
            <path class="cls-1" d="m131.02,8.8h0c-2.77-1.6-6.19-1.6-8.96,0-6.54,3.78-17.93,10.35-17.93,10.35l-8.96-5.18s12.45-7.19,18.79-10.85c2.24-1.29,5-1.29,7.25,0,3.98,2.3,9.82,5.67,9.82,5.67Z"/>
            <path d="m104.13,20.19c-.18,0-.36-.05-.52-.14l-8.96-5.18c-.32-.19-.52-.53-.52-.9s.2-.71.52-.9l18.79-10.85c2.55-1.48,5.73-1.48,8.28,0l9.82,5.67s0,0,0,0c.5.29.67.92.38,1.42-.29.5-.92.67-1.42.38h0c-2.45-1.41-5.48-1.41-7.93,0l-17.93,10.35c-.16.09-.34.14-.52.14Zm-6.89-6.21l6.89,3.98,17.41-10.05c1.15-.67,2.41-1.08,3.69-1.25l-4.55-2.63c-1.92-1.11-4.3-1.11-6.21,0l-17.24,9.95Z"/>
          </g>
          <g>
            <path class="cls-3" d="m123.49,37.99c.49-.28.79-.81.79-1.37s-.3-1.09-.79-1.37c-2.24-1.29-5.24-3.02-5.24-3.02v8.8s3-1.73,5.24-3.02Z"/>
            <path d="m118.25,42.05c-.18,0-.36-.05-.52-.14-.32-.19-.52-.53-.52-.9v-8.8c0-.37.2-.71.52-.9.32-.19.72-.19,1.04,0l5.24,3.02c.81.47,1.31,1.34,1.31,2.27s-.5,1.81-1.31,2.27t0,0l-5.24,3.02c-.16.09-.34.14-.52.14Zm1.04-8.04v5.21l3.68-2.13c.17-.1.28-.28.28-.48s-.11-.38-.28-.48l-3.68-2.13Zm4.2,3.98h0,0Z"/>
          </g>
          <g>
            <path class="cls-3" d="m10,117.49l-8.96-5.18v-43.99l8.96,5.18v43.99Z"/>
            <path d="m10,118.53c-.18,0-.36-.05-.52-.14l-8.96-5.18c-.32-.19-.52-.53-.52-.9v-43.99c0-.37.2-.71.52-.9.32-.19.72-.19,1.04,0l8.96,5.18c.32.19.52.53.52.9v43.99c0,.37-.2.71-.52.9-.16.09-.34.14-.52.14Zm-7.93-6.81l6.89,3.98v-41.6l-6.89-3.98v41.6Z"/>
          </g>
          <g>
            <path class="cls-3" d="m32.41,94.2v-43.99l8.96,5.18v43.99l-8.96-5.18Z"/>
            <path d="m41.38,100.41c-.18,0-.36-.05-.52-.14l-8.96-5.18c-.32-.19-.52-.53-.52-.9v-43.99c0-.37.2-.71.52-.9.32-.19.72-.19,1.04,0l8.96,5.18c.32.19.52.53.52.9v43.99c0,.37-.2.71-.52.9-.16.09-.34.14-.52.14Zm-7.93-6.81l6.89,3.98v-41.6l-6.89-3.98v41.6Z"/>
          </g>
          <g>
            <path class="cls-2" d="m10,73.5l22.66-12.8s2.71,1.56,5.1,2.95c2.24,1.29,3.61,3.68,3.61,6.26v22.21c0,4.49-2.4,8.65-6.29,10.89-9.16,5.29-25.09,14.48-25.09,14.48v-43.99Z"/>
            <path d="m10,118.53c-.18,0-.36-.05-.52-.14-.32-.19-.52-.53-.52-.9v-43.99c0-.37.2-.72.53-.9l22.66-12.8c.32-.18.71-.18,1.03,0l5.1,2.95c2.55,1.47,4.13,4.21,4.13,7.16v22.21c0,4.85-2.61,9.37-6.81,11.79l-25.09,14.48c-.16.09-.34.14-.52.14Zm1.04-44.42v41.59l23.53-13.59c3.56-2.06,5.77-5.88,5.77-9.99v-22.21c0-2.2-1.19-4.26-3.09-5.36l-4.59-2.65-21.62,12.21Z"/>
          </g>
          <g>
            <path class="cls-3" d="m72.75,37.27v43.99l-8.96-5.18v-43.99l8.96,5.18Z"/>
            <path d="m72.75,82.3c-.18,0-.36-.05-.52-.14l-8.96-5.18c-.32-.19-.52-.53-.52-.9v-43.99c0-.37.2-.71.52-.9.32-.19.72-.19,1.04,0l8.96,5.18c.32.19.52.53.52.9v43.99c0,.37-.2.71-.52.9-.16.09-.34.14-.52.14Zm-7.93-6.81l6.89,3.98v-41.6l-6.89-3.98v41.6Z"/>
          </g>
          <g>
            <path class="cls-2" d="m63.79,32.09l8.96,5.18v12.94l-11.2,6.47v5.18l11.2-6.47v10.35l-11.2,6.47v5.18l11.2-6.47v10.35l-31.37,18.11v-43.99l-8.96-5.18,31.37-18.11Z"/>
            <path d="m41.38,100.41c-.18,0-.36-.05-.52-.14-.32-.19-.52-.53-.52-.9v-43.39l-8.45-4.88c-.32-.19-.52-.53-.52-.9s.2-.71.52-.9l31.37-18.11c.32-.19.72-.19,1.04,0l8.96,5.18c.32.19.52.53.52.9v12.94c0,.37-.2.71-.52.9l-10.69,6.17v2.78l9.65-5.57c.32-.19.72-.19,1.04,0,.32.19.52.53.52.9v10.35c0,.37-.2.71-.52.9l-10.69,6.17v2.78l9.65-5.57c.32-.19.72-.19,1.04,0,.32.19.52.53.52.9v10.35c0,.37-.2.71-.52.9l-31.38,18.11c-.16.09-.34.14-.52.14Zm-6.89-50.21l7.41,4.28c.32.19.52.53.52.9v42.2l29.3-16.92v-7.96l-9.65,5.57c-.32.19-.72.19-1.04,0-.32-.19-.52-.53-.52-.9v-5.18c0-.37.2-.71.52-.9l10.69-6.17v-7.96l-9.65,5.57c-.32.19-.72.19-1.04,0-.32-.19-.52-.53-.52-.9v-5.18c0-.37.2-.71.52-.9l10.69-6.17v-11.74l-7.93-4.58-29.3,16.92Z"/>
          </g>
          <g>
            <path class="cls-2" d="m95.16,13.98l8.96,5.18v43.99l-11.2,6.47v-18.11l-8.97,5.18v18.11l-11.2,6.47v-43.99l-8.96-5.18,31.37-18.11Z"/>
            <path d="m72.75,82.3c-.18,0-.36-.05-.52-.14-.32-.19-.52-.53-.52-.9v-43.39l-8.45-4.88c-.32-.19-.52-.53-.52-.9s.2-.71.52-.9l31.37-18.11c.32-.19.72-.19,1.04,0l8.96,5.18c.32.19.52.53.52.9v43.99c0,.37-.2.71-.52.9l-11.2,6.47c-.32.19-.72.19-1.04,0-.32-.19-.52-.53-.52-.9v-16.32l-6.89,3.98v17.52c0,.37-.2.71-.52.9l-11.2,6.47c-.16.09-.34.14-.52.14Zm-6.89-50.21l7.41,4.28c.32.19.52.53.52.9v42.2l9.13-5.27v-17.52c0-.37.2-.71.52-.9l8.97-5.18c.32-.19.72-.19,1.04,0,.32.19.52.53.52.9v16.32l9.13-5.27V19.75l-7.93-4.58-29.3,16.92Z"/>
          </g>
          <g>
            <path class="cls-3" d="m24.12,79.9v15.4s3.1-1.79,5.35-3.09c1.41-.81,2.27-2.31,2.27-3.94v-5.5c0-.45-.08-.89-.22-1.31-.05-.15-.11-.32-.17-.5-.37-1.07-1.2-1.93-2.27-2.32s-2.25-.3-3.24.27c-.96.56-1.72.99-1.72.99Z"/>
            <path d="m24.12,96.33c-.18,0-.36-.05-.52-.14-.32-.19-.52-.53-.52-.9v-15.4c0-.37.2-.71.52-.9l1.72-.99c1.26-.73,2.76-.85,4.12-.34,1.36.51,2.41,1.58,2.89,2.96l.18.51c.18.53.28,1.09.28,1.65v5.5c0,1.99-1.07,3.84-2.79,4.84l-5.35,3.09c-.16.09-.34.14-.52.14Zm1.04-15.84v13l3.79-2.19c1.08-.63,1.76-1.79,1.76-3.04v-5.5c0-.33-.06-.66-.16-.97l-.17-.5c-.27-.79-.87-1.41-1.65-1.7-.78-.29-1.64-.22-2.36.2l-1.2.69Z"/>
          </g>
          <g>
            <path class="cls-1" d="m36.9,63.14h0c-2.77-1.6-6.19-1.6-8.96,0-6.54,3.78-17.93,10.35-17.93,10.35l-8.96-5.18,22.41-12.94,13.45,7.76Z"/>
            <path d="m10,74.53c-.18,0-.36-.05-.52-.14l-8.96-5.18c-.32-.19-.52-.53-.52-.9s.2-.71.52-.9l22.41-12.94c.32-.19.72-.19,1.04,0l13.45,7.76s0,0,0,0h0c.5.29.67.92.38,1.42-.29.5-.92.67-1.42.38h0c-2.45-1.41-5.48-1.41-7.92,0l-17.93,10.35c-.16.09-.34.14-.52.14Zm-6.89-6.21l6.89,3.98,17.41-10.05c1.15-.66,2.41-1.08,3.69-1.25l-7.65-4.42-20.34,11.74Z"/>
          </g>
          <g>
            <path class="cls-1" d="m104.13,19.15l-31.38,18.11-8.96-5.18,31.37-18.11,8.97,5.18Z"/>
            <path d="m72.75,38.3c-.18,0-.36-.05-.52-.14l-8.96-5.18c-.32-.19-.52-.53-.52-.9s.2-.71.52-.9l31.38-18.11c.32-.19.72-.19,1.04,0l8.97,5.18c.32.19.52.53.52.9s-.2.71-.52.9l-31.38,18.11c-.16.09-.34.14-.52.14Zm-6.89-6.21l6.89,3.98,29.3-16.92-6.89-3.98-29.3,16.92Z"/>
          </g>
          <g>
            <path class="cls-3" d="m68.27,52.79l4.48,2.59-11.2,6.47v-5.18l6.72-3.88Z"/>
            <path d="m61.55,62.89c-.18,0-.36-.05-.52-.14-.32-.19-.52-.53-.52-.9v-5.18c0-.37.2-.71.52-.9l6.72-3.88c.32-.19.72-.19,1.04,0l4.48,2.59c.32.19.52.53.52.9s-.2.71-.52.9l-11.2,6.47c-.16.09-.34.14-.52.14Zm1.04-5.61v2.78l8.09-4.67-2.41-1.39-5.69,3.28Z"/>
          </g>
          <g>
            <path class="cls-3" d="m72.75,70.91l-4.48-2.59-6.72,3.88v5.18l11.2-6.47Z"/>
            <path d="m61.55,78.41c-.18,0-.36-.05-.52-.14-.32-.19-.52-.53-.52-.9v-5.18c0-.37.2-.71.52-.9l6.72-3.88c.32-.19.72-.19,1.04,0l4.48,2.59c.32.19.52.53.52.9s-.2.71-.52.9l-11.2,6.47c-.16.09-.34.14-.52.14Zm1.04-5.61v2.78l8.09-4.67-2.41-1.39-5.69,3.28Z"/>
          </g>
          <g>
            <path class="cls-3" d="m92.92,51.5l-8.96,5.18,8.96-5.18Z"/>
            <path d="m83.96,57.71c-.36,0-.71-.19-.9-.52-.09-.16-.14-.34-.14-.52,0-.36.19-.71.52-.9l8.96-5.18c.5-.29,1.13-.12,1.42.38.09.16.14.34.14.52,0,.36-.19.71-.52.9l-8.96,5.18c-.16.09-.34.14-.52.14Z"/>
          </g>
          <g>
            <path class="cls-3" d="m83.96,56.68v7.76l8.96,5.18v-18.11l-8.96,5.18Z"/>
            <path d="m92.92,70.65c-.18,0-.36-.05-.52-.14l-8.96-5.18c-.32-.19-.52-.53-.52-.9v-7.76c0-.37.2-.71.52-.9l8.96-5.18c.32-.19.72-.19,1.04,0,.32.19.52.53.52.9v18.11c0,.37-.2.71-.52.9-.16.09-.34.14-.52.14Zm-7.93-6.81l6.89,3.98v-14.52l-6.89,3.98v6.57Z"/>
          </g>
          <g>
            <path class="cls-1" d="m72.75,37.27l-8.96-5.18-31.37,18.11,8.96,5.18,31.37-18.11Z"/>
            <path d="m41.38,56.42c-.18,0-.36-.05-.52-.14l-8.96-5.18c-.32-.19-.52-.53-.52-.9s.2-.71.52-.9l31.37-18.11c.32-.19.72-.19,1.04,0l8.96,5.18c.32.19.52.53.52.9s-.2.71-.52.9l-31.37,18.11c-.16.09-.34.14-.52.14Zm-6.89-6.21l6.89,3.98,29.3-16.92-6.89-3.98-29.3,16.92Z"/>
          </g>
          <g>
            <path class="cls-3" d="m83.96,46.32l8.96-5.18v-5.18l-8.96,5.18v5.18Z"/>
            <path d="m83.96,47.36c-.18,0-.36-.05-.52-.14-.32-.19-.52-.53-.52-.9v-5.18c0-.37.2-.71.52-.9l8.96-5.18c.32-.19.72-.19,1.04,0,.32.19.52.53.52.9v5.18c0,.37-.2.71-.52.9l-8.96,5.18c-.16.09-.34.14-.52.14Zm1.04-5.61v2.78l6.89-3.98v-2.78l-6.89,3.98Z"/>
          </g>
          <g>
            <path class="cls-3" d="m29.36,92.27c.49-.28.79-.81.79-1.37s-.3-1.09-.79-1.37c-2.24-1.29-5.24-3.02-5.24-3.02v8.8s3-1.73,5.24-3.02Z"/>
            <path d="m24.12,96.33c-.18,0-.36-.05-.52-.14-.32-.19-.52-.53-.52-.9v-8.8c0-.37.2-.71.52-.9.32-.19.72-.19,1.04,0l5.24,3.02c.81.47,1.31,1.34,1.31,2.27s-.5,1.8-1.31,2.27t0,0l-5.24,3.02c-.16.09-.34.14-.52.14Zm1.04-8.04v5.21l3.68-2.13c.17-.1.28-.28.28-.48s-.11-.38-.28-.48l-3.68-2.13Zm4.2,3.98h0,0Z"/>
          </g>
          <g>
            <path class="cls-3" d="m83.96,46.32l8.96-5.18-4.48-2.59-4.48,2.59v5.18Z"/>
            <path d="m83.96,47.36c-.18,0-.36-.05-.52-.14-.32-.19-.52-.53-.52-.9v-5.18c0-.37.2-.71.52-.9l4.48-2.59c.32-.19.72-.19,1.04,0l4.48,2.59c.32.19.52.53.52.9s-.2.71-.52.9l-8.96,5.18c-.16.09-.34.14-.52.14Zm1.04-5.61v2.78l5.85-3.38-2.41-1.39-3.45,1.99Z"/>
          </g>
          <g>
            <path class="cls-1" d="m131.02,8.8h0c-2.77-1.6-6.19-1.6-8.96,0-6.54,3.78-17.93,10.35-17.93,10.35l-8.96-5.18L117.58,1.04l13.45,7.76Z"/>
            <path d="m104.13,20.19c-.18,0-.36-.05-.52-.14l-8.96-5.18c-.32-.19-.52-.53-.52-.9s.2-.71.52-.9L117.06.14c.32-.19.72-.19,1.04,0l13.44,7.76s0,0,0,0h0c.5.29.67.92.38,1.42-.29.5-.92.67-1.42.38-2.45-1.41-5.48-1.41-7.93,0l-17.93,10.35c-.16.09-.34.14-.52.14Zm-6.89-6.21l6.89,3.98,17.41-10.05c1.15-.67,2.41-1.08,3.69-1.25l-7.65-4.42-20.34,11.74Z"/>
          </g>
        </g>
        <g id="set">
          <g>
            <path class="cls-3" d="m5.52,126.36c0-3.89,2.07-7.48,5.44-9.42,11.01-6.36,34.9-20.15,34.9-20.15l8.96,5.18s-29.62,17.1-38.1,22c-.46.27-.75.76-.75,1.29s.28,1.03.75,1.29h0v12.94s-4.46-2.58-7.75-4.48c-2.14-1.23-3.45-3.51-3.45-5.98v-2.67Z"/>
            <path d="m16.73,140.52c-.18,0-.36-.05-.52-.14l-7.75-4.48c-2.45-1.41-3.97-4.05-3.97-6.88v-2.67c0-4.24,2.28-8.19,5.96-10.32l34.9-20.15c.32-.19.72-.19,1.04,0l8.96,5.18c.32.19.52.53.52.9s-.2.71-.52.9l-38.1,22c-.14.08-.23.23-.23.4s.09.31.23.4c.32.19.52.53.52.9v12.94c0,.37-.2.71-.52.9-.16.09-.34.14-.52.14Zm29.13-42.54l-34.38,19.85c-3.03,1.75-4.92,5.02-4.92,8.52v2.67c0,2.09,1.12,4.04,2.94,5.08l6.2,3.58v-10.64c-.47-.47-.75-1.11-.75-1.8,0-.9.49-1.74,1.27-2.19l36.54-21.1-6.89-3.98Z"/>
          </g>
          <g>
            <path class="cls-3" d="m104.13,117.49l-8.97-5.18v-20.7l8.97-5.18v31.05Z"/>
            <path d="m104.13,118.53c-.18,0-.36-.05-.52-.14l-8.97-5.18c-.32-.19-.52-.53-.52-.9v-20.7c0-.37.2-.71.52-.9l8.97-5.18c.32-.19.72-.19,1.04,0,.32.19.52.53.52.9v31.05c0,.37-.2.71-.52.9-.16.09-.34.14-.52.14Zm-7.93-6.81l6.89,3.98v-27.46l-6.89,3.98v19.51Z"/>
          </g>
          <g>
            <path class="cls-2" d="m90.68,81.26l40.34-23.29v18.11l-11.21,6.47v25.88l-15.69,9.06v-25.88l-13.45,7.76v-18.11Z"/>
            <path d="m104.13,118.53c-.18,0-.36-.05-.52-.14-.32-.19-.52-.53-.52-.9v-24.08l-11.89,6.87c-.32.19-.72.19-1.04,0-.32-.19-.52-.53-.52-.9v-18.11c0-.37.2-.71.52-.9l40.34-23.29c.32-.19.72-.19,1.04,0,.32.19.52.53.52.9v18.11c0,.37-.2.71-.52.9l-10.69,6.17v25.28c0,.37-.2.71-.52.9l-15.69,9.06c-.16.09-.34.14-.52.14Zm0-27.95c.18,0,.36.05.52.14.32.19.52.53.52.9v24.08l13.61-7.86v-25.28c0-.37.2-.71.52-.9l10.69-6.17v-15.72l-38.27,22.09v15.72l11.89-6.87c.16-.09.34-.14.52-.14Z"/>
          </g>
          <g>
            <path class="cls-1" d="m131.02,57.97l-8.96-5.18-40.34,23.29,8.96,5.18,40.34-23.29Z"/>
            <path d="m90.68,82.3c-.18,0-.36-.05-.52-.14l-8.96-5.18c-.32-.19-.52-.53-.52-.9s.2-.71.52-.9l40.34-23.29c.32-.19.72-.19,1.04,0l8.96,5.18c.32.19.52.53.52.9s-.2.71-.52.9l-40.34,23.29c-.16.09-.34.14-.52.14Zm-6.89-6.21l6.89,3.98,38.27-22.09-6.89-3.98-38.27,22.09Z"/>
          </g>
          <g>
            <path class="cls-3" d="m90.68,99.37v-18.11l-8.96-5.18v18.11l8.96,5.18Z"/>
            <path d="m90.68,100.41c-.18,0-.36-.05-.52-.14l-8.96-5.18c-.32-.19-.52-.53-.52-.9v-18.11c0-.37.2-.71.52-.9.32-.19.72-.19,1.04,0l8.96,5.18c.32.19.52.53.52.9v18.11c0,.37-.2.71-.52.9-.16.09-.34.14-.52.14Zm-7.93-6.81l6.89,3.98v-15.72l-6.89-3.98v15.72Z"/>
          </g>
          <g>
            <path class="cls-2" d="m81.72,76.08l8.96,5.18v12.94l-13.45,7.76v5.18l9.84-5.68,3.6-2.08v10.35l-13.45,7.76v5.18l13.45-7.76v10.35l-35.86,20.7v-43.99l-8.97-5.18,35.86-20.7Z"/>
            <path d="m54.83,146.99c-.18,0-.36-.05-.52-.14-.32-.19-.52-.53-.52-.9v-43.39l-8.45-4.88c-.32-.19-.52-.53-.52-.9s.2-.71.52-.9l35.86-20.7c.32-.19.72-.19,1.04,0l8.96,5.18c.32.19.52.53.52.9v12.94c0,.37-.2.71-.52.9l-12.93,7.46v2.78l11.89-6.87c.32-.19.72-.19,1.04,0,.32.19.52.53.52.9v10.35c0,.37-.2.71-.52.9l-12.93,7.46v2.78l11.89-6.87c.32-.19.72-.19,1.04,0,.32.19.52.53.52.9v10.35c0,.37-.2.71-.52.9l-35.86,20.7c-.16.09-.34.14-.52.14Zm-6.89-50.21l7.41,4.28c.32.19.52.53.52.9v42.2l33.78-19.51v-7.96l-11.89,6.87c-.32.19-.72.19-1.04,0-.32-.19-.52-.53-.52-.9v-5.18c0-.37.2-.71.52-.9l12.93-7.46v-7.96l-11.89,6.87c-.32.19-.72.19-1.04,0-.32-.19-.52-.53-.52-.9v-5.18c0-.37.2-.71.52-.9l12.93-7.46v-11.74l-7.93-4.58-33.79,19.51Z"/>
          </g>
          <g>
            <path class="cls-3" d="m86.2,96.79l4.48,2.59-13.45,7.76v-5.18l8.96-5.18Z"/>
            <path d="m77.24,108.18c-.18,0-.36-.05-.52-.14-.32-.19-.52-.53-.52-.9v-5.18c0-.37.2-.71.52-.9l8.96-5.18c.32-.19.72-.19,1.04,0l4.48,2.59c.32.19.52.53.52.9s-.2.71-.52.9l-13.45,7.76c-.16.09-.34.14-.52.14Zm1.04-5.61v2.78l10.34-5.97-2.41-1.39-7.93,4.58Z"/>
          </g>
          <g>
            <path class="cls-3" d="m90.68,114.9l-4.48-2.59-8.96,5.18v5.18l13.45-7.76Z"/>
            <path d="m77.24,123.7c-.18,0-.36-.05-.52-.14-.32-.19-.52-.53-.52-.9v-5.18c0-.37.2-.71.52-.9l8.96-5.18c.32-.19.72-.19,1.04,0l4.48,2.59c.32.19.52.53.52.9s-.2.71-.52.9l-13.45,7.76c-.16.09-.34.14-.52.14Zm1.04-5.61v2.78l10.34-5.97-2.41-1.39-7.93,4.58Z"/>
          </g>
          <g>
            <path class="cls-1" d="m90.68,81.26l-8.96-5.18-35.86,20.7,8.96,5.18,35.86-20.7Z"/>
            <path d="m54.82,103c-.18,0-.36-.05-.52-.14l-8.96-5.18c-.32-.19-.52-.53-.52-.9s.2-.71.52-.9l35.86-20.7c.32-.19.72-.19,1.04,0l8.96,5.18c.32.19.52.53.52.9s-.2.71-.52.9l-35.86,20.7c-.16.09-.34.14-.52.14Zm-6.89-6.21l6.89,3.98,33.79-19.51-6.89-3.98-33.79,19.51Z"/>
          </g>
          <g>
            <path class="cls-3" d="m54.82,145.96l-8.96-5.18v-43.99l8.96,5.18v43.99Z"/>
            <path d="m54.82,146.99c-.18,0-.36-.05-.52-.14l-8.96-5.18c-.32-.19-.52-.53-.52-.9v-43.99c0-.37.2-.71.52-.9.32-.19.72-.19,1.04,0l8.96,5.18c.32.19.52.53.52.9v43.99c0,.37-.2.71-.52.9-.16.09-.34.14-.52.14Zm-7.93-6.81l6.89,3.98v-41.6l-6.89-3.98v41.6Z"/>
          </g>
          <g>
            <path class="cls-1" d="m18.97,140.78l-13.45,7.76,8.96,5.18,13.45-7.76-8.97-5.18Z"/>
            <path d="m14.48,154.76c-.18,0-.36-.05-.52-.14l-8.96-5.18c-.32-.19-.52-.53-.52-.9s.2-.71.52-.9l13.45-7.76c.32-.19.72-.19,1.04,0l8.97,5.18c.32.19.52.53.52.9s-.2.71-.52.9l-13.45,7.76c-.16.09-.34.14-.52.14Zm-6.89-6.21l6.89,3.98,11.37-6.57-6.89-3.98-11.37,6.57Z"/>
          </g>
          <g>
            <path class="cls-3" d="m5.52,164.07v-15.53l8.96,5.18v15.53l-8.96-5.18Z"/>
            <path d="m14.48,170.28c-.18,0-.36-.05-.52-.14l-8.96-5.18c-.32-.19-.52-.53-.52-.9v-15.53c0-.37.2-.71.52-.9.32-.19.72-.19,1.04,0l8.96,5.18c.32.19.52.53.52.9v15.53c0,.37-.2.71-.52.9-.16.09-.34.14-.52.14Zm-7.93-6.81l6.89,3.98v-13.13l-6.89-3.98v13.13Z"/>
          </g>
          <path class="cls-1" d="m5.52,125.56c0-3.39,1.81-6.52,4.75-8.22h0l8.82,5.26h0c-2.77,1.6-4.27,4.74-3.77,7.89.64,4.06,1.42,8.99,1.42,8.99,0,0-4.46-2.58-7.75-4.48-2.14-1.23-3.45-3.51-3.45-5.98v-3.48Z"/>
          <path d="m16.73,140.52c-.18,0-.36-.05-.52-.14l-7.75-4.48c-2.45-1.41-3.97-4.05-3.97-6.88v-2.67c0-4.24,2.28-8.19,5.96-10.32l34.9-20.15c.32-.19.72-.19,1.04,0l8.96,5.18c.32.19.52.53.52.9s-.2.71-.52.9l-33.87,19.56c-3.5,2.02-5.43,6.06-4.8,10.05l1.08,6.86c.06.39-.11.79-.44,1.02-.18.12-.38.18-.59.18Zm29.13-42.54l-34.38,19.85c-3.03,1.75-4.92,5.02-4.92,8.52v2.67c0,2.09,1.12,4.04,2.94,5.08l5.87,3.39-.74-4.71c-.76-4.83,1.57-9.72,5.81-12.17l32.32-18.66-6.89-3.98Z"/>
          <g>
            <path class="cls-2" d="m14.48,153.72s5-2.88,8.9-5.14c.94-.54,1.52-1.54,1.52-2.63s-.58-2.08-1.52-2.63c-1.68-.97-3.56-2.05-5.16-2.98-2.31-1.34-3.74-3.81-3.74-6.48v-2.34c0-3.89,2.07-7.48,5.44-9.42,11.01-6.36,34.9-20.15,34.9-20.15v15.53s-5,2.88-8.9,5.14c-.94.54-1.52,1.54-1.52,2.63s.58,2.08,1.52,2.63c1.68.97,3.56,2.05,5.16,2.98,2.31,1.34,3.74,3.81,3.74,6.48v8.62l-40.34,23.29v-15.53Z"/>
            <path d="m14.48,170.28c-.18,0-.36-.05-.52-.14-.32-.19-.52-.53-.52-.9v-15.53c0-.37.2-.71.52-.9l8.9-5.14c.61-.36,1-1.02,1-1.73s-.38-1.37-1-1.73l-5.16-2.98c-2.63-1.52-4.26-4.34-4.26-7.38v-2.34c0-4.24,2.28-8.19,5.96-10.32l34.9-20.15c.32-.19.72-.19,1.04,0,.32.19.52.53.52.9v15.53c0,.37-.2.71-.52.9l-8.9,5.14c-.61.36-1,1.02-1,1.73s.38,1.37,1,1.73l5.16,2.98c2.63,1.52,4.26,4.34,4.26,7.38v8.62c0,.37-.2.71-.52.9l-40.34,23.29c-.16.09-.34.14-.52.14Zm1.04-15.97v13.13l38.27-22.09v-8.02c0-2.3-1.23-4.44-3.22-5.58l-5.16-2.98c-1.25-.73-2.03-2.08-2.03-3.53s.78-2.8,2.03-3.52l8.38-4.84v-13.13l-33.35,19.25c-3.03,1.75-4.92,5.02-4.92,8.52v2.34c0,2.3,1.23,4.44,3.22,5.58l5.16,2.98c1.25.73,2.03,2.08,2.03,3.53s-.78,2.8-2.03,3.52l-8.38,4.84Z"/>
          </g>
        </g>
        <g id="bit">
          <g>
            <path class="cls-2" d="m90.68,179.6v-20.7l-25.77,14.88v20.7l25.77-14.88Z"/>
            <path d="m64.91,195.51c-.18,0-.36-.05-.52-.14-.32-.19-.52-.53-.52-.9v-20.7c0-.37.2-.71.52-.9l25.77-14.88c.32-.19.72-.19,1.04,0,.32.19.52.53.52.9v20.7c0,.37-.2.71-.52.9l-25.77,14.88c-.16.09-.34.14-.52.14Zm1.04-21.14v18.31l23.7-13.68v-18.31l-23.7,13.68Zm24.74,5.22h0,0Z"/>
          </g>
          <g>
            <path class="cls-3" d="m104.13,171.83l-8.97-5.18v-20.7l8.97-5.18v31.05Z"/>
            <path d="m104.13,172.87c-.18,0-.36-.05-.52-.14l-8.97-5.18c-.32-.19-.52-.53-.52-.9v-20.7c0-.37.2-.71.52-.9l8.97-5.18c.32-.19.72-.19,1.04,0,.32.19.52.53.52.9v31.05c0,.37-.2.71-.52.9-.16.09-.34.14-.52.14Zm-7.93-6.81l6.89,3.98v-27.46l-6.89,3.98v19.51Z"/>
          </g>
          <g>
            <path class="cls-3" d="m90.68,153.72v-18.11l-8.96-5.18v18.11l8.96,5.18Z"/>
            <path d="m90.68,154.76c-.18,0-.36-.05-.52-.14l-8.96-5.18c-.32-.19-.52-.53-.52-.9v-18.11c0-.37.2-.71.52-.9.32-.19.72-.19,1.04,0l8.96,5.18c.32.19.52.53.52.9v18.11c0,.37-.2.71-.52.9-.16.09-.34.14-.52.14Zm-7.93-6.81l6.89,3.98v-15.72l-6.89-3.98v15.72Z"/>
          </g>
          <g>
            <path class="cls-2" d="m90.68,135.6l40.34-23.29v18.11l-11.21,6.47v25.88l-15.69,9.06v-25.88l-13.45,7.76v-18.11Z"/>
            <path d="m104.13,172.87c-.18,0-.36-.05-.52-.14-.32-.19-.52-.53-.52-.9v-24.08l-11.89,6.87c-.32.19-.72.19-1.04,0-.32-.19-.52-.53-.52-.9v-18.11c0-.37.2-.71.52-.9l40.34-23.29c.32-.19.72-.19,1.04,0,.32.19.52.53.52.9v18.11c0,.37-.2.71-.52.9l-10.69,6.17v25.28c0,.37-.2.71-.52.9l-15.69,9.06c-.16.09-.34.14-.52.14Zm0-27.95c.18,0,.36.05.52.14.32.19.52.53.52.9v24.08l13.61-7.86v-25.28c0-.37.2-.71.52-.9l10.69-6.17v-15.72l-38.27,22.09v15.72l11.89-6.87c.16-.09.34-.14.52-.14Z"/>
          </g>
          <g>
            <path class="cls-1" d="m131.02,112.31l-8.96-5.18-40.34,23.29,8.96,5.18,40.34-23.29Z"/>
            <path d="m90.68,136.64c-.18,0-.36-.05-.52-.14l-8.96-5.18c-.32-.19-.52-.53-.52-.9s.2-.71.52-.9l40.34-23.29c.32-.19.72-.19,1.04,0l8.96,5.18c.32.19.52.53.52.9s-.2.71-.52.9l-40.34,23.29c-.16.09-.34.14-.52.14Zm-6.89-6.21l6.89,3.98,38.27-22.09-6.89-3.98-38.27,22.09Z"/>
          </g>
          <g>
            <path class="cls-3" d="m64.91,194.48l-8.97-5.18v-20.7l8.97,5.18v20.7Z"/>
            <path d="m64.91,195.51c-.18,0-.36-.05-.52-.14l-8.97-5.18c-.32-.19-.52-.53-.52-.9v-20.7c0-.37.2-.71.52-.9.32-.19.72-.19,1.04,0l8.97,5.18c.32.19.52.53.52.9v20.7c0,.37-.2.71-.52.9-.16.09-.34.14-.52.14Zm-7.93-6.81l6.89,3.98v-18.31l-6.89-3.98v18.31Z"/>
          </g>
          <g>
            <path class="cls-3" d="m90.68,158.9l-25.77,14.88-8.97-5.18,25.77-14.88,8.96,5.18Z"/>
            <path d="m64.91,174.81c-.18,0-.36-.05-.52-.14l-8.97-5.18c-.32-.19-.52-.53-.52-.9s.2-.71.52-.9l25.77-14.88c.32-.19.72-.19,1.04,0l8.96,5.18c.32.19.52.53.52.9s-.2.71-.52.9l-25.77,14.88c-.16.09-.34.14-.52.14Zm-6.89-6.21l6.89,3.98,23.7-13.68-6.89-3.98-23.7,13.68Z"/>
          </g>
          <g>
            <path class="cls-3" d="m64.91,168.6l-3.57-2.06-5.4-3.12v-18.11l8.97,5.18v18.11Z"/>
            <path d="m64.91,169.64c-.18,0-.36-.05-.52-.14l-8.97-5.18c-.32-.19-.52-.53-.52-.9v-18.11c0-.37.2-.71.52-.9.32-.19.72-.19,1.04,0l8.97,5.18c.32.19.52.53.52.9v18.11c0,.37-.2.71-.52.9-.16.09-.34.14-.52.14Zm-7.93-6.81l6.89,3.98v-15.72l-6.89-3.98v15.72Z"/>
          </g>
          <g>
            <path class="cls-2" d="m64.91,168.6l25.77-14.88v-18.11l-25.77,14.88v18.11Z"/>
            <path d="m64.91,169.64c-.18,0-.36-.05-.52-.14-.32-.19-.52-.53-.52-.9v-18.11c0-.37.2-.71.52-.9l25.77-14.88c.32-.19.72-.19,1.04,0,.32.19.52.53.52.9v18.11c0,.37-.2.71-.52.9l-25.77,14.88c-.16.09-.34.14-.52.14Zm1.04-18.55v15.72l23.7-13.68v-15.72l-23.7,13.68Z"/>
          </g>
          <g>
            <path class="cls-1" d="m64.91,150.48l-8.97-5.18,25.77-14.88,8.96,5.18-25.77,14.88Z"/>
            <path d="m64.91,151.52c-.18,0-.36-.05-.52-.14l-8.97-5.18c-.32-.19-.52-.53-.52-.9s.2-.71.52-.9l25.77-14.88c.32-.19.72-.19,1.04,0l8.96,5.18c.32.19.52.53.52.9s-.2.71-.52.9l-25.77,14.88c-.16.09-.34.14-.52.14Zm-6.89-6.21l6.89,3.98,23.7-13.68-6.89-3.98-23.7,13.68Z"/>
          </g>
          <g>
            <path class="cls-3" d="m5.52,218.42l8.96,5.18v-43.99l-8.96-5.18v43.99Z"/>
            <path d="m14.48,224.63c-.18,0-.36-.05-.52-.14l-8.96-5.18c-.32-.19-.52-.53-.52-.9v-43.99c0-.37.2-.71.52-.9.32-.19.72-.19,1.04,0l8.96,5.18c.32.19.52.53.52.9v43.99c0,.37-.2.71-.52.9-.16.09-.34.14-.52.14Zm-7.93-6.81l6.89,3.98v-41.6l-6.89-3.98v41.6Z"/>
          </g>
          <g>
            <path class="cls-1" d="m51.46,158.25l-36.98,21.35-8.96-5.18,36.98-21.35,8.96,5.18Z"/>
            <path d="m14.48,180.63c-.18,0-.36-.05-.52-.14l-8.96-5.18c-.32-.19-.52-.53-.52-.9s.2-.71.52-.9l36.98-21.35c.32-.19.72-.19,1.04,0l8.96,5.18c.32.19.52.53.52.9s-.2.71-.52.9l-36.98,21.35c-.16.09-.34.14-.52.14Zm-6.89-6.21l6.89,3.98,34.91-20.15-6.89-3.98-34.91,20.15Z"/>
          </g>
          <g>
            <path class="cls-2" d="m51.46,158.25s.84.48,2.1,1.21c2.92,1.69,5,4.52,5.74,7.81.74,3.29.07,6.74-1.86,9.52-.89,1.29-1.5,2.17-1.5,2.17h0c3.7,2.13,5.98,6.08,5.98,10.35s-2.28,8.21-5.98,10.35c-17.48,10.09-41.46,23.94-41.46,23.94v-43.99l36.98-21.35Z"/>
            <path d="m14.48,224.63c-.18,0-.36-.05-.52-.14-.32-.19-.52-.53-.52-.9v-43.99c0-.37.2-.71.52-.9l36.98-21.35c.32-.19.71-.19,1.04,0,0,0,.84.48,2.1,1.21,3.16,1.83,5.44,4.92,6.24,8.48.8,3.57.07,7.33-2.02,10.34l-.89,1.28c3.45,2.41,5.55,6.4,5.55,10.65,0,4.63-2.49,8.94-6.5,11.25l-41.46,23.94c-.16.09-.34.14-.52.14Zm1.04-44.43v41.6l39.91-23.04c3.37-1.94,5.46-5.56,5.46-9.45s-2.09-7.51-5.46-9.45c-.25-.14-.43-.39-.49-.67-.06-.28,0-.58.16-.82l1.5-2.17c1.75-2.53,2.37-5.7,1.7-8.7-.67-3-2.59-5.6-5.25-7.14-.66-.38-1.21-.7-1.58-.91l-35.94,20.75Z"/>
          </g>
          <g>
            <path class="cls-3" d="m44.42,179.27c.48-.55.5-1.32.38-2.04-.12-.72-.56-1.35-1.19-1.71h0c-.91-.53-2.04-.53-2.95,0-1.15.67-2.56,1.48-2.56,1.48v6.21s3.4-1.97,4.8-2.77c.29-.17.57-.35.83-.57.22-.18.44-.37.68-.6Z"/>
            <path d="m38.1,184.25c-.18,0-.36-.05-.52-.14-.32-.19-.52-.53-.52-.9v-6.21c0-.37.2-.71.52-.9l2.56-1.48c1.23-.71,2.76-.71,3.99,0,.9.52,1.52,1.41,1.69,2.43.2,1.21,0,2.18-.62,2.89-.02.02-.04.05-.07.07-.25.23-.49.45-.75.66-.29.23-.6.45-.97.66l-4.8,2.77c-.16.09-.34.14-.52.14Zm1.04-6.65v3.82l3.24-1.87c.27-.15.5-.31.7-.47.2-.16.39-.33.58-.51.21-.28.19-.78.12-1.16-.07-.41-.32-.77-.68-.98-.59-.34-1.32-.34-1.91,0l-2.04,1.18Zm5.28,1.67h0,0Z"/>
          </g>
          <g>
            <path class="cls-3" d="m46.22,192.88c.64-.8.8-1.71.64-2.65-.16-.94-.73-1.76-1.55-2.23t0,0c-1.19-.69-2.66-.69-3.86,0-1.51.87-3.35,1.93-3.35,1.93v8.12s4.69-2.71,6.41-3.7c1.15-.8,1.46-1.19,1.71-1.47Z"/>
            <path d="m38.11,199.09c-.18,0-.36-.05-.52-.14-.32-.19-.52-.53-.52-.9v-8.12c0-.37.2-.71.52-.9l3.35-1.93c1.51-.87,3.39-.87,4.89,0,.01,0,.03.02.04.02,1.07.64,1.81,1.7,2.02,2.94.22,1.31-.08,2.51-.86,3.47-.01.01-.02.03-.03.04l-.06.07c-.27.3-.67.76-1.83,1.57-.02.02-.05.03-.08.05-1.72.99-6.41,3.7-6.41,3.7-.16.09-.34.14-.52.14Zm1.04-8.56v5.73c1.51-.87,3.72-2.15,4.82-2.78.92-.65,1.21-.97,1.42-1.21l.05-.05c.4-.51.53-1.08.41-1.81-.11-.63-.49-1.18-1.05-1.51,0,0-.02-.01-.03-.02-.86-.49-1.93-.48-2.79.02l-2.83,1.63Zm7.08,2.35h0,0Z"/>
          </g>
          <g>
            <path class="cls-3" d="m38.1,177.12l5.34,2.93-5.34,3.17v-6.09Z"/>
            <path d="m38.1,184.25c-.18,0-.35-.05-.51-.14-.32-.18-.52-.53-.52-.9v-6.09c0-.37.19-.71.51-.89.31-.19.7-.19,1.03-.02l5.34,2.93c.33.18.53.52.54.89,0,.37-.19.72-.51.91l-5.34,3.17c-.16.1-.35.14-.53.14Zm1.04-5.38v2.52l2.21-1.31-2.21-1.21Z"/>
          </g>
          <g>
            <path class="cls-3" d="m38.1,198.05v-8.12l7.03,3.97-7.03,4.16Z"/>
            <path d="m38.1,199.09c-.18,0-.35-.05-.51-.14-.32-.18-.52-.53-.52-.9v-8.12c0-.37.2-.71.51-.9.32-.19.71-.19,1.03,0l7.03,3.97c.32.18.52.52.53.89s-.19.71-.51.9l-7.03,4.16c-.16.1-.34.14-.53.14Zm1.04-7.39v4.53l3.92-2.32-3.92-2.21Z"/>
          </g>
        </g>
      </g>
    </g>
  </g>
</svg>