<?xml version="1.0" standalone="no"?>
<!DOCTYPE svg PUBLIC "-//W3C//DTD SVG 20010904//EN"
 "http://www.w3.org/TR/2001/REC-SVG-20010904/DTD/svg10.dtd">
<svg version="1.0" xmlns="http://www.w3.org/2000/svg"
 width="900.000000pt" height="900.000000pt" viewBox="0 0 900.000000 900.000000"
 preserveAspectRatio="xMidYMid meet">
<metadata>
Created by potrace 1.14, written by Peter Selinger 2001-2017
</metadata>
<g transform="translate(0.000000,900.000000) scale(0.100000,-0.100000)"
fill="#000000" stroke="none">
<path d="M6390 8961 c-36 -21 -801 -462 -1700 -981 -899 -519 -1643 -950
-1652 -958 -15 -13 -18 -38 -20 -189 l-3 -173 -147 85 c-81 47 -152 85 -158
85 -10 0 -820 -463 -903 -516 l-37 -24 2 -911 3 -911 157 -91 156 -91 -33 -41
c-95 -115 -138 -314 -104 -477 25 -122 82 -178 311 -308 92 -52 167 -97 168
-100 0 -3 -102 -63 -227 -135 -125 -71 -236 -138 -245 -147 -17 -17 -18 -45
-18 -338 0 -320 0 -321 23 -343 12 -12 82 -56 154 -97 73 -41 133 -77 133 -80
0 -3 -66 -43 -145 -88 -80 -46 -150 -92 -155 -102 -6 -12 -10 -343 -10 -903 0
-828 1 -886 18 -905 26 -30 366 -222 392 -222 13 0 404 219 869 488 924 532
943 545 1010 671 l32 60 48 -29 c27 -17 54 -30 60 -30 11 0 1041 590 1069 613
9 7 12 105 10 450 l-3 441 -63 36 -63 37 105 62 c58 33 108 61 111 61 3 0 5
-125 5 -278 0 -253 2 -280 18 -294 30 -27 368 -218 384 -218 17 0 634 352 658
376 13 13 16 90 20 530 l5 516 217 126 c150 87 218 131 222 146 3 12 6 184 6
382 0 331 -2 363 -17 382 -10 10 -98 65 -197 122 -140 80 -184 101 -207 98
l-29 -5 0 462 0 462 207 119 c114 66 216 127 225 137 17 16 18 47 18 390 0
283 -3 377 -12 389 -7 9 -77 53 -155 98 -79 45 -143 83 -143 85 0 2 42 27 93
56 188 107 248 158 312 264 75 126 75 123 75 715 0 580 1 568 -62 656 -18 25
-62 65 -98 88 -135 89 -578 336 -601 336 -13 -1 -53 -18 -89 -39z m597 -351
c72 -35 134 -101 151 -158 18 -60 16 -1009 -2 -1077 -31 -117 -116 -229 -216
-286 -25 -14 -241 -139 -482 -278 -240 -138 -439 -251 -442 -251 -3 0 -6 370
-6 823 l0 822 383 217 c210 119 393 218 407 221 55 12 145 -3 207 -33z m-1097
-1287 l0 -828 -170 -97 c-93 -54 -171 -98 -174 -98 -4 0 -6 148 -6 330 l0 330
-25 16 c-24 16 -29 14 -222 -99 l-198 -115 -5 -366 -5 -366 -174 -100 c-96
-55 -176 -100 -178 -100 -2 0 -2 372 -1 826 l3 826 575 333 c316 183 576 334
578 334 1 1 2 -371 2 -826z m-1252 -105 l-3 -203 -209 -120 c-115 -67 -215
-127 -223 -133 -9 -9 -13 -47 -13 -137 0 -115 2 -125 21 -139 12 -8 29 -12 38
-8 14 5 273 152 359 204 l32 20 0 -154 0 -153 -201 -115 c-111 -63 -212 -123
-225 -133 -23 -18 -24 -24 -24 -142 0 -99 3 -127 16 -139 8 -9 20 -16 27 -16
6 0 97 50 202 110 106 61 195 110 198 110 4 0 7 -67 7 -148 l0 -148 -562 -324
c-308 -179 -572 -331 -585 -338 l-23 -13 2 828 3 827 575 332 c316 183 578
333 583 334 4 0 6 -91 5 -202z m2332 -935 l-1 -308 -202 -115 c-111 -63 -212
-125 -224 -137 l-23 -22 0 -510 0 -509 -261 -151 c-144 -83 -263 -151 -265
-151 -2 0 -4 218 -4 485 l0 485 -24 15 c-20 14 -29 14 -48 4 -28 -15 -390
-224 -435 -251 l-33 -20 0 309 0 309 757 437 c416 240 758 437 760 437 2 0 3
-138 3 -307z m-3755 149 c74 -37 129 -93 150 -151 22 -65 23 -998 0 -1086 -34
-128 -106 -215 -250 -300 -49 -30 -270 -158 -490 -285 l-400 -230 -3 822 c-1
452 1 825 5 829 12 10 703 399 748 421 61 29 162 20 240 -20z m2077 -159 c54
-31 98 -59 98 -62 0 -5 -179 -111 -201 -119 -5 -2 -9 48 -9 117 0 67 3 121 7
121 3 0 50 -26 105 -57z m68 -815 l0 -203 -226 -129 c-124 -71 -245 -142 -270
-157 l-44 -29 0 -128 c0 -131 6 -152 41 -152 9 0 122 61 250 135 129 74 237
135 242 135 4 0 7 -67 7 -149 l0 -148 -232 -133 c-128 -73 -250 -144 -270
-157 l-38 -23 0 -128 c0 -132 5 -152 42 -152 11 0 124 61 253 135 128 74 236
135 239 135 3 0 6 -67 6 -149 l0 -149 -669 -386 c-368 -212 -671 -386 -675
-386 -3 0 -6 370 -6 823 l0 823 668 386 c367 213 670 387 675 387 4 1 7 -90 7
-201z m333 -1076 c117 -68 145 -88 135 -97 -14 -14 -364 -215 -372 -215 -3 0
-7 80 -8 177 l-3 178 -55 33 c-30 18 -55 37 -55 42 0 5 25 24 55 42 l55 33 5
210 5 209 40 23 40 22 5 -286 5 -286 148 -85z m-1775 192 l-3 -256 -170 -99
c-93 -54 -184 -114 -202 -133 -43 -46 -52 -108 -25 -167 25 -56 32 -62 182
-148 206 -119 222 -149 218 -421 l-3 -172 -220 -128 c-688 -397 -1284 -740
-1289 -740 -3 0 -6 114 -6 253 l0 253 181 104 c109 64 189 116 202 134 21 30
34 108 23 150 -11 45 -55 83 -181 156 -201 115 -218 139 -223 315 -3 101 0
129 17 177 24 69 70 138 115 174 32 26 1363 801 1379 803 4 1 6 -114 5 -255z
m3050 -470 l-3 -306 -215 -125 c-118 -68 -218 -129 -222 -136 -4 -7 -8 -242
-8 -523 l0 -511 -262 -151 -263 -152 -3 482 c-2 431 -4 484 -19 500 -9 10 -22
18 -30 18 -8 0 -115 -59 -239 -130 -123 -72 -231 -133 -239 -136 -14 -6 -15
30 -13 301 l3 307 750 433 c413 239 753 434 758 434 4 1 6 -137 5 -305z
m-1610 -930 l-3 -307 -440 -254 c-242 -140 -452 -261 -467 -269 l-28 -15 0
308 0 308 463 267 c254 147 465 267 470 268 4 0 6 -138 5 -306z m-1398 -310
l0 -225 -42 25 c-24 14 -111 65 -195 113 -83 48 -149 90 -147 93 8 8 368 218
377 219 4 1 7 -101 7 -225z m-51 -305 c118 -78 188 -197 198 -340 7 -100 -19
-189 -87 -293 -63 -96 -63 -116 -7 -155 64 -43 115 -105 151 -180 29 -62 31
-73 31 -177 0 -107 -1 -112 -38 -186 -26 -53 -54 -91 -91 -125 -36 -33 -301
-191 -854 -511 -441 -254 -804 -462 -807 -462 -3 0 -4 372 -3 826 l3 825 705
409 c388 224 712 408 720 409 8 1 44 -18 79 -40z m1451 -368 l0 -358 -252
-145 c-139 -80 -351 -202 -471 -271 l-217 -126 2 361 3 362 460 267 c253 147
463 267 468 268 4 1 7 -160 7 -358z"/>
<path d="M6530 8043 l-65 -39 -3 -319 c-1 -176 0 -330 3 -342 11 -47 46 -39
177 37 145 85 169 106 198 172 20 46 21 65 18 212 -3 150 -5 164 -28 205 -14
24 -42 58 -63 75 -32 26 -48 31 -105 34 -63 3 -71 1 -132 -35z"/>
<path d="M5290 7497 l-195 -112 -3 -129 c-3 -135 3 -156 41 -156 19 0 354 187
390 218 14 13 17 33 17 138 0 116 -1 124 -22 138 -12 9 -25 16 -28 16 -3 0
-93 -51 -200 -113z"/>
<path d="M2820 5894 c-25 -8 -63 -27 -85 -42 l-40 -28 -3 -332 -2 -331 25 -17
c24 -16 28 -14 151 57 214 123 219 132 219 369 0 173 0 176 -28 225 -29 54
-73 90 -128 105 -43 13 -54 12 -109 -6z"/>
<path d="M3354 1995 c-109 -57 -104 -47 -104 -211 0 -119 3 -145 16 -159 10
-9 25 -14 35 -12 41 11 251 141 279 173 59 68 33 185 -50 226 -53 27 -100 22
-176 -17z"/>
<path d="M3463 1530 c-33 -8 -193 -97 -205 -115 -4 -5 -8 -91 -8 -191 0 -188
3 -204 44 -204 26 0 292 154 334 194 80 75 91 178 27 254 -42 51 -127 78 -192
62z"/>
</g>
</svg>
