<?xml version="1.0" encoding="UTF-8"?>
<svg id="Layer_2" data-name="Layer 2" xmlns="http://www.w3.org/2000/svg" viewBox="0 0 48.38 50.54">
  <defs>
    <style>
      .cls-1 {
        fill: #fff;
      }

      .cls-2 {
        opacity: .8;
      }
    </style>
  </defs>
  <g id="Layer_1-2" data-name="Layer 1">
    <g id="yläpalkki">
      <g class="cls-2">
        <path class="cls-1" d="m36.33,0h-.47c-2.65-.02-7.04-.06-11.68,4.35C19.55-.05,15.16-.02,12.51,0h-.47C8.83,0,0,1.86,0,7.82c0,.04,0,.09.01.13,0,1.66-.01,20.1-.01,25.67,0,3.1,4.21,5.62,9.09,8.55l.64.38c.91.55,1.85,1.09,2.78,1.62h0s.81.46.81.46c1.03.58,2.04,1.13,3.01,1.65l1.49.82v-.02c2.9,1.53,5.2,2.68,5.93,3.04v.42l.44-.21.44.21v-.42c1.36-.67,8.15-4.04,14.02-7.57l.64-.38c4.88-2.92,9.09-5.44,9.09-8.55,0-5.55-.01-23.91-.01-25.65,0-.05.01-.1.01-.15C48.38,1.86,39.55,0,36.33,0ZM12.04.86h.47c.17,0,.36,0,.55,0,2.61,0,6.64.25,10.82,4.39l.3.3.3-.3C28.98.8,33.28.83,35.86.85h.47c2.87,0,11.2,1.72,11.2,6.97h-.01c0,2.62-4.02,5.03-8.68,7.82l-.64.38c-5.94,3.57-12.82,6.98-14.01,7.56-1.19-.58-8.07-3.99-14.01-7.56l-.63-.38C4.89,12.85.86,10.44.86,7.82h-.01C.85,2.57,9.18.86,12.04.86Zm5.77,45.26v-10.8c0-.47-.26-.9-.67-1.13l-3.45-1.89h0c-.25-.14-.55-.13-.8.01-.25.15-.39.4-.39.69v10.19c-.79-.45-1.58-.91-2.35-1.37l-.64-.38c-4.66-2.79-8.68-5.2-8.68-7.82,0-4.58,0-17.91,0-23.4,1.47,2.09,4.67,4.01,8.23,6.14l.64.38c5.88,3.53,12.67,6.9,14.02,7.57v24.85c-1.04-.52-3.27-1.63-5.93-3.05Zm29.71-12.49c0,2.62-4.02,5.03-8.68,7.82l-.64.38c-5.41,3.25-11.62,6.37-13.59,7.35v-24.84c1.3-.64,8.12-4.03,14.02-7.58l.64-.38c3.56-2.13,6.76-4.05,8.23-6.14,0,5.49,0,18.81,0,23.39Z"/>
        <path class="cls-1" d="m37.13,21.46l-1.84,1.1c-.64.37-1.1,1.19-1.1,1.93v3.49c0,.73.55,1.01,1.1.64l1.84-1.1c.64-.37,1.1-1.19,1.1-1.93v-3.49c0-.73-.46-1.01-1.1-.64Z"/>
        <path class="cls-1" d="m30.98,24.95l-1.84,1.1c-.64.37-1.1,1.19-1.1,1.93v3.49c0,.73.55,1.01,1.1.64l1.84-1.1c.64-.37,1.1-1.19,1.1-1.93v-3.49c0-.73-.46-1.01-1.1-.64Z"/>
        <path class="cls-1" d="m43.29,17.97l-1.84,1.1c-.64.37-1.1,1.19-1.1,1.93v3.49c0,.64.46,1.01,1.1.64l1.84-1.1c.64-.37,1.1-1.19,1.1-1.93v-3.49c0-.73-.46-1.01-1.1-.64Z"/>
        <path class="cls-1" d="m37.13,30.18l-1.84,1.1c-.64.37-1.1,1.19-1.1,1.93v3.49c0,.73.55,1.01,1.1.64l1.84-1.1c.64-.37,1.1-1.19,1.1-1.93v-3.49c0-.73-.46-1.01-1.1-.64Z"/>
        <path class="cls-1" d="m30.66,33.7l-2.38,1.3c-.71.43-1.43,1.41-1.43,2.28v4.12c0,.87.71,1.19,1.43.76l2.38-1.3c.83-.43,1.43-1.41,1.43-2.28v-4.12c0-.87-.59-1.19-1.43-.76Z"/>
        <path class="cls-1" d="m43.29,26.69l-1.84,1.1c-.64.37-1.1,1.19-1.1,1.93v3.49c0,.64.46,1.01,1.1.64l1.84-1.1c.64-.37,1.1-1.19,1.1-1.93v-3.49c0-.73-.46-1.01-1.1-.64Z"/>
        <path class="cls-1" d="m7.11,19.07l-1.84-1.1c-.55-.37-1.1-.09-1.1.64v3.49c0,.73.55,1.56,1.1,1.93l1.84,1.1c.64.37,1.1.09,1.1-.64v-3.49c0-.73-.46-1.56-1.1-1.93Z"/>
        <path class="cls-1" d="m13.26,22.65l-1.84-1.1c-.64-.37-1.1-.09-1.1.64v3.49c0,.64.46,1.56,1.1,1.93l1.84,1.1c.64.37,1.1.09,1.1-.64v-3.49c0-.73-.46-1.56-1.1-1.93Z"/>
        <path class="cls-1" d="m19.41,26.14l-1.84-1.1c-.64-.37-1.1-.09-1.1.64v3.49c0,.64.46,1.56,1.1,1.93l1.84,1.1c.64.37,1.1.09,1.1-.64v-3.49c0-.73-.46-1.56-1.1-1.93Z"/>
        <path class="cls-1" d="m7.11,27.79l-1.84-1.1c-.64-.37-1.1-.09-1.1.64v3.49c0,.73.55,1.56,1.1,1.93l1.84,1.1c.64.37,1.1.09,1.1-.64v-3.49c0-.73-.46-1.56-1.1-1.93Z"/>
      </g>
    </g>
  </g>
</svg>