<?xml version="1.0" encoding="UTF-8"?>
<svg id="Layer_2" data-name="Layer 2" xmlns="http://www.w3.org/2000/svg" viewBox="0 0 39.94 41.93">
  <defs>
    <style>
      .cls-1 {
        fill: #fff;
      }

      .cls-2 {
        opacity: .8;
      }
    </style>
  </defs>
  <g id="Layer_1-2" data-name="Layer 1">
    <g id="yläpalkki">
      <g class="cls-2">
        <path class="cls-1" d="m23.7,9.66c.35.29.55.67.65,1.09.2-.1.43-.15.66-.15s.46.06.66.15c.09-.41.3-.8.65-1.09.11-.09.24-.17.37-.24h-3.36c.13.07.26.15.37.24Z"/>
        <path class="cls-1" d="m25.01,0c-5.67,0-10.26,4.59-10.26,10.26s1.56,12.61,10.26,12.61,10.26-6.95,10.26-12.61S30.68,0,25.01,0Zm0,19.26c-2.08,0-3.79-.8-3.86-.84l.37-.77s1.61.75,3.49.75,3.48-.75,3.49-.75l.37.77c-.07.03-1.78.84-3.86.84Zm4.5-3.96c-1.74-.5-2.93-1.96-3.51-2.83-.21-.31-.33-.67-.36-1.03-.17-.15-.38-.24-.62-.24s-.45.1-.62.24c-.04.36-.16.72-.36,1.03-.58.87-1.77,2.33-3.51,2.83-2.55.73-4.7-.66-4.95-3.05l-.11-1.09c-.13-1.24.83-2.3,2.05-2.34h0s15.02-.01,15.02-.01h0c1.22.05,2.18,1.11,2.05,2.35l-.11,1.09c-.25,2.39-2.4,3.78-4.95,3.05Z"/>
        <path class="cls-1" d="m35.18,29.65c-1.2-3.1-4.18-5.14-7.5-5.14h-10.84c-3.32,0-6.3,2.04-7.5,5.14l-1.59,4.09-2.43-10.52h2.49c.64,0,1.2-.43,1.37-1.04l1.33-4.79c.25-.91-.43-1.81-1.37-1.81H3.37v-2.21c0-.95-.77-1.73-1.73-1.73h-.96s-.69,4.46-.69,11.57.69,18.73.69,18.73h39.25l-4.76-12.28Z"/>
      </g>
    </g>
  </g>
</svg>